<svg height="200px" viewBox="-10 -10 360 320" width="200px" xmlns="http://www.w3.org/2000/svg">
<path d="M-1,61 L-1,40 L39,40 L39,80 L81,80 L81,120 L119,120 L119,139 L140,139 L140,99 L100,99 L100,61 L60,61 L60,19 L20,19 L20,0 L81,0 L81,40 L119,40 L119,80 L158,80 L158,61 L140,61 L140,19 L100,19 L100,-1 L180,-1 L180,19 L158,19 L158,40 L199,40 L199,-1 L260,-1 L260,19 L220,19 L220,61 L180,61 L180,99 L159,99 L159,120 L199,120 L199,80 L241,80 L241,40 L279,40 L279,-1 L340,-1 L340,19 L300,19 L300,61 L260,61 L260,99 L220,99 L220,138 L241,138 L241,120 L279,120 L279,80 L339,80 L339,99 L300,99 L300,137 L338,137 L338,160 L279,160 L279,138 L260,138 L260,179 L300,179 L300,221 L341,221 L341,240 L279,240 L279,200 L241,200 L241,160 L199,160 L199,139 L180,139 L180,179 L220,179 L220,221 L260,221 L260,259 L300,259 L300,301 L279,301 L279,280 L241,280 L241,240 L199,240 L199,200 L158,200 L158,221 L180,221 L180,259 L220,259 L220,298 L199,298 L199,280 L157,280 L157,298 L140,298 L140,259 L158,259 L158,240 L119,240 L119,280 L81,280 L81,301 L60,301 L60,259 L100,259 L100,221 L140,221 L140,179 L159,179 L159,160 L119,160 L119,200 L81,200 L81,240 L39,240 L39,280 L-1,280 L-1,259 L20,259 L20,221 L60,221 L60,179 L100,179 L100,138 L81,138 L81,160 L39,160 L39,200 L1,200 L1,179 L20,179 L20,137 L1,137 L1,120 L39,120 L39,138 L60,138 L60,99 L20,99 L20,61 z" fill="none" stroke="green" stroke-width="1"/>
<path d="M0,19 L0,-1 L39,-1 L39,40 L81,40 L81,80 L119,80 L119,120 L161,120 L161,99 L140,99 L140,61 L100,61 L100,19 L60,19 L60,1 L119,1 L119,40 L162,40 L162,19 L140,19 L140,1 L220,1 L220,19 L180,19 L180,61 L162,61 L162,80 L199,80 L199,40 L241,40 L241,1 L300,1 L300,19 L260,19 L260,61 L220,61 L220,99 L180,99 L180,141 L199,141 L199,120 L241,120 L241,80 L279,80 L279,40 L339,40 L339,61 L300,61 L300,99 L260,99 L260,142 L279,142 L279,120 L341,120 L341,143 L300,143 L300,179 L341,179 L341,200 L279,200 L279,160 L241,160 L241,142 L220,142 L220,179 L260,179 L260,221 L300,221 L300,259 L339,259 L339,280 L279,280 L279,240 L241,240 L241,200 L199,200 L199,160 L161,160 L161,179 L180,179 L180,221 L220,221 L220,259 L260,259 L260,298 L241,298 L241,280 L199,280 L199,240 L162,240 L162,259 L180,259 L180,302 L163,302 L163,280 L119,280 L119,301 L100,301 L100,259 L140,259 L140,221 L162,221 L162,200 L119,200 L119,240 L81,240 L81,280 L39,280 L39,299 L20,299 L20,259 L60,259 L60,221 L100,221 L100,179 L140,179 L140,141 L119,141 L119,160 L81,160 L81,200 L39,200 L39,240 L1,240 L1,221 L20,221 L20,179 L60,179 L60,142 L39,142 L39,160 L-2,160 L-2,143 L20,143 L20,99 L-1,99 L-1,80 L39,80 L39,120 L81,120 L81,142 L100,142 L100,99 L60,99 L60,61 L20,61 L20,19 z" fill="none" stroke="blue" stroke-width="1"/>
<path d="M-1,138 L-1,100 L79,100 L79,139 L120,139 L120,59 L40,59 L40,-1 L79,-1 L79,20 L158,20 L158,2 L200,2 L200,59 L159,59 L159,100 L239,100 L239,20 L340,20 L340,59 L280,59 L280,138 L341,138 L341,180 L239,180 L239,139 L200,139 L200,219 L280,219 L280,301 L239,301 L239,260 L158,260 L158,301 L120,301 L120,219 L159,219 L159,180 L79,180 L79,260 L-1,260 L-1,219 L40,219 L40,138 z" fill="none" stroke="red" stroke-width="1"/>
<path d="M0,59 L0,20 L79,20 L79,100 L161,100 L161,59 L120,59 L120,-2 L162,-2 L162,20 L239,20 L239,-2 L280,-2 L280,59 L200,59 L200,141 L239,141 L239,100 L339,100 L339,142 L280,142 L280,219 L339,219 L339,260 L239,260 L239,180 L161,180 L161,219 L200,219 L200,298 L162,298 L162,260 L79,260 L79,299 L40,299 L40,219 L120,219 L120,141 L79,141 L79,180 L1,180 L1,142 L40,142 L40,59 z" fill="none" stroke="yellow" stroke-width="1"/>
<path d="M-1,220 L-1,139 L80,139 L80,0 L159,0 L159,60 L340,60 L340,139 L240,139 L240,301 L159,301 L159,220 z" fill="none" stroke="purple" stroke-width="1"/>
<path d="M0,141 L0,60 L161,60 L161,-2 L240,-2 L240,141 L339,141 L339,220 L161,220 L161,299 L80,299 L80,141 z" fill="none" stroke="hotpink" stroke-width="1"/>
<path d="M160,299 L160,0 L320,0 L320,140 L340,140 L340,299 z" fill="none" stroke="white" stroke-width="1"/>
<path d="M0,300 L0,140 L320,140 L320,300 z" fill="none" stroke="brown" stroke-width="1"/>
</svg>