<svg height="200px" viewBox="-10 -10 360 320" width="200px" xmlns="http://www.w3.org/2000/svg">
<path d="M0,59 L0,40 L40,40 L40,80 L79,80 L79,120 L120,120 L120,140 L140,140 L140,100 L100,100 L100,59 L60,59 L60,20 L20,20 L20,0 L79,0 L79,40 L120,40 L120,80 L161,80 L161,59 L140,59 L140,20 L100,20 L100,0 L180,0 L180,20 L161,20 L161,40 L200,40 L200,0 L260,0 L260,20 L220,20 L220,59 L180,59 L180,100 L160,100 L160,120 L200,120 L200,80 L239,80 L239,40 L280,40 L280,0 L340,0 L340,20 L300,20 L300,59 L260,59 L260,100 L220,100 L220,141 L239,141 L239,120 L280,120 L280,80 L340,80 L340,100 L300,100 L300,142 L341,142 L341,160 L280,160 L280,141 L260,141 L260,180 L300,180 L300,219 L339,219 L339,240 L280,240 L280,200 L239,200 L239,160 L200,160 L200,140 L180,140 L180,180 L220,180 L220,219 L260,219 L260,260 L300,260 L300,299 L280,299 L280,280 L239,280 L239,240 L200,240 L200,200 L161,200 L161,219 L180,219 L180,260 L220,260 L220,301 L200,301 L200,280 L162,280 L162,301 L140,301 L140,260 L161,260 L161,240 L120,240 L120,280 L79,280 L79,299 L60,299 L60,260 L100,260 L100,219 L140,219 L140,180 L160,180 L160,160 L120,160 L120,200 L79,200 L79,240 L40,240 L40,280 L0,280 L0,260 L20,260 L20,219 L60,219 L60,180 L100,180 L100,141 L79,141 L79,160 L40,160 L40,200 L-1,200 L-1,180 L20,180 L20,142 L-1,142 L-1,120 L40,120 L40,141 L60,141 L60,100 L20,100 L20,59 z" fill="none" stroke="green" stroke-width="1"/>
<path d="M0,20 L0,0 L40,0 L40,40 L79,40 L79,80 L120,80 L120,120 L159,120 L159,100 L140,100 L140,59 L100,59 L100,20 L60,20 L60,-1 L120,-1 L120,40 L158,40 L158,20 L140,20 L140,-1 L220,-1 L220,20 L180,20 L180,59 L158,59 L158,80 L200,80 L200,40 L239,40 L239,-1 L300,-1 L300,20 L260,20 L260,59 L220,59 L220,100 L180,100 L180,139 L200,139 L200,120 L239,120 L239,80 L280,80 L280,40 L340,40 L340,59 L300,59 L300,100 L260,100 L260,138 L280,138 L280,120 L339,120 L339,137 L300,137 L300,180 L339,180 L339,200 L280,200 L280,160 L239,160 L239,138 L220,138 L220,180 L260,180 L260,219 L300,219 L300,260 L340,260 L340,280 L280,280 L280,240 L239,240 L239,200 L200,200 L200,160 L159,160 L159,180 L180,180 L180,219 L220,219 L220,260 L260,260 L260,301 L239,301 L239,280 L200,280 L200,240 L158,240 L158,260 L180,260 L180,298 L157,298 L157,280 L120,280 L120,299 L100,299 L100,260 L140,260 L140,219 L158,219 L158,200 L120,200 L120,240 L79,240 L79,280 L40,280 L40,300 L20,300 L20,260 L60,260 L60,219 L100,219 L100,180 L140,180 L140,139 L120,139 L120,160 L79,160 L79,200 L40,200 L40,240 L-1,240 L-1,219 L20,219 L20,180 L60,180 L60,138 L40,138 L40,160 L1,160 L1,137 L20,137 L20,100 L0,100 L0,80 L40,80 L40,120 L79,120 L79,138 L100,138 L100,100 L60,100 L60,59 L20,59 L20,20 z" fill="none" stroke="blue" stroke-width="1"/>
<path d="M0,141 L0,100 L80,100 L80,140 L120,140 L120,60 L40,60 L40,0 L80,0 L80,20 L161,20 L161,-2 L200,-2 L200,60 L160,60 L160,100 L240,100 L240,20 L340,20 L340,60 L280,60 L280,141 L339,141 L339,180 L240,180 L240,140 L200,140 L200,220 L280,220 L280,299 L240,299 L240,260 L161,260 L161,299 L120,299 L120,220 L160,220 L160,180 L80,180 L80,260 L0,260 L0,220 L40,220 L40,141 z" fill="none" stroke="red" stroke-width="1"/>
<path d="M0,60 L0,20 L80,20 L80,100 L159,100 L159,60 L120,60 L120,1 L158,1 L158,20 L240,20 L240,1 L280,1 L280,60 L200,60 L200,139 L240,139 L240,100 L340,100 L340,138 L280,138 L280,220 L340,220 L340,260 L240,260 L240,180 L159,180 L159,220 L200,220 L200,301 L158,301 L158,260 L80,260 L80,300 L40,300 L40,220 L120,220 L120,139 L80,139 L80,180 L-1,180 L-1,138 L40,138 L40,60 z" fill="none" stroke="yellow" stroke-width="1"/>
<path d="M0,220 L0,140 L80,140 L80,0 L160,0 L160,60 L340,60 L340,140 L240,140 L240,299 L160,299 L160,220 z" fill="none" stroke="purple" stroke-width="1"/>
<path d="M0,139 L0,60 L159,60 L159,1 L240,1 L240,139 L340,139 L340,220 L159,220 L159,300 L80,300 L80,139 z" fill="none" stroke="hotpink" stroke-width="1"/>
<path d="M160,300 L160,0 L320,0 L320,140 L340,140 L340,300 z" fill="none" stroke="white" stroke-width="1"/>
<path d="M0,300 L0,140 L320,140 L320,300 z" fill="none" stroke="brown" stroke-width="1"/>
</svg>