<svg viewBox="-0.5 -0.5 8 8" width="640px" xmlns="http://www.w3.org/2000/svg">
<defs>
<mask id="background_mask">
<path d="M2.15,6.95 A0.15,0.15,0,0,1,2,6.8 L2,1.2 A0.15,0.15,0,0,1,2.15,1.05 L3.85,1.05 A0.15,0.15,0,0,1,4,1.2 L4,3.85 A0.15,0.15,0,0,0,4.15,4 L4.85,4 A0.15,0.15,0,0,0,5,3.85 L5,3.15 A0.15,0.15,0,0,1,5.15,3 L5.9,3 A0.15,0.15,0,0,1,6.05,3.15 L6.05,3.9 A0.15,0.15,0,0,0,6.2,4.05 L6.85,4.05 A0.15,0.15,0,0,1,7,4.2 L7,5.85 A0.15,0.15,0,0,1,6.85,6 L6.2,6 A0.15,0.15,0,0,1,6.05,5.85 L6.05,5.2 A0.15,0.15,0,0,0,5.9,5.05 L5.15,5.05 A0.15,0.15,0,0,0,5,5.2 L5,5.8 A0.15,0.15,0,0,1,4.85,5.95 L4.15,5.95 A0.15,0.15,0,0,1,4,5.8 L4,5.2 A0.15,0.15,0,0,0,3.85,5.05 L3.2,5.05 A0.15,0.15,0,0,0,3.05,5.2 L3.05,6.8 A0.15,0.15,0,0,1,2.9,6.95 z" fill="white" stroke="none"/>
<path d="M1.15,7 A0.15,0.15,0,0,1,1,6.85 L1,1.2 A0.15,0.15,0,0,1,1.15,1.05 L1.9,1.05 A0.15,0.15,0,0,1,2.05,1.2 L2.05,2.8 A0.15,0.15,0,0,0,2.2,2.95 L2.85,2.95 A0.15,0.15,0,0,0,3,2.8 L3,2.15 A0.15,0.15,0,0,1,3.15,2 L3.9,2 A0.15,0.15,0,0,1,4.05,2.15 L4.05,2.85 A0.15,0.15,0,0,0,4.2,3 L4.85,3 A0.15,0.15,0,0,0,5,2.85 L5,2.15 A0.15,0.15,0,0,1,5.15,2 L5.75,2 A0.2,0.2,0,0,1,5.95,2.2 L5.95,3.9 A0.15,0.15,0,0,1,5.8,4.05 L5.15,4.05 A0.15,0.15,0,0,0,5,4.2 L5,4.8 A0.15,0.15,0,0,1,4.85,4.95 L4.15,4.95 A0.15,0.15,0,0,1,4,4.8 L4,4.2 A0.2,0.2,0,0,0,3.8,4 L3.15,4 A0.15,0.15,0,0,0,3,4.15 L3,6.85 A0.15,0.15,0,0,1,2.85,7 z" fill="white" stroke="none"/>
<path d="M1.2,3.05 A0.15,0.15,0,0,1,1.05,2.9 L1.05,1.1 A0.15,0.15,0,0,1,1.2,0.95 L1.8,0.95 A0.15,0.15,0,0,1,1.95,1.1 L1.95,1.85 A0.15,0.15,0,0,0,2.1,2 L2.85,2 A0.15,0.15,0,0,0,3,1.85 L3,1.1 A0.15,0.15,0,0,1,3.15,0.95 L3.9,0.95 A0.15,0.15,0,0,1,4.05,1.1 L4.05,1.85 A0.15,0.15,0,0,0,4.2,2 L4.85,2 A0.15,0.15,0,0,0,5,1.85 L5,0.1 A0.15,0.15,0,0,1,5.15,-0.05 L5.8,-0.05 A0.2,0.2,0,0,1,6,0.15 L6,5.85 A0.15,0.15,0,0,1,5.85,6 L4.2,6 A0.15,0.15,0,0,1,4.05,5.85 L4.05,3.1 A0.15,0.15,0,0,0,3.9,2.95 L3.15,2.95 A0.15,0.15,0,0,0,3,3.1 L3,3.85 A0.15,0.15,0,0,1,2.85,4 L2.2,4 A0.15,0.15,0,0,1,2.05,3.85 L2.05,3.2 A0.15,0.15,0,0,0,1.9,3.05 z" fill="white" stroke="none"/>
<path d="M1.2,5 A0.15,0.15,0,0,1,1.05,4.85 L1.05,3.15 A0.15,0.15,0,0,1,1.2,3 L3.8,3 A0.15,0.15,0,0,0,3.95,2.85 L3.95,2.2 A0.15,0.15,0,0,0,3.8,2.05 L3.2,2.05 A0.15,0.15,0,0,1,3.05,1.9 L3.05,1.25 A0.15,0.15,0,0,1,3.2,1.1 L3.85,1.1 A0.15,0.15,0,0,0,4,0.95 L4,0.15 A0.15,0.15,0,0,1,4.15,0 L5.8,0 A0.15,0.15,0,0,1,5.95,0.15 L5.95,0.9 A0.15,0.15,0,0,1,5.8,1.05 L5.2,1.05 A0.15,0.15,0,0,0,5.05,1.2 L5.05,1.9 A0.15,0.15,0,0,0,5.2,2.05 L5.75,2.05 A0.15,0.15,0,0,1,5.9,2.2 L5.9,2.8 A0.15,0.15,0,0,1,5.75,2.95 L5.2,2.95 A0.15,0.15,0,0,0,5.05,3.1 L5.05,3.85 A0.15,0.15,0,0,0,5.2,4 L6.8,4 A0.15,0.15,0,0,1,6.95,4.15 L6.95,4.85 A0.15,0.15,0,0,1,6.8,5 z" fill="white" stroke="none"/>
<path d="M0.15,2 A0.15,0.15,0,0,1,0,1.85 L0,1.15 A0.15,0.15,0,0,1,0.15,1 L5.9,1 A0.15,0.15,0,0,1,6.05,1.15 L6.05,2.9 A0.15,0.15,0,0,1,5.9,3.05 L3.2,3.05 A0.15,0.15,0,0,0,3.05,3.2 L3.05,3.9 A0.15,0.15,0,0,0,3.2,4.05 L3.8,4.05 A0.15,0.15,0,0,1,3.95,4.2 L3.95,4.8 A0.15,0.15,0,0,1,3.8,4.95 L3.2,4.95 A0.25,0.25,0,0,0,2.95,5.2 L2.95,5.85 A0.15,0.15,0,0,1,2.8,6 L1.2,6 A0.15,0.15,0,0,1,1.05,5.85 L1.05,5.2 A0.15,0.15,0,0,1,1.2,5.05 L1.8,5.05 A0.15,0.15,0,0,0,1.95,4.9 L1.95,4.15 A0.15,0.15,0,0,0,1.8,4 L1.1,4 A0.15,0.15,0,0,1,0.95,3.85 L0.95,3.1 A0.15,0.15,0,0,1,1.1,2.95 L1.8,2.95 A0.15,0.15,0,0,0,1.95,2.8 L1.95,2.15 A0.15,0.15,0,0,0,1.8,2 z" fill="white" stroke="none"/>
</mask>
</defs>
<rect height="8" mask="url(#background_mask)" width="8" x="-0.5" y="-0.5"/>
<path d="M2.15,6.95 A0.15,0.15,0,0,1,2,6.8 L2,1.2 A0.15,0.15,0,0,1,2.15,1.05 L3.85,1.05 A0.15,0.15,0,0,1,4,1.2 L4,3.85 A0.15,0.15,0,0,0,4.15,4 L4.85,4 A0.15,0.15,0,0,0,5,3.85 L5,3.15 A0.15,0.15,0,0,1,5.15,3 L5.9,3 A0.15,0.15,0,0,1,6.05,3.15 L6.05,3.9 A0.15,0.15,0,0,0,6.2,4.05 L6.85,4.05 A0.15,0.15,0,0,1,7,4.2 L7,5.85 A0.15,0.15,0,0,1,6.85,6 L6.2,6 A0.15,0.15,0,0,1,6.05,5.85 L6.05,5.2 A0.15,0.15,0,0,0,5.9,5.05 L5.15,5.05 A0.15,0.15,0,0,0,5,5.2 L5,5.8 A0.15,0.15,0,0,1,4.85,5.95 L4.15,5.95 A0.15,0.15,0,0,1,4,5.8 L4,5.2 A0.15,0.15,0,0,0,3.85,5.05 L3.2,5.05 A0.15,0.15,0,0,0,3.05,5.2 L3.05,6.8 A0.15,0.15,0,0,1,2.9,6.95 z" fill="#EE2020" fill-opacity="0.2" stroke="none"/>
<path d="M1.15,7 A0.15,0.15,0,0,1,1,6.85 L1,1.2 A0.15,0.15,0,0,1,1.15,1.05 L1.9,1.05 A0.15,0.15,0,0,1,2.05,1.2 L2.05,2.8 A0.15,0.15,0,0,0,2.2,2.95 L2.85,2.95 A0.15,0.15,0,0,0,3,2.8 L3,2.15 A0.15,0.15,0,0,1,3.15,2 L3.9,2 A0.15,0.15,0,0,1,4.05,2.15 L4.05,2.85 A0.15,0.15,0,0,0,4.2,3 L4.85,3 A0.15,0.15,0,0,0,5,2.85 L5,2.15 A0.15,0.15,0,0,1,5.15,2 L5.75,2 A0.2,0.2,0,0,1,5.95,2.2 L5.95,3.9 A0.15,0.15,0,0,1,5.8,4.05 L5.15,4.05 A0.15,0.15,0,0,0,5,4.2 L5,4.8 A0.15,0.15,0,0,1,4.85,4.95 L4.15,4.95 A0.15,0.15,0,0,1,4,4.8 L4,4.2 A0.2,0.2,0,0,0,3.8,4 L3.15,4 A0.15,0.15,0,0,0,3,4.15 L3,6.85 A0.15,0.15,0,0,1,2.85,7 z" fill="#DDDD00" fill-opacity="0.2" stroke="none"/>
<path d="M1.2,3.05 A0.15,0.15,0,0,1,1.05,2.9 L1.05,1.1 A0.15,0.15,0,0,1,1.2,0.95 L1.8,0.95 A0.15,0.15,0,0,1,1.95,1.1 L1.95,1.85 A0.15,0.15,0,0,0,2.1,2 L2.85,2 A0.15,0.15,0,0,0,3,1.85 L3,1.1 A0.15,0.15,0,0,1,3.15,0.95 L3.9,0.95 A0.15,0.15,0,0,1,4.05,1.1 L4.05,1.85 A0.15,0.15,0,0,0,4.2,2 L4.85,2 A0.15,0.15,0,0,0,5,1.85 L5,0.1 A0.15,0.15,0,0,1,5.15,-0.05 L5.8,-0.05 A0.2,0.2,0,0,1,6,0.15 L6,5.85 A0.15,0.15,0,0,1,5.85,6 L4.2,6 A0.15,0.15,0,0,1,4.05,5.85 L4.05,3.1 A0.15,0.15,0,0,0,3.9,2.95 L3.15,2.95 A0.15,0.15,0,0,0,3,3.1 L3,3.85 A0.15,0.15,0,0,1,2.85,4 L2.2,4 A0.15,0.15,0,0,1,2.05,3.85 L2.05,3.2 A0.15,0.15,0,0,0,1.9,3.05 z" fill="#1B49DD" fill-opacity="0.2" stroke="none"/>
<path d="M1.2,5 A0.15,0.15,0,0,1,1.05,4.85 L1.05,3.15 A0.15,0.15,0,0,1,1.2,3 L3.8,3 A0.15,0.15,0,0,0,3.95,2.85 L3.95,2.2 A0.15,0.15,0,0,0,3.8,2.05 L3.2,2.05 A0.15,0.15,0,0,1,3.05,1.9 L3.05,1.25 A0.15,0.15,0,0,1,3.2,1.1 L3.85,1.1 A0.15,0.15,0,0,0,4,0.95 L4,0.15 A0.15,0.15,0,0,1,4.15,0 L5.8,0 A0.15,0.15,0,0,1,5.95,0.15 L5.95,0.9 A0.15,0.15,0,0,1,5.8,1.05 L5.2,1.05 A0.15,0.15,0,0,0,5.05,1.2 L5.05,1.9 A0.15,0.15,0,0,0,5.2,2.05 L5.75,2.05 A0.15,0.15,0,0,1,5.9,2.2 L5.9,2.8 A0.15,0.15,0,0,1,5.75,2.95 L5.2,2.95 A0.15,0.15,0,0,0,5.05,3.1 L5.05,3.85 A0.15,0.15,0,0,0,5.2,4 L6.8,4 A0.15,0.15,0,0,1,6.95,4.15 L6.95,4.85 A0.15,0.15,0,0,1,6.8,5 z" fill="#AF0000" fill-opacity="0.2" stroke="none"/>
<path d="M0.15,2 A0.15,0.15,0,0,1,0,1.85 L0,1.15 A0.15,0.15,0,0,1,0.15,1 L5.9,1 A0.15,0.15,0,0,1,6.05,1.15 L6.05,2.9 A0.15,0.15,0,0,1,5.9,3.05 L3.2,3.05 A0.15,0.15,0,0,0,3.05,3.2 L3.05,3.9 A0.15,0.15,0,0,0,3.2,4.05 L3.8,4.05 A0.15,0.15,0,0,1,3.95,4.2 L3.95,4.8 A0.15,0.15,0,0,1,3.8,4.95 L3.2,4.95 A0.25,0.25,0,0,0,2.95,5.2 L2.95,5.85 A0.15,0.15,0,0,1,2.8,6 L1.2,6 A0.15,0.15,0,0,1,1.05,5.85 L1.05,5.2 A0.15,0.15,0,0,1,1.2,5.05 L1.8,5.05 A0.15,0.15,0,0,0,1.95,4.9 L1.95,4.15 A0.15,0.15,0,0,0,1.8,4 L1.1,4 A0.15,0.15,0,0,1,0.95,3.85 L0.95,3.1 A0.15,0.15,0,0,1,1.1,2.95 L1.8,2.95 A0.15,0.15,0,0,0,1.95,2.8 L1.95,2.15 A0.15,0.15,0,0,0,1.8,2 z" fill="#009933" fill-opacity="0.2" stroke="none"/>
<path d="M2.15,6.95 A0.15,0.15,0,0,1,2,6.8 L2,1.2 A0.15,0.15,0,0,1,2.15,1.05 L3.85,1.05 A0.15,0.15,0,0,1,4,1.2 L4,3.85 A0.15,0.15,0,0,0,4.15,4 L4.85,4 A0.15,0.15,0,0,0,5,3.85 L5,3.15 A0.15,0.15,0,0,1,5.15,3 L5.9,3 A0.15,0.15,0,0,1,6.05,3.15 L6.05,3.9 A0.15,0.15,0,0,0,6.2,4.05 L6.85,4.05 A0.15,0.15,0,0,1,7,4.2 L7,5.85 A0.15,0.15,0,0,1,6.85,6 L6.2,6 A0.15,0.15,0,0,1,6.05,5.85 L6.05,5.2 A0.15,0.15,0,0,0,5.9,5.05 L5.15,5.05 A0.15,0.15,0,0,0,5,5.2 L5,5.8 A0.15,0.15,0,0,1,4.85,5.95 L4.15,5.95 A0.15,0.15,0,0,1,4,5.8 L4,5.2 A0.15,0.15,0,0,0,3.85,5.05 L3.2,5.05 A0.15,0.15,0,0,0,3.05,5.2 L3.05,6.8 A0.15,0.15,0,0,1,2.9,6.95 z" fill="none" stroke="#EE2020" stroke-width="0.05"/>
<path d="M1.15,7 A0.15,0.15,0,0,1,1,6.85 L1,1.2 A0.15,0.15,0,0,1,1.15,1.05 L1.9,1.05 A0.15,0.15,0,0,1,2.05,1.2 L2.05,2.8 A0.15,0.15,0,0,0,2.2,2.95 L2.85,2.95 A0.15,0.15,0,0,0,3,2.8 L3,2.15 A0.15,0.15,0,0,1,3.15,2 L3.9,2 A0.15,0.15,0,0,1,4.05,2.15 L4.05,2.85 A0.15,0.15,0,0,0,4.2,3 L4.85,3 A0.15,0.15,0,0,0,5,2.85 L5,2.15 A0.15,0.15,0,0,1,5.15,2 L5.75,2 A0.2,0.2,0,0,1,5.95,2.2 L5.95,3.9 A0.15,0.15,0,0,1,5.8,4.05 L5.15,4.05 A0.15,0.15,0,0,0,5,4.2 L5,4.8 A0.15,0.15,0,0,1,4.85,4.95 L4.15,4.95 A0.15,0.15,0,0,1,4,4.8 L4,4.2 A0.2,0.2,0,0,0,3.8,4 L3.15,4 A0.15,0.15,0,0,0,3,4.15 L3,6.85 A0.15,0.15,0,0,1,2.85,7 z" fill="none" stroke="#DDDD00" stroke-width="0.05"/>
<path d="M1.2,3.05 A0.15,0.15,0,0,1,1.05,2.9 L1.05,1.1 A0.15,0.15,0,0,1,1.2,0.95 L1.8,0.95 A0.15,0.15,0,0,1,1.95,1.1 L1.95,1.85 A0.15,0.15,0,0,0,2.1,2 L2.85,2 A0.15,0.15,0,0,0,3,1.85 L3,1.1 A0.15,0.15,0,0,1,3.15,0.95 L3.9,0.95 A0.15,0.15,0,0,1,4.05,1.1 L4.05,1.85 A0.15,0.15,0,0,0,4.2,2 L4.85,2 A0.15,0.15,0,0,0,5,1.85 L5,0.1 A0.15,0.15,0,0,1,5.15,-0.05 L5.8,-0.05 A0.2,0.2,0,0,1,6,0.15 L6,5.85 A0.15,0.15,0,0,1,5.85,6 L4.2,6 A0.15,0.15,0,0,1,4.05,5.85 L4.05,3.1 A0.15,0.15,0,0,0,3.9,2.95 L3.15,2.95 A0.15,0.15,0,0,0,3,3.1 L3,3.85 A0.15,0.15,0,0,1,2.85,4 L2.2,4 A0.15,0.15,0,0,1,2.05,3.85 L2.05,3.2 A0.15,0.15,0,0,0,1.9,3.05 z" fill="none" stroke="#1B49DD" stroke-width="0.05"/>
<path d="M1.2,5 A0.15,0.15,0,0,1,1.05,4.85 L1.05,3.15 A0.15,0.15,0,0,1,1.2,3 L3.8,3 A0.15,0.15,0,0,0,3.95,2.85 L3.95,2.2 A0.15,0.15,0,0,0,3.8,2.05 L3.2,2.05 A0.15,0.15,0,0,1,3.05,1.9 L3.05,1.25 A0.15,0.15,0,0,1,3.2,1.1 L3.85,1.1 A0.15,0.15,0,0,0,4,0.95 L4,0.15 A0.15,0.15,0,0,1,4.15,0 L5.8,0 A0.15,0.15,0,0,1,5.95,0.15 L5.95,0.9 A0.15,0.15,0,0,1,5.8,1.05 L5.2,1.05 A0.15,0.15,0,0,0,5.05,1.2 L5.05,1.9 A0.15,0.15,0,0,0,5.2,2.05 L5.75,2.05 A0.15,0.15,0,0,1,5.9,2.2 L5.9,2.8 A0.15,0.15,0,0,1,5.75,2.95 L5.2,2.95 A0.15,0.15,0,0,0,5.05,3.1 L5.05,3.85 A0.15,0.15,0,0,0,5.2,4 L6.8,4 A0.15,0.15,0,0,1,6.95,4.15 L6.95,4.85 A0.15,0.15,0,0,1,6.8,5 z" fill="none" stroke="#AF0000" stroke-width="0.05"/>
<path d="M0.15,2 A0.15,0.15,0,0,1,0,1.85 L0,1.15 A0.15,0.15,0,0,1,0.15,1 L5.9,1 A0.15,0.15,0,0,1,6.05,1.15 L6.05,2.9 A0.15,0.15,0,0,1,5.9,3.05 L3.2,3.05 A0.15,0.15,0,0,0,3.05,3.2 L3.05,3.9 A0.15,0.15,0,0,0,3.2,4.05 L3.8,4.05 A0.15,0.15,0,0,1,3.95,4.2 L3.95,4.8 A0.15,0.15,0,0,1,3.8,4.95 L3.2,4.95 A0.25,0.25,0,0,0,2.95,5.2 L2.95,5.85 A0.15,0.15,0,0,1,2.8,6 L1.2,6 A0.15,0.15,0,0,1,1.05,5.85 L1.05,5.2 A0.15,0.15,0,0,1,1.2,5.05 L1.8,5.05 A0.15,0.15,0,0,0,1.95,4.9 L1.95,4.15 A0.15,0.15,0,0,0,1.8,4 L1.1,4 A0.15,0.15,0,0,1,0.95,3.85 L0.95,3.1 A0.15,0.15,0,0,1,1.1,2.95 L1.8,2.95 A0.15,0.15,0,0,0,1.95,2.8 L1.95,2.15 A0.15,0.15,0,0,0,1.8,2 z" fill="none" stroke="#009933" stroke-width="0.05"/>
<g opacity="0.3">
<path d="M0.5,1.5 L0.5,1.15 A0.35,0.35,0,0,1,0.6706932,1.194445 z" fill="#009933" stroke="none"/>
<circle cx="0.5" cy="1.5" fill="transparent" r="0.35" stroke="red" stroke-width="0.025"/>
</g>
<g>
<path d="M1.5,1.525 L1.5,1.175 A0.35,0.35,0,0,1,1.8499211,1.5175711 z" fill="#DDDD00" stroke="none"/>
<path d="M1.5,1.525 L1.8499211,1.5175711 A0.35,0.35,0,0,1,1.5518149,1.8711433 z" fill="#1B49DD" stroke="none"/>
<path d="M1.5,1.525 L1.5518149,1.8711433 A0.35,0.35,0,0,1,1.3764228,1.8524579 z" fill="#009933" stroke="none"/>
<circle cx="1.5" cy="1.525" fill="transparent" r="0.35" stroke="white" stroke-width="0.025"/>
</g>
<g opacity="0.3">
<path d="M1.5,2.475 L1.5,2.125 A0.35,0.35,0,0,1,1.8499211,2.467571 z" fill="#DDDD00" stroke="none"/>
<path d="M1.5,2.475 L1.8499211,2.467571 A0.35,0.35,0,0,1,1.5518149,2.8211434 z" fill="#1B49DD" stroke="none"/>
<circle cx="1.5" cy="2.475" fill="transparent" r="0.35" stroke="red" stroke-width="0.025"/>
</g>
<g opacity="0.3">
<path d="M1.525,3.525 L1.525,3.175 A0.35,0.35,0,0,1,1.8749212,3.5175712 z" fill="#DDDD00" stroke="none"/>
<path d="M1.525,3.525 L1.8749212,3.5175712 A0.35,0.35,0,0,1,1.8341092,3.6891692 z" fill="#AF0000" stroke="none"/>
<path d="M1.525,3.525 L1.8341092,3.6891692 A0.35,0.35,0,0,1,1.7147921,3.819073 z" fill="#009933" stroke="none"/>
<circle cx="1.525" cy="3.525" fill="transparent" r="0.35" stroke="red" stroke-width="0.025"/>
</g>
<g opacity="0.3">
<path d="M1.5,4.5 L1.5,4.15 A0.35,0.35,0,0,1,1.8499211,4.4925714 z" fill="#DDDD00" stroke="none"/>
<path d="M1.5,4.5 L1.8499211,4.4925714 A0.35,0.35,0,0,1,1.8091091,4.6641693 z" fill="#AF0000" stroke="none"/>
<circle cx="1.5" cy="4.5" fill="transparent" r="0.35" stroke="red" stroke-width="0.025"/>
</g>
<g opacity="0.3">
<path d="M1.525,5.525 L1.525,5.175 A0.35,0.35,0,0,1,1.8749212,5.517571 z" fill="#DDDD00" stroke="none"/>
<path d="M1.525,5.525 L1.8749212,5.517571 A0.35,0.35,0,0,1,1.8341092,5.6891694 z" fill="#009933" stroke="none"/>
<circle cx="1.525" cy="5.525" fill="transparent" r="0.35" stroke="red" stroke-width="0.025"/>
</g>
<g opacity="0.3">
<path d="M1.5,6.5 L1.5,6.15 A0.35,0.35,0,0,1,1.8499211,6.4925714 z" fill="#DDDD00" stroke="none"/>
<circle cx="1.5" cy="6.5" fill="transparent" r="0.35" stroke="red" stroke-width="0.025"/>
</g>
<g opacity="0.3">
<path d="M2.525,1.525 L2.525,1.175 A0.35,0.35,0,0,1,2.7925842,1.7506074 z" fill="#EE2020" stroke="none"/>
<path d="M2.525,1.525 L2.7925842,1.7506074 A0.35,0.35,0,0,1,2.6485772,1.8524579 z" fill="#009933" stroke="none"/>
<circle cx="2.525" cy="1.525" fill="transparent" r="0.35" stroke="red" stroke-width="0.025"/>
</g>
<g opacity="0.3">
<path d="M2.525,2.475 L2.525,2.125 A0.35,0.35,0,0,1,2.7925842,2.7006073 z" fill="#EE2020" stroke="none"/>
<path d="M2.525,2.475 L2.7925842,2.7006073 A0.35,0.35,0,0,1,2.335208,2.769073 z" fill="#1B49DD" stroke="none"/>
<path d="M2.525,2.475 L2.335208,2.769073 A0.35,0.35,0,0,1,2.215891,2.6391692 z" fill="#009933" stroke="none"/>
<circle cx="2.525" cy="2.475" fill="transparent" r="0.35" stroke="green" stroke-width="0.025"/>
</g>
<g opacity="0.3">
<path d="M2.525,3.5 L2.525,3.15 A0.35,0.35,0,0,1,2.7925842,3.7256074 z" fill="#EE2020" stroke="none"/>
<path d="M2.525,3.5 L2.7925842,3.7256074 A0.35,0.35,0,0,1,2.305123,3.7723124 z" fill="#DDDD00" stroke="none"/>
<path d="M2.525,3.5 L2.305123,3.7723124 A0.35,0.35,0,0,1,2.2269647,3.3164926 z" fill="#1B49DD" stroke="none"/>
<path d="M2.525,3.5 L2.2269647,3.3164926 A0.35,0.35,0,0,1,2.3543067,3.1944451 z" fill="#AF0000" stroke="none"/>
<path d="M2.525,3.5 L2.3543067,3.1944451 A0.35,0.35,0,0,1,2.525,3.15 z" fill="#009933" stroke="none"/>
<circle cx="2.525" cy="3.5" fill="transparent" r="0.35" stroke="green" stroke-width="0.025"/>
</g>
<g opacity="0.3">
<path d="M2.5,4.5 L2.5,4.15 A0.35,0.35,0,0,1,2.767584,4.7256074 z" fill="#EE2020" stroke="none"/>
<path d="M2.5,4.5 L2.767584,4.7256074 A0.35,0.35,0,0,1,2.280123,4.7723126 z" fill="#DDDD00" stroke="none"/>
<path d="M2.5,4.5 L2.280123,4.7723126 A0.35,0.35,0,0,1,2.1752388,4.6305 z" fill="#AF0000" stroke="none"/>
<path d="M2.5,4.5 L2.1752388,4.6305 A0.35,0.35,0,0,1,2.152835,4.455544 z" fill="#009933" stroke="none"/>
<circle cx="2.5" cy="4.5" fill="transparent" r="0.35" stroke="green" stroke-width="0.025"/>
</g>
<g opacity="0.3">
<path d="M2.475,5.5 L2.475,5.15 A0.35,0.35,0,0,1,2.7425842,5.7256074 z" fill="#EE2020" stroke="none"/>
<path d="M2.475,5.5 L2.7425842,5.7256074 A0.35,0.35,0,0,1,2.255123,5.7723126 z" fill="#DDDD00" stroke="none"/>
<path d="M2.475,5.5 L2.255123,5.7723126 A0.35,0.35,0,0,1,2.1502388,5.6305 z" fill="#009933" stroke="none"/>
<circle cx="2.475" cy="5.5" fill="transparent" r="0.35" stroke="green" stroke-width="0.025"/>
</g>
<g>
<path d="M2.5,6.475 L2.5,6.125 A0.35,0.35,0,0,1,2.767584,6.7006073 z" fill="#EE2020" stroke="none"/>
<path d="M2.5,6.475 L2.767584,6.7006073 A0.35,0.35,0,0,1,2.280123,6.7473125 z" fill="#DDDD00" stroke="none"/>
<circle cx="2.5" cy="6.475" fill="transparent" r="0.35" stroke="white" stroke-width="0.025"/>
</g>
<g opacity="0.3">
<path d="M3.525,1.55 L3.525,1.2 A0.35,0.35,0,0,1,3.7925842,1.7756073 z" fill="#EE2020" stroke="none"/>
<path d="M3.525,1.55 L3.7925842,1.7756073 A0.35,0.35,0,0,1,3.335208,1.844073 z" fill="#1B49DD" stroke="none"/>
<path d="M3.525,1.55 L3.335208,1.844073 A0.35,0.35,0,0,1,3.215891,1.7141693 z" fill="#AF0000" stroke="none"/>
<path d="M3.525,1.55 L3.215891,1.7141693 A0.35,0.35,0,0,1,3.1750789,1.5425711 z" fill="#009933" stroke="none"/>
<circle cx="3.525" cy="1.55" fill="transparent" r="0.35" stroke="green" stroke-width="0.025"/>
</g>
<g opacity="0.3">
<path d="M3.475,2.5 L3.475,2.15 A0.35,0.35,0,0,1,3.7425842,2.7256074 z" fill="#EE2020" stroke="none"/>
<path d="M3.475,2.5 L3.7425842,2.7256074 A0.35,0.35,0,0,1,3.255123,2.7723124 z" fill="#DDDD00" stroke="none"/>
<path d="M3.475,2.5 L3.255123,2.7723124 A0.35,0.35,0,0,1,3.1769648,2.3164926 z" fill="#1B49DD" stroke="none"/>
<path d="M3.475,2.5 L3.1769648,2.3164926 A0.35,0.35,0,0,1,3.3043067,2.1944451 z" fill="#009933" stroke="none"/>
<circle cx="3.475" cy="2.5" fill="transparent" r="0.35" stroke="green" stroke-width="0.025"/>
</g>
<g opacity="0.3">
<path d="M3.525,3.525 L3.525,3.175 A0.35,0.35,0,0,1,3.7925842,3.7506075 z" fill="#EE2020" stroke="none"/>
<path d="M3.525,3.525 L3.7925842,3.7506075 A0.35,0.35,0,0,1,3.305123,3.7973125 z" fill="#DDDD00" stroke="none"/>
<path d="M3.525,3.525 L3.305123,3.7973125 A0.35,0.35,0,0,1,3.200239,3.6554997 z" fill="#AF0000" stroke="none"/>
<circle cx="3.525" cy="3.525" fill="transparent" r="0.35" stroke="green" stroke-width="0.025"/>
</g>
<g>
<path d="M3.475,4.5 L3.475,4.15 A0.35,0.35,0,0,1,3.7425842,4.7256074 z" fill="#EE2020" stroke="none"/>
<path d="M3.475,4.5 L3.7425842,4.7256074 A0.35,0.35,0,0,1,3.5985773,4.827458 z" fill="#AF0000" stroke="none"/>
<path d="M3.475,4.5 L3.5985773,4.827458 A0.35,0.35,0,0,1,3.423185,4.8461432 z" fill="#009933" stroke="none"/>
<circle cx="3.475" cy="4.5" fill="transparent" r="0.35" stroke="white" stroke-width="0.025"/>
</g>
<g opacity="0.3">
<path d="M4.5,0.5 L4.5,0.15 A0.35,0.35,0,0,1,4.6706934,0.19444506 z" fill="#AF0000" stroke="none"/>
<circle cx="4.5" cy="0.5" fill="transparent" r="0.35" stroke="red" stroke-width="0.025"/>
</g>
<g opacity="0.3">
<path d="M4.525,1.5 L4.525,1.15 A0.35,0.35,0,0,1,4.695693,1.194445 z" fill="#AF0000" stroke="none"/>
<path d="M4.525,1.5 L4.695693,1.194445 A0.35,0.35,0,0,1,4.8230352,1.3164924 z" fill="#009933" stroke="none"/>
<circle cx="4.525" cy="1.5" fill="transparent" r="0.35" stroke="red" stroke-width="0.025"/>
</g>
<g opacity="0.3">
<path d="M4.525,2.5 L4.525,2.15 A0.35,0.35,0,0,1,4.872165,2.4555438 z" fill="#1B49DD" stroke="none"/>
<path d="M4.525,2.5 L4.872165,2.4555438 A0.35,0.35,0,0,1,4.849761,2.6304998 z" fill="#AF0000" stroke="none"/>
<path d="M4.525,2.5 L4.849761,2.6304998 A0.35,0.35,0,0,1,4.744877,2.7723124 z" fill="#009933" stroke="none"/>
<circle cx="4.525" cy="2.5" fill="transparent" r="0.35" stroke="red" stroke-width="0.025"/>
</g>
<g>
<path d="M4.525,3.525 L4.525,3.175 A0.35,0.35,0,0,1,4.8749213,3.5175712 z" fill="#DDDD00" stroke="none"/>
<path d="M4.525,3.525 L4.8749213,3.5175712 A0.35,0.35,0,0,1,4.576815,3.8711433 z" fill="#1B49DD" stroke="none"/>
<path d="M4.525,3.525 L4.576815,3.8711433 A0.35,0.35,0,0,1,4.401423,3.852458 z" fill="#AF0000" stroke="none"/>
<circle cx="4.525" cy="3.525" fill="transparent" r="0.35" stroke="white" stroke-width="0.025"/>
</g>
<g opacity="0.3">
<path d="M4.525,4.475 L4.525,4.125 A0.35,0.35,0,0,1,4.7925844,4.7006073 z" fill="#EE2020" stroke="none"/>
<path d="M4.525,4.475 L4.7925844,4.7006073 A0.35,0.35,0,0,1,4.305123,4.7473125 z" fill="#DDDD00" stroke="none"/>
<path d="M4.525,4.475 L4.305123,4.7473125 A0.35,0.35,0,0,1,4.226965,4.2914925 z" fill="#1B49DD" stroke="none"/>
<path d="M4.525,4.475 L4.226965,4.2914925 A0.35,0.35,0,0,1,4.3543067,4.169445 z" fill="#AF0000" stroke="none"/>
<circle cx="4.525" cy="4.475" fill="transparent" r="0.35" stroke="green" stroke-width="0.025"/>
</g>
<g>
<path d="M4.525,5.475 L4.525,5.125 A0.35,0.35,0,0,1,4.7925844,5.7006073 z" fill="#EE2020" stroke="none"/>
<path d="M4.525,5.475 L4.7925844,5.7006073 A0.35,0.35,0,0,1,4.335208,5.769073 z" fill="#1B49DD" stroke="none"/>
<circle cx="4.525" cy="5.475" fill="transparent" r="0.35" stroke="white" stroke-width="0.025"/>
</g>
<g opacity="0.3">
<path d="M5.475,0.5 L5.475,0.15 A0.35,0.35,0,0,1,5.822165,0.45554376 z" fill="#1B49DD" stroke="none"/>
<path d="M5.475,0.5 L5.822165,0.45554376 A0.35,0.35,0,0,1,5.7997613,0.6304998 z" fill="#AF0000" stroke="none"/>
<circle cx="5.475" cy="0.5" fill="transparent" r="0.35" stroke="red" stroke-width="0.025"/>
</g>
<g opacity="0.3">
<path d="M5.525,1.525 L5.525,1.175 A0.35,0.35,0,0,1,5.872165,1.4805437 z" fill="#1B49DD" stroke="none"/>
<path d="M5.525,1.525 L5.872165,1.4805437 A0.35,0.35,0,0,1,5.849761,1.6554998 z" fill="#009933" stroke="none"/>
<circle cx="5.525" cy="1.525" fill="transparent" r="0.35" stroke="red" stroke-width="0.025"/>
</g>
<g opacity="0.3">
<path d="M5.45,2.5 L5.45,2.15 A0.35,0.35,0,0,1,5.799921,2.492571 z" fill="#DDDD00" stroke="none"/>
<path d="M5.45,2.5 L5.799921,2.492571 A0.35,0.35,0,0,1,5.501815,2.8461432 z" fill="#1B49DD" stroke="none"/>
<path d="M5.45,2.5 L5.501815,2.8461432 A0.35,0.35,0,0,1,5.3264227,2.827458 z" fill="#AF0000" stroke="none"/>
<path d="M5.45,2.5 L5.3264227,2.827458 A0.35,0.35,0,0,1,5.182416,2.7256074 z" fill="#009933" stroke="none"/>
<circle cx="5.45" cy="2.5" fill="transparent" r="0.35" stroke="green" stroke-width="0.025"/>
</g>
<g opacity="0.3">
<path d="M5.5,3.525 L5.5,3.175 A0.35,0.35,0,0,1,5.7675843,3.7506075 z" fill="#EE2020" stroke="none"/>
<path d="M5.5,3.525 L5.7675843,3.7506075 A0.35,0.35,0,0,1,5.280123,3.7973125 z" fill="#DDDD00" stroke="none"/>
<path d="M5.5,3.525 L5.280123,3.7973125 A0.35,0.35,0,0,1,5.201965,3.3414924 z" fill="#1B49DD" stroke="none"/>
<circle cx="5.5" cy="3.525" fill="transparent" r="0.35" stroke="green" stroke-width="0.025"/>
</g>
<g opacity="0.3">
<path d="M5.5,4.525 L5.5,4.175 A0.35,0.35,0,0,1,5.7675843,4.7506075 z" fill="#EE2020" stroke="none"/>
<path d="M5.5,4.525 L5.7675843,4.7506075 A0.35,0.35,0,0,1,5.310208,4.819073 z" fill="#1B49DD" stroke="none"/>
<path d="M5.5,4.525 L5.310208,4.819073 A0.35,0.35,0,0,1,5.190891,4.6891694 z" fill="#AF0000" stroke="none"/>
<circle cx="5.5" cy="4.525" fill="transparent" r="0.35" stroke="green" stroke-width="0.025"/>
</g>
<g opacity="0.3">
<path d="M5.5,5.525 L5.5,5.175 A0.35,0.35,0,0,1,5.847165,5.4805436 z" fill="#1B49DD" stroke="none"/>
<circle cx="5.5" cy="5.525" fill="transparent" r="0.35" stroke="red" stroke-width="0.025"/>
</g>
<g opacity="0.3">
<path d="M6.475,4.525 L6.475,4.175 A0.35,0.35,0,0,1,6.742584,4.7506075 z" fill="#EE2020" stroke="none"/>
<path d="M6.475,4.525 L6.742584,4.7506075 A0.35,0.35,0,0,1,6.598577,4.852458 z" fill="#AF0000" stroke="none"/>
<circle cx="6.475" cy="4.525" fill="transparent" r="0.35" stroke="red" stroke-width="0.025"/>
</g>
<g opacity="0.3">
<path d="M6.525,5.5 L6.525,5.15 A0.35,0.35,0,0,1,6.7925844,5.7256074 z" fill="#EE2020" stroke="none"/>
<circle cx="6.525" cy="5.5" fill="transparent" r="0.35" stroke="red" stroke-width="0.025"/>
</g>
</svg>