<svg viewBox="-0.5 -0.5 6 3" width="480px" xmlns="http://www.w3.org/2000/svg">
<defs>
<mask id="background_mask">
<path d="M0.15,1 A0.15,0.15,0,0,1,0,0.85 L0,0.15 A0.15,0.15,0,0,1,0.15,0 L2.85,0 A0.15,0.15,0,0,1,3,0.15 L3,1.8 A0.15,0.15,0,0,1,2.85,1.95 L2.1,1.95 A0.15,0.15,0,0,1,1.95,1.8 L1.95,1.15 A0.15,0.15,0,0,0,1.8,1 z" fill="white" stroke="none"/>
<path d="M1.15,1.05 A0.15,0.15,0,0,1,1,0.9 L1,0.2 A0.15,0.15,0,0,1,1.15,0.05 L3.85,0.05 A0.15,0.15,0,0,1,4,0.2 L4,1.8 A0.15,0.15,0,0,1,3.85,1.95 L3.2,1.95 A0.15,0.15,0,0,1,3.05,1.8 L3.05,1.2 A0.15,0.15,0,0,0,2.9,1.05 z" fill="white" stroke="none"/>
<path d="M2.15,2 A0.15,0.15,0,0,1,2,1.85 L2,0.1 A0.15,0.15,0,0,1,2.15,-0.05 L2.85,-0.05 A0.2,0.2,0,0,1,3.05,0.15 L3.05,0.85 A0.15,0.15,0,0,0,3.2,1 L4.85,1 A0.15,0.15,0,0,1,5,1.15 L5,1.85 A0.15,0.15,0,0,1,4.85,2 z" fill="white" stroke="none"/>
</mask>
</defs>
<rect height="3" mask="url(#background_mask)" width="6" x="-0.5" y="-0.5"/>
<path d="M0.15,1 A0.15,0.15,0,0,1,0,0.85 L0,0.15 A0.15,0.15,0,0,1,0.15,0 L2.85,0 A0.15,0.15,0,0,1,3,0.15 L3,1.8 A0.15,0.15,0,0,1,2.85,1.95 L2.1,1.95 A0.15,0.15,0,0,1,1.95,1.8 L1.95,1.15 A0.15,0.15,0,0,0,1.8,1 z" fill="#EE2020" fill-opacity="0.2" stroke="none"/>
<path d="M1.15,1.05 A0.15,0.15,0,0,1,1,0.9 L1,0.2 A0.15,0.15,0,0,1,1.15,0.05 L3.85,0.05 A0.15,0.15,0,0,1,4,0.2 L4,1.8 A0.15,0.15,0,0,1,3.85,1.95 L3.2,1.95 A0.15,0.15,0,0,1,3.05,1.8 L3.05,1.2 A0.15,0.15,0,0,0,2.9,1.05 z" fill="#DDDD00" fill-opacity="0.2" stroke="none"/>
<path d="M2.15,2 A0.15,0.15,0,0,1,2,1.85 L2,0.1 A0.15,0.15,0,0,1,2.15,-0.05 L2.85,-0.05 A0.2,0.2,0,0,1,3.05,0.15 L3.05,0.85 A0.15,0.15,0,0,0,3.2,1 L4.85,1 A0.15,0.15,0,0,1,5,1.15 L5,1.85 A0.15,0.15,0,0,1,4.85,2 z" fill="#1B49DD" fill-opacity="0.2" stroke="none"/>
<path d="M0.15,1 A0.15,0.15,0,0,1,0,0.85 L0,0.15 A0.15,0.15,0,0,1,0.15,0 L2.85,0 A0.15,0.15,0,0,1,3,0.15 L3,1.8 A0.15,0.15,0,0,1,2.85,1.95 L2.1,1.95 A0.15,0.15,0,0,1,1.95,1.8 L1.95,1.15 A0.15,0.15,0,0,0,1.8,1 z" fill="none" stroke="#EE2020" stroke-width="0.05"/>
<path d="M1.15,1.05 A0.15,0.15,0,0,1,1,0.9 L1,0.2 A0.15,0.15,0,0,1,1.15,0.05 L3.85,0.05 A0.15,0.15,0,0,1,4,0.2 L4,1.8 A0.15,0.15,0,0,1,3.85,1.95 L3.2,1.95 A0.15,0.15,0,0,1,3.05,1.8 L3.05,1.2 A0.15,0.15,0,0,0,2.9,1.05 z" fill="none" stroke="#DDDD00" stroke-width="0.05"/>
<path d="M2.15,2 A0.15,0.15,0,0,1,2,1.85 L2,0.1 A0.15,0.15,0,0,1,2.15,-0.05 L2.85,-0.05 A0.2,0.2,0,0,1,3.05,0.15 L3.05,0.85 A0.15,0.15,0,0,0,3.2,1 L4.85,1 A0.15,0.15,0,0,1,5,1.15 L5,1.85 A0.15,0.15,0,0,1,4.85,2 z" fill="none" stroke="#1B49DD" stroke-width="0.05"/>
<g opacity="0.3" transform="rotate(-90 0.5 0.5)">
<circle cx="0.5" cy="0.5" fill="transparent" r="0.175" stroke="#EE2020" stroke-dasharray="0.47440582611668447, 1.0995574287564276" stroke-width="0.35"/>
<circle cx="0.5" cy="0.5" fill="transparent" r="0.35" stroke="red" stroke-width="0.025"/>
</g>
<g transform="rotate(-90 1.5 0.525)">
<circle cx="1.5" cy="0.525" fill="transparent" r="0.175" stroke="#EE2020" stroke-dasharray="0.47440582611668447, 1.0995574287564276" stroke-width="0.35"/>
<circle cx="1.5" cy="0.525" fill="transparent" r="0.175" stroke="#DDDD00" stroke-dasharray="0.3236600495936259, 1.0995574287564276" stroke-dashoffset="-0.47440582611668447" stroke-width="0.35"/>
<circle cx="1.5" cy="0.525" fill="transparent" r="0.35" stroke="white" stroke-width="0.025"/>
</g>
<g opacity="0.3" transform="rotate(-90 2.5 0.55)">
<circle cx="2.5" cy="0.55" fill="transparent" r="0.175" stroke="#EE2020" stroke-dasharray="0.47440582611668447, 1.0995574287564276" stroke-width="0.35"/>
<circle cx="2.5" cy="0.55" fill="transparent" r="0.175" stroke="#DDDD00" stroke-dasharray="0.3236600495936259, 1.0995574287564276" stroke-dashoffset="-0.47440582611668447" stroke-width="0.35"/>
<circle cx="2.5" cy="0.55" fill="transparent" r="0.175" stroke="#1B49DD" stroke-dasharray="0.30149155304611724, 1.0995574287564276" stroke-dashoffset="-0.7980658757103103" stroke-width="0.35"/>
<circle cx="2.5" cy="0.55" fill="transparent" r="0.35" stroke="green" stroke-width="0.025"/>
</g>
<g transform="rotate(-90 2.5 1.5)">
<circle cx="2.5" cy="1.5" fill="transparent" r="0.175" stroke="#EE2020" stroke-dasharray="0.47440582611668447, 1.0995574287564276" stroke-width="0.35"/>
<circle cx="2.5" cy="1.5" fill="transparent" r="0.175" stroke="#1B49DD" stroke-dasharray="0.30149155304611724, 1.0995574287564276" stroke-dashoffset="-0.47440582611668447" stroke-width="0.35"/>
<circle cx="2.5" cy="1.5" fill="transparent" r="0.35" stroke="white" stroke-width="0.025"/>
</g>
<g opacity="0.3" transform="rotate(-90 3.525 0.525)">
<circle cx="3.525" cy="0.525" fill="transparent" r="0.175" stroke="#DDDD00" stroke-dasharray="0.3236600495936259, 1.0995574287564276" stroke-width="0.35"/>
<circle cx="3.525" cy="0.525" fill="transparent" r="0.35" stroke="red" stroke-width="0.025"/>
</g>
<g transform="rotate(-90 3.525 1.475)">
<circle cx="3.525" cy="1.475" fill="transparent" r="0.175" stroke="#DDDD00" stroke-dasharray="0.3236600495936259, 1.0995574287564276" stroke-width="0.35"/>
<circle cx="3.525" cy="1.475" fill="transparent" r="0.175" stroke="#1B49DD" stroke-dasharray="0.30149155304611724, 1.0995574287564276" stroke-dashoffset="-0.3236600495936259" stroke-width="0.35"/>
<circle cx="3.525" cy="1.475" fill="transparent" r="0.35" stroke="white" stroke-width="0.025"/>
</g>
<g opacity="0.3" transform="rotate(-90 4.5 1.5)">
<circle cx="4.5" cy="1.5" fill="transparent" r="0.175" stroke="#1B49DD" stroke-dasharray="0.30149155304611724, 1.0995574287564276" stroke-width="0.35"/>
<circle cx="4.5" cy="1.5" fill="transparent" r="0.35" stroke="red" stroke-width="0.025"/>
</g>
</svg>