<svg viewBox="-0.5 -0.5 6 6" width="480px" xmlns="http://www.w3.org/2000/svg">
<defs>
<mask id="background_mask">
<path d="M1.25,4.1 A0.25,0.25,0,0,1,1,3.85 L1,0.15 A0.15,0.15,0,0,1,1.15,0 L1.85,0 A0.15,0.15,0,0,1,2,0.15 L2,0.95 A0.15,0.15,0,0,0,2.15,1.1 L2.85,1.1 A0.15,0.15,0,0,1,3,1.25 L3,4.85 A0.15,0.15,0,0,1,2.85,5 L2.25,5 A0.15,0.15,0,0,1,2.1,4.85 L2.1,4.25 A0.15,0.15,0,0,0,1.95,4.1 z" fill="white" stroke="none"/>
<path d="M2.15,4.9 A0.15,0.15,0,0,1,2,4.75 L2,1.05 A0.15,0.15,0,0,1,2.15,0.9 L2.85,0.9 A0.15,0.15,0,0,0,3,0.75 L3,0.15 A0.15,0.15,0,0,1,3.15,0 L3.85,0 A0.15,0.15,0,0,1,4,0.15 L4,3.95 A0.15,0.15,0,0,1,3.85,4.1 L3.25,4.1 A0.15,0.15,0,0,0,3.1,4.25 L3.1,4.75 A0.15,0.15,0,0,1,2.95,4.9 z" fill="white" stroke="none"/>
<path d="M0.15,3 A0.15,0.15,0,0,1,0,2.85 L0,2.25 A0.15,0.15,0,0,1,0.15,2.1 L0.95,2.1 A0.15,0.15,0,0,0,1.1,1.95 L1.1,1.15 A0.15,0.15,0,0,1,1.25,1 L4.85,1 A0.15,0.15,0,0,1,5,1.15 L5,1.85 A0.15,0.15,0,0,1,4.85,2 L4.25,2 A0.15,0.15,0,0,0,4.1,2.15 L4.1,2.85 A0.15,0.15,0,0,1,3.95,3 z" fill="white" stroke="none"/>
<path d="M0.15,3.1 A0.25,0.25,0,0,1,-0.1,2.85 L-0.1,2.25 A0.25,0.25,0,0,1,0.15,2 L3.75,2 A0.15,0.15,0,0,1,3.9,2.15 L3.9,2.85 A0.15,0.15,0,0,0,4.05,3 L4.85,3 A0.15,0.15,0,0,1,5,3.15 L5,3.85 A0.15,0.15,0,0,1,4.85,4 L1.25,4 A0.15,0.15,0,0,1,1.1,3.85 L1.1,3.25 A0.15,0.15,0,0,0,0.95,3.1 z" fill="white" stroke="none"/>
</mask>
</defs>
<rect height="6" mask="url(#background_mask)" width="6" x="-0.5" y="-0.5"/>
<path d="M1.25,4.1 A0.25,0.25,0,0,1,1,3.85 L1,0.15 A0.15,0.15,0,0,1,1.15,0 L1.85,0 A0.15,0.15,0,0,1,2,0.15 L2,0.95 A0.15,0.15,0,0,0,2.15,1.1 L2.85,1.1 A0.15,0.15,0,0,1,3,1.25 L3,4.85 A0.15,0.15,0,0,1,2.85,5 L2.25,5 A0.15,0.15,0,0,1,2.1,4.85 L2.1,4.25 A0.15,0.15,0,0,0,1.95,4.1 z" fill="#EE2020" fill-opacity="0.2" stroke="none"/>
<path d="M2.15,4.9 A0.15,0.15,0,0,1,2,4.75 L2,1.05 A0.15,0.15,0,0,1,2.15,0.9 L2.85,0.9 A0.15,0.15,0,0,0,3,0.75 L3,0.15 A0.15,0.15,0,0,1,3.15,0 L3.85,0 A0.15,0.15,0,0,1,4,0.15 L4,3.95 A0.15,0.15,0,0,1,3.85,4.1 L3.25,4.1 A0.15,0.15,0,0,0,3.1,4.25 L3.1,4.75 A0.15,0.15,0,0,1,2.95,4.9 z" fill="#DDDD00" fill-opacity="0.2" stroke="none"/>
<path d="M0.15,3 A0.15,0.15,0,0,1,0,2.85 L0,2.25 A0.15,0.15,0,0,1,0.15,2.1 L0.95,2.1 A0.15,0.15,0,0,0,1.1,1.95 L1.1,1.15 A0.15,0.15,0,0,1,1.25,1 L4.85,1 A0.15,0.15,0,0,1,5,1.15 L5,1.85 A0.15,0.15,0,0,1,4.85,2 L4.25,2 A0.15,0.15,0,0,0,4.1,2.15 L4.1,2.85 A0.15,0.15,0,0,1,3.95,3 z" fill="#1B49DD" fill-opacity="0.2" stroke="none"/>
<path d="M0.15,3.1 A0.25,0.25,0,0,1,-0.1,2.85 L-0.1,2.25 A0.25,0.25,0,0,1,0.15,2 L3.75,2 A0.15,0.15,0,0,1,3.9,2.15 L3.9,2.85 A0.15,0.15,0,0,0,4.05,3 L4.85,3 A0.15,0.15,0,0,1,5,3.15 L5,3.85 A0.15,0.15,0,0,1,4.85,4 L1.25,4 A0.15,0.15,0,0,1,1.1,3.85 L1.1,3.25 A0.15,0.15,0,0,0,0.95,3.1 z" fill="#AF0000" fill-opacity="0.2" stroke="none"/>
<path d="M1.25,4.1 A0.25,0.25,0,0,1,1,3.85 L1,0.15 A0.15,0.15,0,0,1,1.15,0 L1.85,0 A0.15,0.15,0,0,1,2,0.15 L2,0.95 A0.15,0.15,0,0,0,2.15,1.1 L2.85,1.1 A0.15,0.15,0,0,1,3,1.25 L3,4.85 A0.15,0.15,0,0,1,2.85,5 L2.25,5 A0.15,0.15,0,0,1,2.1,4.85 L2.1,4.25 A0.15,0.15,0,0,0,1.95,4.1 z" fill="none" stroke="#EE2020" stroke-width="0.1"/>
<path d="M2.15,4.9 A0.15,0.15,0,0,1,2,4.75 L2,1.05 A0.15,0.15,0,0,1,2.15,0.9 L2.85,0.9 A0.15,0.15,0,0,0,3,0.75 L3,0.15 A0.15,0.15,0,0,1,3.15,0 L3.85,0 A0.15,0.15,0,0,1,4,0.15 L4,3.95 A0.15,0.15,0,0,1,3.85,4.1 L3.25,4.1 A0.15,0.15,0,0,0,3.1,4.25 L3.1,4.75 A0.15,0.15,0,0,1,2.95,4.9 z" fill="none" stroke="#DDDD00" stroke-width="0.1"/>
<path d="M0.15,3 A0.15,0.15,0,0,1,0,2.85 L0,2.25 A0.15,0.15,0,0,1,0.15,2.1 L0.95,2.1 A0.15,0.15,0,0,0,1.1,1.95 L1.1,1.15 A0.15,0.15,0,0,1,1.25,1 L4.85,1 A0.15,0.15,0,0,1,5,1.15 L5,1.85 A0.15,0.15,0,0,1,4.85,2 L4.25,2 A0.15,0.15,0,0,0,4.1,2.15 L4.1,2.85 A0.15,0.15,0,0,1,3.95,3 z" fill="none" stroke="#1B49DD" stroke-width="0.1"/>
<path d="M0.15,3.1 A0.25,0.25,0,0,1,-0.1,2.85 L-0.1,2.25 A0.25,0.25,0,0,1,0.15,2 L3.75,2 A0.15,0.15,0,0,1,3.9,2.15 L3.9,2.85 A0.15,0.15,0,0,0,4.05,3 L4.85,3 A0.15,0.15,0,0,1,5,3.15 L5,3.85 A0.15,0.15,0,0,1,4.85,4 L1.25,4 A0.15,0.15,0,0,1,1.1,3.85 L1.1,3.25 A0.15,0.15,0,0,0,0.95,3.1 z" fill="none" stroke="#AF0000" stroke-width="0.1"/>
<g opacity="0.3">
<path d="M0.5,2.55 L0.5,2.2 A0.35,0.35,0,0,1,0.85,2.55 z" fill="#1B49DD" stroke="none"/>
<path d="M0.5,2.55 L0.85,2.55 A0.35,0.35,0,0,1,0.797576,2.7342513 z" fill="#AF0000" stroke="none"/>
<circle cx="0.5" cy="2.55" fill="transparent" r="0.35" stroke="red" stroke-width="0.025"/>
</g>
<g opacity="0.3">
<path d="M1.5,0.5 L1.5,0.15 A0.35,0.35,0,0,1,1.7173172,0.77435964 z" fill="#EE2020" stroke="none"/>
<circle cx="1.5" cy="0.5" fill="transparent" r="0.35" stroke="red" stroke-width="0.025"/>
</g>
<g>
<path d="M1.55,1.5 L1.55,1.15 A0.35,0.35,0,0,1,1.7673172,1.7743597 z" fill="#EE2020" stroke="none"/>
<path d="M1.55,1.5 L1.7673172,1.7743597 A0.35,0.35,0,0,1,1.2756404,1.7173172 z" fill="#1B49DD" stroke="none"/>
<circle cx="1.55" cy="1.5" fill="transparent" r="0.35" stroke="white" stroke-width="0.025"/>
</g>
<g opacity="0.3">
<path d="M1.5,2.5 L1.5,2.15 A0.35,0.35,0,0,1,1.7173172,2.7743597 z" fill="#EE2020" stroke="none"/>
<path d="M1.5,2.5 L1.7173172,2.7743597 A0.35,0.35,0,0,1,1.2256403,2.7173173 z" fill="#1B49DD" stroke="none"/>
<path d="M1.5,2.5 L1.2256403,2.7173173 A0.35,0.35,0,0,1,1.152332,2.5403352 z" fill="#AF0000" stroke="none"/>
<circle cx="1.5" cy="2.5" fill="transparent" r="0.35" stroke="green" stroke-width="0.025"/>
</g>
<g opacity="0.3">
<path d="M1.55,3.5 L1.55,3.15 A0.35,0.35,0,0,1,1.7673172,3.7743597 z" fill="#EE2020" stroke="none"/>
<path d="M1.55,3.5 L1.7673172,3.7743597 A0.35,0.35,0,0,1,1.5903351,3.8476682 z" fill="#AF0000" stroke="none"/>
<circle cx="1.55" cy="3.5" fill="transparent" r="0.35" stroke="red" stroke-width="0.025"/>
</g>
<g opacity="0.3">
<path d="M2.5,1.55 L2.5,1.2 A0.35,0.35,0,0,1,2.7173173,1.8243597 z" fill="#EE2020" stroke="none"/>
<path d="M2.5,1.55 L2.7173173,1.8243597 A0.35,0.35,0,0,1,2.202424,1.7342513 z" fill="#DDDD00" stroke="none"/>
<path d="M2.5,1.55 L2.202424,1.7342513 A0.35,0.35,0,0,1,2.3157487,1.252424 z" fill="#1B49DD" stroke="none"/>
<circle cx="2.5" cy="1.55" fill="transparent" r="0.35" stroke="green" stroke-width="0.025"/>
</g>
<g opacity="0.3">
<path d="M2.5,2.5 L2.5,2.15 A0.35,0.35,0,0,1,2.7173173,2.7743597 z" fill="#EE2020" stroke="none"/>
<path d="M2.5,2.5 L2.7173173,2.7743597 A0.35,0.35,0,0,1,2.202424,2.6842513 z" fill="#DDDD00" stroke="none"/>
<path d="M2.5,2.5 L2.202424,2.6842513 A0.35,0.35,0,0,1,2.3157487,2.202424 z" fill="#1B49DD" stroke="none"/>
<path d="M2.5,2.5 L2.3157487,2.202424 A0.35,0.35,0,0,1,2.5,2.15 z" fill="#AF0000" stroke="none"/>
<circle cx="2.5" cy="2.5" fill="transparent" r="0.35" stroke="green" stroke-width="0.025"/>
</g>
<g opacity="0.3">
<path d="M2.5,3.5 L2.5,3.15 A0.35,0.35,0,0,1,2.7173173,3.7743597 z" fill="#EE2020" stroke="none"/>
<path d="M2.5,3.5 L2.7173173,3.7743597 A0.35,0.35,0,0,1,2.202424,3.6842513 z" fill="#DDDD00" stroke="none"/>
<path d="M2.5,3.5 L2.202424,3.6842513 A0.35,0.35,0,0,1,2.15,3.5 z" fill="#AF0000" stroke="none"/>
<circle cx="2.5" cy="3.5" fill="transparent" r="0.35" stroke="green" stroke-width="0.025"/>
</g>
<g>
<path d="M2.55,4.45 L2.55,4.1 A0.35,0.35,0,0,1,2.7673173,4.7243595 z" fill="#EE2020" stroke="none"/>
<path d="M2.55,4.45 L2.7673173,4.7243595 A0.35,0.35,0,0,1,2.252424,4.634251 z" fill="#DDDD00" stroke="none"/>
<circle cx="2.55" cy="4.45" fill="transparent" r="0.35" stroke="white" stroke-width="0.025"/>
</g>
<g opacity="0.3">
<path d="M3.5,0.5 L3.5,0.15 A0.35,0.35,0,0,1,3.8476682,0.54033506 z" fill="#DDDD00" stroke="none"/>
<circle cx="3.5" cy="0.5" fill="transparent" r="0.35" stroke="red" stroke-width="0.025"/>
</g>
<g>
<path d="M3.5,1.5 L3.5,1.15 A0.35,0.35,0,0,1,3.8476682,1.540335 z" fill="#DDDD00" stroke="none"/>
<path d="M3.5,1.5 L3.8476682,1.540335 A0.35,0.35,0,0,1,3.4596648,1.847668 z" fill="#1B49DD" stroke="none"/>
<circle cx="3.5" cy="1.5" fill="transparent" r="0.35" stroke="white" stroke-width="0.025"/>
</g>
<g opacity="0.3">
<path d="M3.45,2.5 L3.45,2.15 A0.35,0.35,0,0,1,3.797668,2.5403352 z" fill="#DDDD00" stroke="none"/>
<path d="M3.45,2.5 L3.797668,2.5403352 A0.35,0.35,0,0,1,3.4096649,2.8476682 z" fill="#1B49DD" stroke="none"/>
<path d="M3.45,2.5 L3.4096649,2.8476682 A0.35,0.35,0,0,1,3.2326827,2.7743597 z" fill="#AF0000" stroke="none"/>
<circle cx="3.45" cy="2.5" fill="transparent" r="0.35" stroke="green" stroke-width="0.025"/>
</g>
<g opacity="0.3">
<path d="M3.5,3.5 L3.5,3.15 A0.35,0.35,0,0,1,3.8476682,3.5403352 z" fill="#DDDD00" stroke="none"/>
<path d="M3.5,3.5 L3.8476682,3.5403352 A0.35,0.35,0,0,1,3.7743597,3.7173173 z" fill="#AF0000" stroke="none"/>
<circle cx="3.5" cy="3.5" fill="transparent" r="0.35" stroke="red" stroke-width="0.025"/>
</g>
<g opacity="0.3">
<path d="M4.5,1.5 L4.5,1.15 A0.35,0.35,0,0,1,4.85,1.5 z" fill="#1B49DD" stroke="none"/>
<circle cx="4.5" cy="1.5" fill="transparent" r="0.35" stroke="red" stroke-width="0.025"/>
</g>
<g opacity="0.3">
<path d="M4.5,3.5 L4.5,3.15 A0.35,0.35,0,0,1,4.6842513,3.202424 z" fill="#AF0000" stroke="none"/>
<circle cx="4.5" cy="3.5" fill="transparent" r="0.35" stroke="red" stroke-width="0.025"/>
</g>
</svg>