<svg viewBox="-0.5 -0.5 4 2" width="320px" xmlns="http://www.w3.org/2000/svg">
<defs>
<mask id="background_mask">
<path d="M0.15,0.95 A0.15,0.15,0,0,1,0,0.8 L0,0.1 A0.15,0.15,0,0,1,0.15,-0.05 L1.85,-0.05 A0.15,0.15,0,0,1,2,0.1 L2,0.8 A0.15,0.15,0,0,1,1.85,0.95 z" fill="white" stroke="none"/>
<path d="M1.15,1 A0.15,0.15,0,0,1,1,0.85 L1,0.15 A0.15,0.15,0,0,1,1.15,0 L2.85,0 A0.15,0.15,0,0,1,3,0.15 L3,0.85 A0.15,0.15,0,0,1,2.85,1 z" fill="white" stroke="none"/>
</mask>
</defs>
<rect height="2" mask="url(#background_mask)" width="4" x="-0.5" y="-0.5"/>
<path d="M0.15,0.95 A0.15,0.15,0,0,1,0,0.8 L0,0.1 A0.15,0.15,0,0,1,0.15,-0.05 L1.85,-0.05 A0.15,0.15,0,0,1,2,0.1 L2,0.8 A0.15,0.15,0,0,1,1.85,0.95 z" fill="#EE2020" fill-opacity="0.2" stroke="none"/>
<path d="M1.15,1 A0.15,0.15,0,0,1,1,0.85 L1,0.15 A0.15,0.15,0,0,1,1.15,0 L2.85,0 A0.15,0.15,0,0,1,3,0.15 L3,0.85 A0.15,0.15,0,0,1,2.85,1 z" fill="#DDDD00" fill-opacity="0.2" stroke="none"/>
<path d="M0.15,0.95 A0.15,0.15,0,0,1,0,0.8 L0,0.1 A0.15,0.15,0,0,1,0.15,-0.05 L1.85,-0.05 A0.15,0.15,0,0,1,2,0.1 L2,0.8 A0.15,0.15,0,0,1,1.85,0.95 z" fill="none" stroke="#EE2020" stroke-width="0.05"/>
<path d="M1.15,1 A0.15,0.15,0,0,1,1,0.85 L1,0.15 A0.15,0.15,0,0,1,1.15,0 L2.85,0 A0.15,0.15,0,0,1,3,0.15 L3,0.85 A0.15,0.15,0,0,1,2.85,1 z" fill="none" stroke="#DDDD00" stroke-width="0.05"/>
<g>
<path d="M0.5,0.45 L0.5,0.1 A0.35,0.35,0,1,1,0.3042825,0.74016315 z" fill="#EE2020" stroke="none"/>
<circle cx="0.5" cy="0.44999999999999996" fill="transparent" r="0.35" stroke="white" stroke-width="0.025"/>
</g>
<g opacity="0.3">
<path d="M1.5,0.475 L1.5,0.125 A0.35,0.35,0,1,1,1.3042824,0.7651631 z" fill="#EE2020" stroke="none"/>
<path d="M1.5,0.475 L1.3042824,0.7651631 A0.35,0.35,0,0,1,1.5,0.125 z" fill="#DDDD00" stroke="none"/>
<circle cx="1.5" cy="0.475" fill="transparent" r="0.35" stroke="green" stroke-width="0.025"/>
</g>
<g opacity="0.3">
<path d="M2.5,0.5 L2.5,0.15 A0.35,0.35,0,0,1,2.6957176,0.79016316 z" fill="#DDDD00" stroke="none"/>
<circle cx="2.5" cy="0.5" fill="transparent" r="0.35" stroke="red" stroke-width="0.025"/>
</g>
</svg>