<svg viewBox="-0.5 -0.5 15 15" width="1200px" xmlns="http://www.w3.org/2000/svg">
<defs>
<mask id="background_mask">
<path d="M1.15,8 A0.15,0.15,0,0,1,1,7.85 L1,7.15 A0.15,0.15,0,0,1,1.15,7 L5.8,7 A0.15,0.15,0,0,0,5.95,6.85 L5.95,4.15 A0.15,0.15,0,0,0,5.8,4 L5.25,4 A0.15,0.15,0,0,1,5.1,3.85 L5.1,3.15 A0.15,0.15,0,0,1,5.25,3 L5.85,3 A0.15,0.15,0,0,0,6,2.85 L6,1.15 A0.15,0.15,0,0,1,6.15,1 L6.8,1 A0.15,0.15,0,0,1,6.95,1.15 L6.95,1.85 A0.15,0.15,0,0,0,7.1,2 L8.85,2 A0.15,0.15,0,0,0,9,1.85 L9,1.15 A0.15,0.15,0,0,1,9.15,1 L12.8,1 A0.15,0.15,0,0,1,12.95,1.15 L12.95,2.8 A0.15,0.15,0,0,1,12.8,2.95 L12.1,2.95 A0.15,0.15,0,0,0,11.95,3.1 L11.95,3.75 A0.2,0.2,0,0,1,11.75,3.95 L9.25,3.95 A0.15,0.15,0,0,0,9.1,4.1 L9.1,6.8 A0.2,0.2,0,0,1,8.9,7 L7.15,7 A0.15,0.15,0,0,0,7,7.15 L7,7.8 A0.15,0.15,0,0,0,7.15,7.95 L7.8,7.95 A0.2,0.2,0,0,1,8,8.15 L8,8.85 A0.15,0.15,0,0,0,8.15,9 L13.75,9 A0.15,0.15,0,0,1,13.9,9.15 L13.9,9.8 A0.15,0.15,0,0,1,13.75,9.95 L13.15,9.95 A0.15,0.15,0,0,0,13,10.1 L13,10.8 A0.15,0.15,0,0,1,12.85,10.95 L12.05,10.95 A0.15,0.15,0,0,0,11.9,11.1 L11.9,11.85 A0.15,0.15,0,0,1,11.75,12 L11.1,12 A0.15,0.15,0,0,1,10.95,11.85 L10.95,11.15 A0.15,0.15,0,0,0,10.8,11 L10.3,11 A0.15,0.15,0,0,0,10.15,11.15 L10.15,11.85 A0.15,0.15,0,0,1,10,12 L8.15,12 A0.15,0.15,0,0,0,8,12.15 L8,12.85 A0.15,0.15,0,0,1,7.85,13 L6.15,13 A0.15,0.15,0,0,1,6,12.85 L6,12.15 A0.15,0.15,0,0,0,5.85,12 L4.2,12 A0.15,0.15,0,0,1,4.05,11.85 L4.05,9.1 A0.15,0.15,0,0,1,4.2,8.95 L5.8,8.95 A0.15,0.15,0,0,0,5.95,8.8 L5.95,8.15 A0.15,0.15,0,0,0,5.8,8 z" fill="white" stroke="none"/>
<path d="M2.2,9.9 A0.2,0.2,0,0,1,2,9.7 L2,7.05 A0.15,0.15,0,0,1,2.15,6.9 L3.8,6.9 A0.15,0.15,0,0,0,3.95,6.75 L3.95,4.2 A0.25,0.25,0,0,1,4.2,3.95 L6,3.95 A0.15,0.15,0,0,0,6.15,3.8 L6.15,2.15 A0.15,0.15,0,0,1,6.3,2 L6.9,2 A0.15,0.15,0,0,1,7.05,2.15 L7.05,2.85 A0.15,0.15,0,0,0,7.2,3 L8.85,3 A0.15,0.15,0,0,0,9,2.85 L9,2.15 A0.15,0.15,0,0,1,9.15,2 L11.85,2 A0.15,0.15,0,0,1,12,2.15 L12,3.9 A0.15,0.15,0,0,1,11.85,4.05 L9.3,4.05 A0.15,0.15,0,0,0,9.15,4.2 L9.15,4.85 A0.15,0.15,0,0,0,9.3,5 L12.85,5 A0.15,0.15,0,0,1,13,5.15 L13,7.8 A0.15,0.15,0,0,1,12.85,7.95 L12.2,7.95 A0.2,0.2,0,0,0,12,8.15 L12,10.9 A0.15,0.15,0,0,1,11.85,11.05 L11.15,11.05 A0.15,0.15,0,0,0,11,11.2 L11,12.8 A0.15,0.15,0,0,1,10.85,12.95 L10.2,12.95 A0.15,0.15,0,0,1,10.05,12.8 L10.05,9.2 A0.15,0.15,0,0,0,9.9,9.05 L8.15,9.05 A0.15,0.15,0,0,0,8,9.2 L8,11.85 A0.15,0.15,0,0,1,7.85,12 L7.2,12 A0.15,0.15,0,0,1,7.05,11.85 L7.05,8.15 A0.15,0.15,0,0,0,6.9,8 L6.2,8 A0.15,0.15,0,0,0,6.05,8.15 L6.05,8.8 A0.25,0.25,0,0,1,5.8,9.05 L4.05,9.05 A0.15,0.15,0,0,0,3.9,9.2 L3.9,9.75 A0.15,0.15,0,0,1,3.75,9.9 z" fill="white" stroke="none"/>
<path d="M1.2,11 A0.2,0.2,0,0,1,1,10.8 L1,10.2 A0.15,0.15,0,0,1,1.15,10.05 L3.8,10.05 A0.15,0.15,0,0,0,3.95,9.9 L3.95,9.1 A0.15,0.15,0,0,0,3.8,8.95 L3.15,8.95 A0.15,0.15,0,0,1,3,8.8 L3,8.05 A0.15,0.15,0,0,1,3.15,7.9 L5.85,7.9 A0.15,0.15,0,0,0,6,7.75 L6,5.2 A0.15,0.15,0,0,0,5.85,5.05 L5.2,5.05 A0.15,0.15,0,0,1,5.05,4.9 L5.05,2.2 A0.15,0.15,0,0,1,5.2,2.05 L5.8,2.05 A0.15,0.15,0,0,1,5.95,2.2 L5.95,2.85 A0.15,0.15,0,0,0,6.1,3 L6.9,3 A0.15,0.15,0,0,1,7.05,3.15 L7.05,3.85 A0.15,0.15,0,0,0,7.2,4 L10.85,4 A0.15,0.15,0,0,1,11,4.15 L11,5 A0.15,0.15,0,0,0,11.15,5.15 L11.85,5.15 A0.15,0.15,0,0,1,12,5.3 L12,5.8 A0.15,0.15,0,0,1,11.85,5.95 L9.3,5.95 A0.15,0.15,0,0,0,9.15,6.1 L9.15,6.8 A0.15,0.15,0,0,0,9.3,6.95 L11.85,6.95 A0.15,0.15,0,0,1,12,7.1 L12,7.85 A0.15,0.15,0,0,1,11.85,8 L11.15,8 A0.15,0.15,0,0,0,11,8.15 L11,10.85 A0.15,0.15,0,0,0,11.15,11 L11.8,11 A0.15,0.15,0,0,1,11.95,11.15 L11.95,12.8 A0.15,0.15,0,0,1,11.8,12.95 L11.2,12.95 A0.15,0.15,0,0,1,11.05,12.8 L11.05,12.15 A0.15,0.15,0,0,0,10.9,12 L10.25,12 A0.15,0.15,0,0,1,10.1,11.85 L10.1,9.25 A0.15,0.15,0,0,0,9.95,9.1 L9.15,9.1 A0.15,0.15,0,0,0,9,9.25 L9,12.85 A0.15,0.15,0,0,1,8.85,13 L8.1,13 A0.2,0.2,0,0,1,7.9,12.8 L7.9,11.15 A0.15,0.15,0,0,0,7.75,11 L7.15,11 A0.15,0.15,0,0,0,7,11.15 L7,13.85 A0.15,0.15,0,0,1,6.85,14 L6.15,14 A0.15,0.15,0,0,1,6,13.85 L6,13.2 A0.15,0.15,0,0,0,5.85,13.05 L4.2,13.05 A0.15,0.15,0,0,0,4.05,13.2 L4.05,13.85 A0.2,0.2,0,0,1,3.85,14.05 L3.15,14.05 A0.2,0.2,0,0,1,2.95,13.85 L2.95,13.2 A0.15,0.15,0,0,0,2.8,13.05 L2.2,13.05 A0.25,0.25,0,0,1,1.95,12.8 L1.95,11.2 A0.2,0.2,0,0,0,1.75,11 z" fill="white" stroke="none"/>
<path d="M0.15,8.05 A0.15,0.15,0,0,1,0,7.9 L0,7.1 A0.15,0.15,0,0,1,0.15,6.95 L3.8,6.95 A0.2,0.2,0,0,0,4,6.75 L4,5.15 A0.15,0.15,0,0,1,4.15,5 L5.85,5 A0.15,0.15,0,0,0,6,4.85 L6,4.15 A0.15,0.15,0,0,1,6.15,4 L6.9,4 A0.15,0.15,0,0,1,7.05,4.15 L7.05,6.8 A0.15,0.15,0,0,0,7.2,6.95 L7.8,6.95 A0.15,0.15,0,0,0,7.95,6.8 L7.95,5.15 A0.15,0.15,0,0,1,8.1,5 L8.8,5 A0.15,0.15,0,0,0,8.95,4.85 L8.95,0.2 A0.2,0.2,0,0,1,9.15,0 L12.85,0 A0.15,0.15,0,0,1,13,0.15 L13,1.8 A0.15,0.15,0,0,1,12.85,1.95 L11.2,1.95 A0.15,0.15,0,0,0,11.05,2.1 L11.05,3.85 A0.15,0.15,0,0,0,11.2,4 L11.85,4 A0.15,0.15,0,0,1,12,4.15 L12,4.75 A0.15,0.15,0,0,1,11.85,4.9 L11.15,4.9 A0.15,0.15,0,0,0,11,5.05 L11,5.85 A0.15,0.15,0,0,0,11.15,6 L12.8,6 A0.15,0.15,0,0,1,12.95,6.15 L12.95,6.85 A0.15,0.15,0,0,1,12.8,7 L11.15,7 A0.15,0.15,0,0,0,11,7.15 L11,7.85 A0.15,0.15,0,0,1,10.85,8 L8.2,8 A0.15,0.15,0,0,0,8.05,8.15 L8.05,8.75 A0.15,0.15,0,0,0,8.2,8.9 L9.8,8.9 A0.15,0.15,0,0,1,9.95,9.05 L9.95,12.85 A0.15,0.15,0,0,1,9.8,13 L9.2,13 A0.15,0.15,0,0,1,9.05,12.85 L9.05,11.15 A0.15,0.15,0,0,0,8.9,11 L8.05,11 A0.15,0.15,0,0,1,7.9,10.85 L7.9,10.15 A0.15,0.15,0,0,0,7.75,10 L7.05,10 A0.15,0.15,0,0,0,6.9,10.15 L6.9,11.85 A0.15,0.15,0,0,1,6.75,12 L6.15,12 A0.15,0.15,0,0,1,6,11.85 L6,9.25 A0.15,0.15,0,0,0,5.85,9.1 L5.2,9.1 A0.15,0.15,0,0,0,5.05,9.25 L5.05,10.85 A0.15,0.15,0,0,1,4.9,11 L4.15,11 A0.15,0.15,0,0,0,4,11.15 L4,13.85 A0.15,0.15,0,0,1,3.85,14 L3.15,14 A0.15,0.15,0,0,1,3,13.85 L3,11.1 A0.15,0.15,0,0,0,2.85,10.95 L1.2,10.95 A0.15,0.15,0,0,1,1.05,10.8 L1.05,9.2 A0.15,0.15,0,0,1,1.2,9.05 L1.8,9.05 A0.15,0.15,0,0,1,1.95,9.2 L1.95,9.7 A0.25,0.25,0,0,0,2.2,9.95 L3.85,9.95 A0.15,0.15,0,0,0,4,9.8 L4,8.2 A0.15,0.15,0,0,0,3.85,8.05 z" fill="white" stroke="none"/>
<path d="M1.15,9.95 A0.15,0.15,0,0,1,1,9.8 L1,9.2 A0.2,0.2,0,0,1,1.2,9 L5.8,9 A0.2,0.2,0,0,0,6,8.8 L6,8.15 A0.2,0.2,0,0,0,5.8,7.95 L3.15,7.95 A0.15,0.15,0,0,1,3,7.8 L3,7.2 A0.15,0.15,0,0,1,3.15,7.05 L5.75,7.05 A0.15,0.15,0,0,0,5.9,6.9 L5.9,6.1 A0.15,0.15,0,0,0,5.75,5.95 L5.15,5.95 A0.15,0.15,0,0,1,5,5.8 L5,5.1 A0.15,0.15,0,0,0,4.85,4.95 L4.15,4.95 A0.15,0.15,0,0,1,4,4.8 L4,4.2 A0.2,0.2,0,0,1,4.2,4 L4.8,4 A0.15,0.15,0,0,0,4.95,3.85 L4.95,2.2 A0.25,0.25,0,0,1,5.2,1.95 L5.9,1.95 A0.2,0.2,0,0,1,6.1,2.15 L6.1,4.85 A0.15,0.15,0,0,0,6.25,5 L6.85,5 A0.15,0.15,0,0,0,7,4.85 L7,1.15 A0.15,0.15,0,0,1,7.15,1 L7.85,1 A0.15,0.15,0,0,1,8,1.15 L8,6.8 A0.15,0.15,0,0,0,8.15,6.95 L8.9,6.95 A0.15,0.15,0,0,0,9.05,6.8 L9.05,4.1 A0.2,0.2,0,0,1,9.25,3.9 L9.8,3.9 A0.15,0.15,0,0,0,9.95,3.75 L9.95,3.15 A0.15,0.15,0,0,1,10.1,3 L10.8,3 A0.15,0.15,0,0,0,10.95,2.85 L10.95,2.2 A0.3,0.3,0,0,1,11.25,1.9 L11.85,1.9 A0.15,0.15,0,0,0,12,1.75 L12,0.05 A0.15,0.15,0,0,1,12.15,-0.1 L12.85,-0.1 A0.25,0.25,0,0,1,13.1,0.15 L13.1,1.8 A0.15,0.15,0,0,0,13.25,1.95 L13.8,1.95 A0.2,0.2,0,0,1,14,2.15 L14,2.85 A0.2,0.2,0,0,1,13.8,3.05 L12.25,3.05 A0.15,0.15,0,0,0,12.1,3.2 L12.1,4.9 A0.2,0.2,0,0,1,11.9,5.1 L10.15,5.1 A0.15,0.15,0,0,0,10,5.25 L10,5.95 A0.15,0.15,0,0,0,10.15,6.1 L11.85,6.1 A0.15,0.15,0,0,1,12,6.25 L12,6.9 A0.15,0.15,0,0,1,11.85,7.05 L10.15,7.05 A0.15,0.15,0,0,0,10,7.2 L10,7.9 A0.15,0.15,0,0,0,10.15,8.05 L13.8,8.05 A0.15,0.15,0,0,1,13.95,8.2 L13.95,9.8 A0.2,0.2,0,0,1,13.75,10 L10.15,10 A0.15,0.15,0,0,0,10,10.15 L10,12.85 A0.2,0.2,0,0,1,9.8,13.05 L9.1,13.05 A0.15,0.15,0,0,1,8.95,12.9 L8.95,9.1 A0.15,0.15,0,0,0,8.8,8.95 L7.15,8.95 A0.15,0.15,0,0,0,7,9.1 L7,10.85 A0.15,0.15,0,0,1,6.85,11 L6.1,11 A0.15,0.15,0,0,0,5.95,11.15 L5.95,12.85 A0.15,0.15,0,0,1,5.8,13 L5.15,13 A0.15,0.15,0,0,1,5,12.85 L5,10.15 A0.15,0.15,0,0,0,4.85,10 L3.2,10 A0.15,0.15,0,0,0,3.05,10.15 L3.05,11.9 A0.15,0.15,0,0,0,3.2,12.05 L3.75,12.05 A0.15,0.15,0,0,1,3.9,12.2 L3.9,12.85 A0.15,0.15,0,0,1,3.75,13 L2.2,13 A0.2,0.2,0,0,1,2,12.8 L2,10.1 A0.15,0.15,0,0,0,1.85,9.95 z" fill="white" stroke="none"/>
<path d="M1.05,10 A0.15,0.15,0,0,1,0.9,9.85 L0.9,9.2 A0.3,0.3,0,0,1,1.2,8.9 L1.9,8.9 A0.15,0.15,0,0,0,2.05,8.75 L2.05,8.25 A0.15,0.15,0,0,1,2.2,8.1 L3.9,8.1 A0.15,0.15,0,0,0,4.05,7.95 L4.05,6.15 A0.15,0.15,0,0,1,4.2,6 L6.85,6 A0.15,0.15,0,0,0,7,5.85 L7,5.15 A0.15,0.15,0,0,1,7.15,5 L7.9,5 A0.15,0.15,0,0,0,8.05,4.85 L8.05,1.15 A0.15,0.15,0,0,1,8.2,1 L8.85,1 A0.15,0.15,0,0,0,9,0.85 L9,0.2 A0.15,0.15,0,0,1,9.15,0.05 L9.85,0.05 A0.15,0.15,0,0,1,10,0.2 L10,3.7 A0.15,0.15,0,0,0,10.15,3.85 L10.85,3.85 A0.15,0.15,0,0,0,11,3.7 L11,0.2 A0.15,0.15,0,0,1,11.15,0.05 L11.8,0.05 A0.15,0.15,0,0,1,11.95,0.2 L11.95,1.85 A0.15,0.15,0,0,0,12.1,2 L13.8,2 A0.15,0.15,0,0,1,13.95,2.15 L13.95,2.85 A0.15,0.15,0,0,1,13.8,3 L12.25,3 A0.2,0.2,0,0,0,12.05,3.2 L12.05,4.9 A0.15,0.15,0,0,1,11.9,5.05 L9.3,5.05 A0.15,0.15,0,0,0,9.15,5.2 L9.15,5.85 A0.15,0.15,0,0,0,9.3,6 L10.85,6 A0.15,0.15,0,0,1,11,6.15 L11,6.85 A0.15,0.15,0,0,1,10.85,7 L9.15,7 A0.15,0.15,0,0,0,9,7.15 L9,7.8 A0.15,0.15,0,0,0,9.15,7.95 L9.85,7.95 A0.15,0.15,0,0,1,10,8.1 L10,9.8 A0.15,0.15,0,0,0,10.15,9.95 L12.85,9.95 A0.15,0.15,0,0,0,13,9.8 L13,8.1 A0.15,0.15,0,0,1,13.15,7.95 L13.8,7.95 A0.25,0.25,0,0,1,14.05,8.2 L14.05,10.85 A0.2,0.2,0,0,1,13.85,11.05 L12.2,11.05 A0.15,0.15,0,0,0,12.05,11.2 L12.05,12.8 A0.25,0.25,0,0,1,11.8,13.05 L10.05,13.05 A0.2,0.2,0,0,1,9.85,12.85 L9.85,11.15 A0.15,0.15,0,0,0,9.7,11 L9.05,11 A0.15,0.15,0,0,0,8.9,11.15 L8.9,12.8 A0.15,0.15,0,0,1,8.75,12.95 L8.1,12.95 A0.15,0.15,0,0,1,7.95,12.8 L7.95,8.15 A0.15,0.15,0,0,0,7.8,8 L7.25,8 A0.15,0.15,0,0,0,7.1,8.15 L7.1,9.85 A0.15,0.15,0,0,1,6.95,10 L6.2,10 A0.15,0.15,0,0,0,6.05,10.15 L6.05,10.85 A0.15,0.15,0,0,1,5.9,11 L5.25,11 A0.15,0.15,0,0,1,5.1,10.85 L5.1,9.25 A0.15,0.15,0,0,0,4.95,9.1 L4.25,9.1 A0.15,0.15,0,0,0,4.1,9.25 L4.1,11.85 A0.15,0.15,0,0,1,3.95,12 L3.1,12 A0.15,0.15,0,0,0,2.95,12.15 L2.95,12.8 A0.15,0.15,0,0,1,2.8,12.95 L2.2,12.95 A0.15,0.15,0,0,1,2.05,12.8 L2.05,11.15 A0.15,0.15,0,0,1,2.2,11 L2.85,11 A0.15,0.15,0,0,0,3,10.85 L3,10.15 A0.15,0.15,0,0,0,2.85,10 z" fill="white" stroke="none"/>
<path d="M1.2,11.05 A0.25,0.25,0,0,1,0.95,10.8 L0.95,9.2 A0.25,0.25,0,0,1,1.2,8.95 L1.8,8.95 A0.25,0.25,0,0,1,2.05,9.2 L2.05,9.7 A0.15,0.15,0,0,0,2.2,9.85 L2.85,9.85 A0.15,0.15,0,0,0,3,9.7 L3,9.05 A0.15,0.15,0,0,1,3.15,8.9 L4.85,8.9 A0.15,0.15,0,0,0,5,8.75 L5,6.1 A0.15,0.15,0,0,0,4.85,5.95 L4.2,5.95 A0.15,0.15,0,0,1,4.05,5.8 L4.05,4.2 A0.15,0.15,0,0,1,4.2,4.05 L4.8,4.05 A0.2,0.2,0,0,0,5,3.85 L5,2.2 A0.2,0.2,0,0,1,5.2,2 L5.9,2 A0.15,0.15,0,0,1,6.05,2.15 L6.05,6.85 A0.15,0.15,0,0,0,6.2,7 L6.85,7 A0.15,0.15,0,0,0,7,6.85 L7,6.15 A0.15,0.15,0,0,1,7.15,6 L8.85,6 A0.15,0.15,0,0,0,9,5.85 L9,3.15 A0.15,0.15,0,0,1,9.15,3 L9.9,3 A0.15,0.15,0,0,0,10.05,2.85 L10.05,0.1 A0.15,0.15,0,0,1,10.2,-0.05 L12.85,-0.05 A0.2,0.2,0,0,1,13.05,0.15 L13.05,1.9 A0.15,0.15,0,0,1,12.9,2.05 L11.25,2.05 A0.15,0.15,0,0,0,11.1,2.2 L11.1,2.85 A0.15,0.15,0,0,0,11.25,3 L11.75,3 A0.15,0.15,0,0,1,11.9,3.15 L11.9,3.75 A0.15,0.15,0,0,1,11.75,3.9 L10.15,3.9 A0.15,0.15,0,0,0,10,4.05 L10,4.8 A0.15,0.15,0,0,0,10.15,4.95 L12.85,4.95 A0.2,0.2,0,0,1,13.05,5.15 L13.05,5.9 A0.15,0.15,0,0,1,12.9,6.05 L10.15,6.05 A0.15,0.15,0,0,0,10,6.2 L10,6.9 A0.15,0.15,0,0,1,9.85,7.05 L8.15,7.05 A0.15,0.15,0,0,0,8,7.2 L8,7.8 A0.15,0.15,0,0,0,8.15,7.95 L8.85,7.95 A0.15,0.15,0,0,1,9,8.1 L9,8.8 A0.15,0.15,0,0,0,9.15,8.95 L11.9,8.95 A0.15,0.15,0,0,0,12.05,8.8 L12.05,8.15 A0.15,0.15,0,0,1,12.2,8 L13.8,8 A0.2,0.2,0,0,1,14,8.2 L14,10.85 A0.15,0.15,0,0,1,13.85,11 L12.2,11 A0.2,0.2,0,0,0,12,11.2 L12,12.8 A0.2,0.2,0,0,1,11.8,13 L10.05,13 A0.15,0.15,0,0,1,9.9,12.85 L9.9,10.15 A0.15,0.15,0,0,0,9.75,10 L8.2,10 A0.15,0.15,0,0,0,8.05,10.15 L8.05,13.85 A0.15,0.15,0,0,1,7.9,14 L7.1,14 A0.15,0.15,0,0,1,6.95,13.85 L6.95,9.15 A0.15,0.15,0,0,0,6.8,9 L6.2,9 A0.15,0.15,0,0,0,6.05,9.15 L6.05,9.85 A0.15,0.15,0,0,1,5.9,10 L5.1,10 A0.15,0.15,0,0,0,4.95,10.15 L4.95,12.85 A0.15,0.15,0,0,1,4.8,13 L4.1,13 A0.15,0.15,0,0,1,3.95,12.85 L3.95,11.15 A0.15,0.15,0,0,0,3.8,11 L3.1,11 A0.15,0.15,0,0,0,2.95,11.15 L2.95,11.85 A0.15,0.15,0,0,1,2.8,12 L2.05,12 A0.15,0.15,0,0,1,1.9,11.85 L1.9,11.2 A0.15,0.15,0,0,0,1.75,11.05 z" fill="white" stroke="none"/>
</mask>
</defs>
<rect height="15" mask="url(#background_mask)" width="15" x="-0.5" y="-0.5"/>
<path d="M1.15,8 A0.15,0.15,0,0,1,1,7.85 L1,7.15 A0.15,0.15,0,0,1,1.15,7 L5.8,7 A0.15,0.15,0,0,0,5.95,6.85 L5.95,4.15 A0.15,0.15,0,0,0,5.8,4 L5.25,4 A0.15,0.15,0,0,1,5.1,3.85 L5.1,3.15 A0.15,0.15,0,0,1,5.25,3 L5.85,3 A0.15,0.15,0,0,0,6,2.85 L6,1.15 A0.15,0.15,0,0,1,6.15,1 L6.8,1 A0.15,0.15,0,0,1,6.95,1.15 L6.95,1.85 A0.15,0.15,0,0,0,7.1,2 L8.85,2 A0.15,0.15,0,0,0,9,1.85 L9,1.15 A0.15,0.15,0,0,1,9.15,1 L12.8,1 A0.15,0.15,0,0,1,12.95,1.15 L12.95,2.8 A0.15,0.15,0,0,1,12.8,2.95 L12.1,2.95 A0.15,0.15,0,0,0,11.95,3.1 L11.95,3.75 A0.2,0.2,0,0,1,11.75,3.95 L9.25,3.95 A0.15,0.15,0,0,0,9.1,4.1 L9.1,6.8 A0.2,0.2,0,0,1,8.9,7 L7.15,7 A0.15,0.15,0,0,0,7,7.15 L7,7.8 A0.15,0.15,0,0,0,7.15,7.95 L7.8,7.95 A0.2,0.2,0,0,1,8,8.15 L8,8.85 A0.15,0.15,0,0,0,8.15,9 L13.75,9 A0.15,0.15,0,0,1,13.9,9.15 L13.9,9.8 A0.15,0.15,0,0,1,13.75,9.95 L13.15,9.95 A0.15,0.15,0,0,0,13,10.1 L13,10.8 A0.15,0.15,0,0,1,12.85,10.95 L12.05,10.95 A0.15,0.15,0,0,0,11.9,11.1 L11.9,11.85 A0.15,0.15,0,0,1,11.75,12 L11.1,12 A0.15,0.15,0,0,1,10.95,11.85 L10.95,11.15 A0.15,0.15,0,0,0,10.8,11 L10.3,11 A0.15,0.15,0,0,0,10.15,11.15 L10.15,11.85 A0.15,0.15,0,0,1,10,12 L8.15,12 A0.15,0.15,0,0,0,8,12.15 L8,12.85 A0.15,0.15,0,0,1,7.85,13 L6.15,13 A0.15,0.15,0,0,1,6,12.85 L6,12.15 A0.15,0.15,0,0,0,5.85,12 L4.2,12 A0.15,0.15,0,0,1,4.05,11.85 L4.05,9.1 A0.15,0.15,0,0,1,4.2,8.95 L5.8,8.95 A0.15,0.15,0,0,0,5.95,8.8 L5.95,8.15 A0.15,0.15,0,0,0,5.8,8 z" fill="#EE2020" fill-opacity="0.2" stroke="none"/>
<path d="M2.2,9.9 A0.2,0.2,0,0,1,2,9.7 L2,7.05 A0.15,0.15,0,0,1,2.15,6.9 L3.8,6.9 A0.15,0.15,0,0,0,3.95,6.75 L3.95,4.2 A0.25,0.25,0,0,1,4.2,3.95 L6,3.95 A0.15,0.15,0,0,0,6.15,3.8 L6.15,2.15 A0.15,0.15,0,0,1,6.3,2 L6.9,2 A0.15,0.15,0,0,1,7.05,2.15 L7.05,2.85 A0.15,0.15,0,0,0,7.2,3 L8.85,3 A0.15,0.15,0,0,0,9,2.85 L9,2.15 A0.15,0.15,0,0,1,9.15,2 L11.85,2 A0.15,0.15,0,0,1,12,2.15 L12,3.9 A0.15,0.15,0,0,1,11.85,4.05 L9.3,4.05 A0.15,0.15,0,0,0,9.15,4.2 L9.15,4.85 A0.15,0.15,0,0,0,9.3,5 L12.85,5 A0.15,0.15,0,0,1,13,5.15 L13,7.8 A0.15,0.15,0,0,1,12.85,7.95 L12.2,7.95 A0.2,0.2,0,0,0,12,8.15 L12,10.9 A0.15,0.15,0,0,1,11.85,11.05 L11.15,11.05 A0.15,0.15,0,0,0,11,11.2 L11,12.8 A0.15,0.15,0,0,1,10.85,12.95 L10.2,12.95 A0.15,0.15,0,0,1,10.05,12.8 L10.05,9.2 A0.15,0.15,0,0,0,9.9,9.05 L8.15,9.05 A0.15,0.15,0,0,0,8,9.2 L8,11.85 A0.15,0.15,0,0,1,7.85,12 L7.2,12 A0.15,0.15,0,0,1,7.05,11.85 L7.05,8.15 A0.15,0.15,0,0,0,6.9,8 L6.2,8 A0.15,0.15,0,0,0,6.05,8.15 L6.05,8.8 A0.25,0.25,0,0,1,5.8,9.05 L4.05,9.05 A0.15,0.15,0,0,0,3.9,9.2 L3.9,9.75 A0.15,0.15,0,0,1,3.75,9.9 z" fill="#DDDD00" fill-opacity="0.2" stroke="none"/>
<path d="M1.2,11 A0.2,0.2,0,0,1,1,10.8 L1,10.2 A0.15,0.15,0,0,1,1.15,10.05 L3.8,10.05 A0.15,0.15,0,0,0,3.95,9.9 L3.95,9.1 A0.15,0.15,0,0,0,3.8,8.95 L3.15,8.95 A0.15,0.15,0,0,1,3,8.8 L3,8.05 A0.15,0.15,0,0,1,3.15,7.9 L5.85,7.9 A0.15,0.15,0,0,0,6,7.75 L6,5.2 A0.15,0.15,0,0,0,5.85,5.05 L5.2,5.05 A0.15,0.15,0,0,1,5.05,4.9 L5.05,2.2 A0.15,0.15,0,0,1,5.2,2.05 L5.8,2.05 A0.15,0.15,0,0,1,5.95,2.2 L5.95,2.85 A0.15,0.15,0,0,0,6.1,3 L6.9,3 A0.15,0.15,0,0,1,7.05,3.15 L7.05,3.85 A0.15,0.15,0,0,0,7.2,4 L10.85,4 A0.15,0.15,0,0,1,11,4.15 L11,5 A0.15,0.15,0,0,0,11.15,5.15 L11.85,5.15 A0.15,0.15,0,0,1,12,5.3 L12,5.8 A0.15,0.15,0,0,1,11.85,5.95 L9.3,5.95 A0.15,0.15,0,0,0,9.15,6.1 L9.15,6.8 A0.15,0.15,0,0,0,9.3,6.95 L11.85,6.95 A0.15,0.15,0,0,1,12,7.1 L12,7.85 A0.15,0.15,0,0,1,11.85,8 L11.15,8 A0.15,0.15,0,0,0,11,8.15 L11,10.85 A0.15,0.15,0,0,0,11.15,11 L11.8,11 A0.15,0.15,0,0,1,11.95,11.15 L11.95,12.8 A0.15,0.15,0,0,1,11.8,12.95 L11.2,12.95 A0.15,0.15,0,0,1,11.05,12.8 L11.05,12.15 A0.15,0.15,0,0,0,10.9,12 L10.25,12 A0.15,0.15,0,0,1,10.1,11.85 L10.1,9.25 A0.15,0.15,0,0,0,9.95,9.1 L9.15,9.1 A0.15,0.15,0,0,0,9,9.25 L9,12.85 A0.15,0.15,0,0,1,8.85,13 L8.1,13 A0.2,0.2,0,0,1,7.9,12.8 L7.9,11.15 A0.15,0.15,0,0,0,7.75,11 L7.15,11 A0.15,0.15,0,0,0,7,11.15 L7,13.85 A0.15,0.15,0,0,1,6.85,14 L6.15,14 A0.15,0.15,0,0,1,6,13.85 L6,13.2 A0.15,0.15,0,0,0,5.85,13.05 L4.2,13.05 A0.15,0.15,0,0,0,4.05,13.2 L4.05,13.85 A0.2,0.2,0,0,1,3.85,14.05 L3.15,14.05 A0.2,0.2,0,0,1,2.95,13.85 L2.95,13.2 A0.15,0.15,0,0,0,2.8,13.05 L2.2,13.05 A0.25,0.25,0,0,1,1.95,12.8 L1.95,11.2 A0.2,0.2,0,0,0,1.75,11 z" fill="#1B49DD" fill-opacity="0.2" stroke="none"/>
<path d="M0.15,8.05 A0.15,0.15,0,0,1,0,7.9 L0,7.1 A0.15,0.15,0,0,1,0.15,6.95 L3.8,6.95 A0.2,0.2,0,0,0,4,6.75 L4,5.15 A0.15,0.15,0,0,1,4.15,5 L5.85,5 A0.15,0.15,0,0,0,6,4.85 L6,4.15 A0.15,0.15,0,0,1,6.15,4 L6.9,4 A0.15,0.15,0,0,1,7.05,4.15 L7.05,6.8 A0.15,0.15,0,0,0,7.2,6.95 L7.8,6.95 A0.15,0.15,0,0,0,7.95,6.8 L7.95,5.15 A0.15,0.15,0,0,1,8.1,5 L8.8,5 A0.15,0.15,0,0,0,8.95,4.85 L8.95,0.2 A0.2,0.2,0,0,1,9.15,0 L12.85,0 A0.15,0.15,0,0,1,13,0.15 L13,1.8 A0.15,0.15,0,0,1,12.85,1.95 L11.2,1.95 A0.15,0.15,0,0,0,11.05,2.1 L11.05,3.85 A0.15,0.15,0,0,0,11.2,4 L11.85,4 A0.15,0.15,0,0,1,12,4.15 L12,4.75 A0.15,0.15,0,0,1,11.85,4.9 L11.15,4.9 A0.15,0.15,0,0,0,11,5.05 L11,5.85 A0.15,0.15,0,0,0,11.15,6 L12.8,6 A0.15,0.15,0,0,1,12.95,6.15 L12.95,6.85 A0.15,0.15,0,0,1,12.8,7 L11.15,7 A0.15,0.15,0,0,0,11,7.15 L11,7.85 A0.15,0.15,0,0,1,10.85,8 L8.2,8 A0.15,0.15,0,0,0,8.05,8.15 L8.05,8.75 A0.15,0.15,0,0,0,8.2,8.9 L9.8,8.9 A0.15,0.15,0,0,1,9.95,9.05 L9.95,12.85 A0.15,0.15,0,0,1,9.8,13 L9.2,13 A0.15,0.15,0,0,1,9.05,12.85 L9.05,11.15 A0.15,0.15,0,0,0,8.9,11 L8.05,11 A0.15,0.15,0,0,1,7.9,10.85 L7.9,10.15 A0.15,0.15,0,0,0,7.75,10 L7.05,10 A0.15,0.15,0,0,0,6.9,10.15 L6.9,11.85 A0.15,0.15,0,0,1,6.75,12 L6.15,12 A0.15,0.15,0,0,1,6,11.85 L6,9.25 A0.15,0.15,0,0,0,5.85,9.1 L5.2,9.1 A0.15,0.15,0,0,0,5.05,9.25 L5.05,10.85 A0.15,0.15,0,0,1,4.9,11 L4.15,11 A0.15,0.15,0,0,0,4,11.15 L4,13.85 A0.15,0.15,0,0,1,3.85,14 L3.15,14 A0.15,0.15,0,0,1,3,13.85 L3,11.1 A0.15,0.15,0,0,0,2.85,10.95 L1.2,10.95 A0.15,0.15,0,0,1,1.05,10.8 L1.05,9.2 A0.15,0.15,0,0,1,1.2,9.05 L1.8,9.05 A0.15,0.15,0,0,1,1.95,9.2 L1.95,9.7 A0.25,0.25,0,0,0,2.2,9.95 L3.85,9.95 A0.15,0.15,0,0,0,4,9.8 L4,8.2 A0.15,0.15,0,0,0,3.85,8.05 z" fill="#AF0000" fill-opacity="0.2" stroke="none"/>
<path d="M1.15,9.95 A0.15,0.15,0,0,1,1,9.8 L1,9.2 A0.2,0.2,0,0,1,1.2,9 L5.8,9 A0.2,0.2,0,0,0,6,8.8 L6,8.15 A0.2,0.2,0,0,0,5.8,7.95 L3.15,7.95 A0.15,0.15,0,0,1,3,7.8 L3,7.2 A0.15,0.15,0,0,1,3.15,7.05 L5.75,7.05 A0.15,0.15,0,0,0,5.9,6.9 L5.9,6.1 A0.15,0.15,0,0,0,5.75,5.95 L5.15,5.95 A0.15,0.15,0,0,1,5,5.8 L5,5.1 A0.15,0.15,0,0,0,4.85,4.95 L4.15,4.95 A0.15,0.15,0,0,1,4,4.8 L4,4.2 A0.2,0.2,0,0,1,4.2,4 L4.8,4 A0.15,0.15,0,0,0,4.95,3.85 L4.95,2.2 A0.25,0.25,0,0,1,5.2,1.95 L5.9,1.95 A0.2,0.2,0,0,1,6.1,2.15 L6.1,4.85 A0.15,0.15,0,0,0,6.25,5 L6.85,5 A0.15,0.15,0,0,0,7,4.85 L7,1.15 A0.15,0.15,0,0,1,7.15,1 L7.85,1 A0.15,0.15,0,0,1,8,1.15 L8,6.8 A0.15,0.15,0,0,0,8.15,6.95 L8.9,6.95 A0.15,0.15,0,0,0,9.05,6.8 L9.05,4.1 A0.2,0.2,0,0,1,9.25,3.9 L9.8,3.9 A0.15,0.15,0,0,0,9.95,3.75 L9.95,3.15 A0.15,0.15,0,0,1,10.1,3 L10.8,3 A0.15,0.15,0,0,0,10.95,2.85 L10.95,2.2 A0.3,0.3,0,0,1,11.25,1.9 L11.85,1.9 A0.15,0.15,0,0,0,12,1.75 L12,0.05 A0.15,0.15,0,0,1,12.15,-0.1 L12.85,-0.1 A0.25,0.25,0,0,1,13.1,0.15 L13.1,1.8 A0.15,0.15,0,0,0,13.25,1.95 L13.8,1.95 A0.2,0.2,0,0,1,14,2.15 L14,2.85 A0.2,0.2,0,0,1,13.8,3.05 L12.25,3.05 A0.15,0.15,0,0,0,12.1,3.2 L12.1,4.9 A0.2,0.2,0,0,1,11.9,5.1 L10.15,5.1 A0.15,0.15,0,0,0,10,5.25 L10,5.95 A0.15,0.15,0,0,0,10.15,6.1 L11.85,6.1 A0.15,0.15,0,0,1,12,6.25 L12,6.9 A0.15,0.15,0,0,1,11.85,7.05 L10.15,7.05 A0.15,0.15,0,0,0,10,7.2 L10,7.9 A0.15,0.15,0,0,0,10.15,8.05 L13.8,8.05 A0.15,0.15,0,0,1,13.95,8.2 L13.95,9.8 A0.2,0.2,0,0,1,13.75,10 L10.15,10 A0.15,0.15,0,0,0,10,10.15 L10,12.85 A0.2,0.2,0,0,1,9.8,13.05 L9.1,13.05 A0.15,0.15,0,0,1,8.95,12.9 L8.95,9.1 A0.15,0.15,0,0,0,8.8,8.95 L7.15,8.95 A0.15,0.15,0,0,0,7,9.1 L7,10.85 A0.15,0.15,0,0,1,6.85,11 L6.1,11 A0.15,0.15,0,0,0,5.95,11.15 L5.95,12.85 A0.15,0.15,0,0,1,5.8,13 L5.15,13 A0.15,0.15,0,0,1,5,12.85 L5,10.15 A0.15,0.15,0,0,0,4.85,10 L3.2,10 A0.15,0.15,0,0,0,3.05,10.15 L3.05,11.9 A0.15,0.15,0,0,0,3.2,12.05 L3.75,12.05 A0.15,0.15,0,0,1,3.9,12.2 L3.9,12.85 A0.15,0.15,0,0,1,3.75,13 L2.2,13 A0.2,0.2,0,0,1,2,12.8 L2,10.1 A0.15,0.15,0,0,0,1.85,9.95 z" fill="#009933" fill-opacity="0.2" stroke="none"/>
<path d="M1.05,10 A0.15,0.15,0,0,1,0.9,9.85 L0.9,9.2 A0.3,0.3,0,0,1,1.2,8.9 L1.9,8.9 A0.15,0.15,0,0,0,2.05,8.75 L2.05,8.25 A0.15,0.15,0,0,1,2.2,8.1 L3.9,8.1 A0.15,0.15,0,0,0,4.05,7.95 L4.05,6.15 A0.15,0.15,0,0,1,4.2,6 L6.85,6 A0.15,0.15,0,0,0,7,5.85 L7,5.15 A0.15,0.15,0,0,1,7.15,5 L7.9,5 A0.15,0.15,0,0,0,8.05,4.85 L8.05,1.15 A0.15,0.15,0,0,1,8.2,1 L8.85,1 A0.15,0.15,0,0,0,9,0.85 L9,0.2 A0.15,0.15,0,0,1,9.15,0.05 L9.85,0.05 A0.15,0.15,0,0,1,10,0.2 L10,3.7 A0.15,0.15,0,0,0,10.15,3.85 L10.85,3.85 A0.15,0.15,0,0,0,11,3.7 L11,0.2 A0.15,0.15,0,0,1,11.15,0.05 L11.8,0.05 A0.15,0.15,0,0,1,11.95,0.2 L11.95,1.85 A0.15,0.15,0,0,0,12.1,2 L13.8,2 A0.15,0.15,0,0,1,13.95,2.15 L13.95,2.85 A0.15,0.15,0,0,1,13.8,3 L12.25,3 A0.2,0.2,0,0,0,12.05,3.2 L12.05,4.9 A0.15,0.15,0,0,1,11.9,5.05 L9.3,5.05 A0.15,0.15,0,0,0,9.15,5.2 L9.15,5.85 A0.15,0.15,0,0,0,9.3,6 L10.85,6 A0.15,0.15,0,0,1,11,6.15 L11,6.85 A0.15,0.15,0,0,1,10.85,7 L9.15,7 A0.15,0.15,0,0,0,9,7.15 L9,7.8 A0.15,0.15,0,0,0,9.15,7.95 L9.85,7.95 A0.15,0.15,0,0,1,10,8.1 L10,9.8 A0.15,0.15,0,0,0,10.15,9.95 L12.85,9.95 A0.15,0.15,0,0,0,13,9.8 L13,8.1 A0.15,0.15,0,0,1,13.15,7.95 L13.8,7.95 A0.25,0.25,0,0,1,14.05,8.2 L14.05,10.85 A0.2,0.2,0,0,1,13.85,11.05 L12.2,11.05 A0.15,0.15,0,0,0,12.05,11.2 L12.05,12.8 A0.25,0.25,0,0,1,11.8,13.05 L10.05,13.05 A0.2,0.2,0,0,1,9.85,12.85 L9.85,11.15 A0.15,0.15,0,0,0,9.7,11 L9.05,11 A0.15,0.15,0,0,0,8.9,11.15 L8.9,12.8 A0.15,0.15,0,0,1,8.75,12.95 L8.1,12.95 A0.15,0.15,0,0,1,7.95,12.8 L7.95,8.15 A0.15,0.15,0,0,0,7.8,8 L7.25,8 A0.15,0.15,0,0,0,7.1,8.15 L7.1,9.85 A0.15,0.15,0,0,1,6.95,10 L6.2,10 A0.15,0.15,0,0,0,6.05,10.15 L6.05,10.85 A0.15,0.15,0,0,1,5.9,11 L5.25,11 A0.15,0.15,0,0,1,5.1,10.85 L5.1,9.25 A0.15,0.15,0,0,0,4.95,9.1 L4.25,9.1 A0.15,0.15,0,0,0,4.1,9.25 L4.1,11.85 A0.15,0.15,0,0,1,3.95,12 L3.1,12 A0.15,0.15,0,0,0,2.95,12.15 L2.95,12.8 A0.15,0.15,0,0,1,2.8,12.95 L2.2,12.95 A0.15,0.15,0,0,1,2.05,12.8 L2.05,11.15 A0.15,0.15,0,0,1,2.2,11 L2.85,11 A0.15,0.15,0,0,0,3,10.85 L3,10.15 A0.15,0.15,0,0,0,2.85,10 z" fill="#231977" fill-opacity="0.2" stroke="none"/>
<path d="M1.2,11.05 A0.25,0.25,0,0,1,0.95,10.8 L0.95,9.2 A0.25,0.25,0,0,1,1.2,8.95 L1.8,8.95 A0.25,0.25,0,0,1,2.05,9.2 L2.05,9.7 A0.15,0.15,0,0,0,2.2,9.85 L2.85,9.85 A0.15,0.15,0,0,0,3,9.7 L3,9.05 A0.15,0.15,0,0,1,3.15,8.9 L4.85,8.9 A0.15,0.15,0,0,0,5,8.75 L5,6.1 A0.15,0.15,0,0,0,4.85,5.95 L4.2,5.95 A0.15,0.15,0,0,1,4.05,5.8 L4.05,4.2 A0.15,0.15,0,0,1,4.2,4.05 L4.8,4.05 A0.2,0.2,0,0,0,5,3.85 L5,2.2 A0.2,0.2,0,0,1,5.2,2 L5.9,2 A0.15,0.15,0,0,1,6.05,2.15 L6.05,6.85 A0.15,0.15,0,0,0,6.2,7 L6.85,7 A0.15,0.15,0,0,0,7,6.85 L7,6.15 A0.15,0.15,0,0,1,7.15,6 L8.85,6 A0.15,0.15,0,0,0,9,5.85 L9,3.15 A0.15,0.15,0,0,1,9.15,3 L9.9,3 A0.15,0.15,0,0,0,10.05,2.85 L10.05,0.1 A0.15,0.15,0,0,1,10.2,-0.05 L12.85,-0.05 A0.2,0.2,0,0,1,13.05,0.15 L13.05,1.9 A0.15,0.15,0,0,1,12.9,2.05 L11.25,2.05 A0.15,0.15,0,0,0,11.1,2.2 L11.1,2.85 A0.15,0.15,0,0,0,11.25,3 L11.75,3 A0.15,0.15,0,0,1,11.9,3.15 L11.9,3.75 A0.15,0.15,0,0,1,11.75,3.9 L10.15,3.9 A0.15,0.15,0,0,0,10,4.05 L10,4.8 A0.15,0.15,0,0,0,10.15,4.95 L12.85,4.95 A0.2,0.2,0,0,1,13.05,5.15 L13.05,5.9 A0.15,0.15,0,0,1,12.9,6.05 L10.15,6.05 A0.15,0.15,0,0,0,10,6.2 L10,6.9 A0.15,0.15,0,0,1,9.85,7.05 L8.15,7.05 A0.15,0.15,0,0,0,8,7.2 L8,7.8 A0.15,0.15,0,0,0,8.15,7.95 L8.85,7.95 A0.15,0.15,0,0,1,9,8.1 L9,8.8 A0.15,0.15,0,0,0,9.15,8.95 L11.9,8.95 A0.15,0.15,0,0,0,12.05,8.8 L12.05,8.15 A0.15,0.15,0,0,1,12.2,8 L13.8,8 A0.2,0.2,0,0,1,14,8.2 L14,10.85 A0.15,0.15,0,0,1,13.85,11 L12.2,11 A0.2,0.2,0,0,0,12,11.2 L12,12.8 A0.2,0.2,0,0,1,11.8,13 L10.05,13 A0.15,0.15,0,0,1,9.9,12.85 L9.9,10.15 A0.15,0.15,0,0,0,9.75,10 L8.2,10 A0.15,0.15,0,0,0,8.05,10.15 L8.05,13.85 A0.15,0.15,0,0,1,7.9,14 L7.1,14 A0.15,0.15,0,0,1,6.95,13.85 L6.95,9.15 A0.15,0.15,0,0,0,6.8,9 L6.2,9 A0.15,0.15,0,0,0,6.05,9.15 L6.05,9.85 A0.15,0.15,0,0,1,5.9,10 L5.1,10 A0.15,0.15,0,0,0,4.95,10.15 L4.95,12.85 A0.15,0.15,0,0,1,4.8,13 L4.1,13 A0.15,0.15,0,0,1,3.95,12.85 L3.95,11.15 A0.15,0.15,0,0,0,3.8,11 L3.1,11 A0.15,0.15,0,0,0,2.95,11.15 L2.95,11.85 A0.15,0.15,0,0,1,2.8,12 L2.05,12 A0.15,0.15,0,0,1,1.9,11.85 L1.9,11.2 A0.15,0.15,0,0,0,1.75,11.05 z" fill="#83CF39" fill-opacity="0.2" stroke="none"/>
<path d="M1.15,8 A0.15,0.15,0,0,1,1,7.85 L1,7.15 A0.15,0.15,0,0,1,1.15,7 L5.8,7 A0.15,0.15,0,0,0,5.95,6.85 L5.95,4.15 A0.15,0.15,0,0,0,5.8,4 L5.25,4 A0.15,0.15,0,0,1,5.1,3.85 L5.1,3.15 A0.15,0.15,0,0,1,5.25,3 L5.85,3 A0.15,0.15,0,0,0,6,2.85 L6,1.15 A0.15,0.15,0,0,1,6.15,1 L6.8,1 A0.15,0.15,0,0,1,6.95,1.15 L6.95,1.85 A0.15,0.15,0,0,0,7.1,2 L8.85,2 A0.15,0.15,0,0,0,9,1.85 L9,1.15 A0.15,0.15,0,0,1,9.15,1 L12.8,1 A0.15,0.15,0,0,1,12.95,1.15 L12.95,2.8 A0.15,0.15,0,0,1,12.8,2.95 L12.1,2.95 A0.15,0.15,0,0,0,11.95,3.1 L11.95,3.75 A0.2,0.2,0,0,1,11.75,3.95 L9.25,3.95 A0.15,0.15,0,0,0,9.1,4.1 L9.1,6.8 A0.2,0.2,0,0,1,8.9,7 L7.15,7 A0.15,0.15,0,0,0,7,7.15 L7,7.8 A0.15,0.15,0,0,0,7.15,7.95 L7.8,7.95 A0.2,0.2,0,0,1,8,8.15 L8,8.85 A0.15,0.15,0,0,0,8.15,9 L13.75,9 A0.15,0.15,0,0,1,13.9,9.15 L13.9,9.8 A0.15,0.15,0,0,1,13.75,9.95 L13.15,9.95 A0.15,0.15,0,0,0,13,10.1 L13,10.8 A0.15,0.15,0,0,1,12.85,10.95 L12.05,10.95 A0.15,0.15,0,0,0,11.9,11.1 L11.9,11.85 A0.15,0.15,0,0,1,11.75,12 L11.1,12 A0.15,0.15,0,0,1,10.95,11.85 L10.95,11.15 A0.15,0.15,0,0,0,10.8,11 L10.3,11 A0.15,0.15,0,0,0,10.15,11.15 L10.15,11.85 A0.15,0.15,0,0,1,10,12 L8.15,12 A0.15,0.15,0,0,0,8,12.15 L8,12.85 A0.15,0.15,0,0,1,7.85,13 L6.15,13 A0.15,0.15,0,0,1,6,12.85 L6,12.15 A0.15,0.15,0,0,0,5.85,12 L4.2,12 A0.15,0.15,0,0,1,4.05,11.85 L4.05,9.1 A0.15,0.15,0,0,1,4.2,8.95 L5.8,8.95 A0.15,0.15,0,0,0,5.95,8.8 L5.95,8.15 A0.15,0.15,0,0,0,5.8,8 z" fill="none" stroke="#EE2020" stroke-width="0.05"/>
<path d="M2.2,9.9 A0.2,0.2,0,0,1,2,9.7 L2,7.05 A0.15,0.15,0,0,1,2.15,6.9 L3.8,6.9 A0.15,0.15,0,0,0,3.95,6.75 L3.95,4.2 A0.25,0.25,0,0,1,4.2,3.95 L6,3.95 A0.15,0.15,0,0,0,6.15,3.8 L6.15,2.15 A0.15,0.15,0,0,1,6.3,2 L6.9,2 A0.15,0.15,0,0,1,7.05,2.15 L7.05,2.85 A0.15,0.15,0,0,0,7.2,3 L8.85,3 A0.15,0.15,0,0,0,9,2.85 L9,2.15 A0.15,0.15,0,0,1,9.15,2 L11.85,2 A0.15,0.15,0,0,1,12,2.15 L12,3.9 A0.15,0.15,0,0,1,11.85,4.05 L9.3,4.05 A0.15,0.15,0,0,0,9.15,4.2 L9.15,4.85 A0.15,0.15,0,0,0,9.3,5 L12.85,5 A0.15,0.15,0,0,1,13,5.15 L13,7.8 A0.15,0.15,0,0,1,12.85,7.95 L12.2,7.95 A0.2,0.2,0,0,0,12,8.15 L12,10.9 A0.15,0.15,0,0,1,11.85,11.05 L11.15,11.05 A0.15,0.15,0,0,0,11,11.2 L11,12.8 A0.15,0.15,0,0,1,10.85,12.95 L10.2,12.95 A0.15,0.15,0,0,1,10.05,12.8 L10.05,9.2 A0.15,0.15,0,0,0,9.9,9.05 L8.15,9.05 A0.15,0.15,0,0,0,8,9.2 L8,11.85 A0.15,0.15,0,0,1,7.85,12 L7.2,12 A0.15,0.15,0,0,1,7.05,11.85 L7.05,8.15 A0.15,0.15,0,0,0,6.9,8 L6.2,8 A0.15,0.15,0,0,0,6.05,8.15 L6.05,8.8 A0.25,0.25,0,0,1,5.8,9.05 L4.05,9.05 A0.15,0.15,0,0,0,3.9,9.2 L3.9,9.75 A0.15,0.15,0,0,1,3.75,9.9 z" fill="none" stroke="#DDDD00" stroke-width="0.05"/>
<path d="M1.2,11 A0.2,0.2,0,0,1,1,10.8 L1,10.2 A0.15,0.15,0,0,1,1.15,10.05 L3.8,10.05 A0.15,0.15,0,0,0,3.95,9.9 L3.95,9.1 A0.15,0.15,0,0,0,3.8,8.95 L3.15,8.95 A0.15,0.15,0,0,1,3,8.8 L3,8.05 A0.15,0.15,0,0,1,3.15,7.9 L5.85,7.9 A0.15,0.15,0,0,0,6,7.75 L6,5.2 A0.15,0.15,0,0,0,5.85,5.05 L5.2,5.05 A0.15,0.15,0,0,1,5.05,4.9 L5.05,2.2 A0.15,0.15,0,0,1,5.2,2.05 L5.8,2.05 A0.15,0.15,0,0,1,5.95,2.2 L5.95,2.85 A0.15,0.15,0,0,0,6.1,3 L6.9,3 A0.15,0.15,0,0,1,7.05,3.15 L7.05,3.85 A0.15,0.15,0,0,0,7.2,4 L10.85,4 A0.15,0.15,0,0,1,11,4.15 L11,5 A0.15,0.15,0,0,0,11.15,5.15 L11.85,5.15 A0.15,0.15,0,0,1,12,5.3 L12,5.8 A0.15,0.15,0,0,1,11.85,5.95 L9.3,5.95 A0.15,0.15,0,0,0,9.15,6.1 L9.15,6.8 A0.15,0.15,0,0,0,9.3,6.95 L11.85,6.95 A0.15,0.15,0,0,1,12,7.1 L12,7.85 A0.15,0.15,0,0,1,11.85,8 L11.15,8 A0.15,0.15,0,0,0,11,8.15 L11,10.85 A0.15,0.15,0,0,0,11.15,11 L11.8,11 A0.15,0.15,0,0,1,11.95,11.15 L11.95,12.8 A0.15,0.15,0,0,1,11.8,12.95 L11.2,12.95 A0.15,0.15,0,0,1,11.05,12.8 L11.05,12.15 A0.15,0.15,0,0,0,10.9,12 L10.25,12 A0.15,0.15,0,0,1,10.1,11.85 L10.1,9.25 A0.15,0.15,0,0,0,9.95,9.1 L9.15,9.1 A0.15,0.15,0,0,0,9,9.25 L9,12.85 A0.15,0.15,0,0,1,8.85,13 L8.1,13 A0.2,0.2,0,0,1,7.9,12.8 L7.9,11.15 A0.15,0.15,0,0,0,7.75,11 L7.15,11 A0.15,0.15,0,0,0,7,11.15 L7,13.85 A0.15,0.15,0,0,1,6.85,14 L6.15,14 A0.15,0.15,0,0,1,6,13.85 L6,13.2 A0.15,0.15,0,0,0,5.85,13.05 L4.2,13.05 A0.15,0.15,0,0,0,4.05,13.2 L4.05,13.85 A0.2,0.2,0,0,1,3.85,14.05 L3.15,14.05 A0.2,0.2,0,0,1,2.95,13.85 L2.95,13.2 A0.15,0.15,0,0,0,2.8,13.05 L2.2,13.05 A0.25,0.25,0,0,1,1.95,12.8 L1.95,11.2 A0.2,0.2,0,0,0,1.75,11 z" fill="none" stroke="#1B49DD" stroke-width="0.05"/>
<path d="M0.15,8.05 A0.15,0.15,0,0,1,0,7.9 L0,7.1 A0.15,0.15,0,0,1,0.15,6.95 L3.8,6.95 A0.2,0.2,0,0,0,4,6.75 L4,5.15 A0.15,0.15,0,0,1,4.15,5 L5.85,5 A0.15,0.15,0,0,0,6,4.85 L6,4.15 A0.15,0.15,0,0,1,6.15,4 L6.9,4 A0.15,0.15,0,0,1,7.05,4.15 L7.05,6.8 A0.15,0.15,0,0,0,7.2,6.95 L7.8,6.95 A0.15,0.15,0,0,0,7.95,6.8 L7.95,5.15 A0.15,0.15,0,0,1,8.1,5 L8.8,5 A0.15,0.15,0,0,0,8.95,4.85 L8.95,0.2 A0.2,0.2,0,0,1,9.15,0 L12.85,0 A0.15,0.15,0,0,1,13,0.15 L13,1.8 A0.15,0.15,0,0,1,12.85,1.95 L11.2,1.95 A0.15,0.15,0,0,0,11.05,2.1 L11.05,3.85 A0.15,0.15,0,0,0,11.2,4 L11.85,4 A0.15,0.15,0,0,1,12,4.15 L12,4.75 A0.15,0.15,0,0,1,11.85,4.9 L11.15,4.9 A0.15,0.15,0,0,0,11,5.05 L11,5.85 A0.15,0.15,0,0,0,11.15,6 L12.8,6 A0.15,0.15,0,0,1,12.95,6.15 L12.95,6.85 A0.15,0.15,0,0,1,12.8,7 L11.15,7 A0.15,0.15,0,0,0,11,7.15 L11,7.85 A0.15,0.15,0,0,1,10.85,8 L8.2,8 A0.15,0.15,0,0,0,8.05,8.15 L8.05,8.75 A0.15,0.15,0,0,0,8.2,8.9 L9.8,8.9 A0.15,0.15,0,0,1,9.95,9.05 L9.95,12.85 A0.15,0.15,0,0,1,9.8,13 L9.2,13 A0.15,0.15,0,0,1,9.05,12.85 L9.05,11.15 A0.15,0.15,0,0,0,8.9,11 L8.05,11 A0.15,0.15,0,0,1,7.9,10.85 L7.9,10.15 A0.15,0.15,0,0,0,7.75,10 L7.05,10 A0.15,0.15,0,0,0,6.9,10.15 L6.9,11.85 A0.15,0.15,0,0,1,6.75,12 L6.15,12 A0.15,0.15,0,0,1,6,11.85 L6,9.25 A0.15,0.15,0,0,0,5.85,9.1 L5.2,9.1 A0.15,0.15,0,0,0,5.05,9.25 L5.05,10.85 A0.15,0.15,0,0,1,4.9,11 L4.15,11 A0.15,0.15,0,0,0,4,11.15 L4,13.85 A0.15,0.15,0,0,1,3.85,14 L3.15,14 A0.15,0.15,0,0,1,3,13.85 L3,11.1 A0.15,0.15,0,0,0,2.85,10.95 L1.2,10.95 A0.15,0.15,0,0,1,1.05,10.8 L1.05,9.2 A0.15,0.15,0,0,1,1.2,9.05 L1.8,9.05 A0.15,0.15,0,0,1,1.95,9.2 L1.95,9.7 A0.25,0.25,0,0,0,2.2,9.95 L3.85,9.95 A0.15,0.15,0,0,0,4,9.8 L4,8.2 A0.15,0.15,0,0,0,3.85,8.05 z" fill="none" stroke="#AF0000" stroke-width="0.05"/>
<path d="M1.15,9.95 A0.15,0.15,0,0,1,1,9.8 L1,9.2 A0.2,0.2,0,0,1,1.2,9 L5.8,9 A0.2,0.2,0,0,0,6,8.8 L6,8.15 A0.2,0.2,0,0,0,5.8,7.95 L3.15,7.95 A0.15,0.15,0,0,1,3,7.8 L3,7.2 A0.15,0.15,0,0,1,3.15,7.05 L5.75,7.05 A0.15,0.15,0,0,0,5.9,6.9 L5.9,6.1 A0.15,0.15,0,0,0,5.75,5.95 L5.15,5.95 A0.15,0.15,0,0,1,5,5.8 L5,5.1 A0.15,0.15,0,0,0,4.85,4.95 L4.15,4.95 A0.15,0.15,0,0,1,4,4.8 L4,4.2 A0.2,0.2,0,0,1,4.2,4 L4.8,4 A0.15,0.15,0,0,0,4.95,3.85 L4.95,2.2 A0.25,0.25,0,0,1,5.2,1.95 L5.9,1.95 A0.2,0.2,0,0,1,6.1,2.15 L6.1,4.85 A0.15,0.15,0,0,0,6.25,5 L6.85,5 A0.15,0.15,0,0,0,7,4.85 L7,1.15 A0.15,0.15,0,0,1,7.15,1 L7.85,1 A0.15,0.15,0,0,1,8,1.15 L8,6.8 A0.15,0.15,0,0,0,8.15,6.95 L8.9,6.95 A0.15,0.15,0,0,0,9.05,6.8 L9.05,4.1 A0.2,0.2,0,0,1,9.25,3.9 L9.8,3.9 A0.15,0.15,0,0,0,9.95,3.75 L9.95,3.15 A0.15,0.15,0,0,1,10.1,3 L10.8,3 A0.15,0.15,0,0,0,10.95,2.85 L10.95,2.2 A0.3,0.3,0,0,1,11.25,1.9 L11.85,1.9 A0.15,0.15,0,0,0,12,1.75 L12,0.05 A0.15,0.15,0,0,1,12.15,-0.1 L12.85,-0.1 A0.25,0.25,0,0,1,13.1,0.15 L13.1,1.8 A0.15,0.15,0,0,0,13.25,1.95 L13.8,1.95 A0.2,0.2,0,0,1,14,2.15 L14,2.85 A0.2,0.2,0,0,1,13.8,3.05 L12.25,3.05 A0.15,0.15,0,0,0,12.1,3.2 L12.1,4.9 A0.2,0.2,0,0,1,11.9,5.1 L10.15,5.1 A0.15,0.15,0,0,0,10,5.25 L10,5.95 A0.15,0.15,0,0,0,10.15,6.1 L11.85,6.1 A0.15,0.15,0,0,1,12,6.25 L12,6.9 A0.15,0.15,0,0,1,11.85,7.05 L10.15,7.05 A0.15,0.15,0,0,0,10,7.2 L10,7.9 A0.15,0.15,0,0,0,10.15,8.05 L13.8,8.05 A0.15,0.15,0,0,1,13.95,8.2 L13.95,9.8 A0.2,0.2,0,0,1,13.75,10 L10.15,10 A0.15,0.15,0,0,0,10,10.15 L10,12.85 A0.2,0.2,0,0,1,9.8,13.05 L9.1,13.05 A0.15,0.15,0,0,1,8.95,12.9 L8.95,9.1 A0.15,0.15,0,0,0,8.8,8.95 L7.15,8.95 A0.15,0.15,0,0,0,7,9.1 L7,10.85 A0.15,0.15,0,0,1,6.85,11 L6.1,11 A0.15,0.15,0,0,0,5.95,11.15 L5.95,12.85 A0.15,0.15,0,0,1,5.8,13 L5.15,13 A0.15,0.15,0,0,1,5,12.85 L5,10.15 A0.15,0.15,0,0,0,4.85,10 L3.2,10 A0.15,0.15,0,0,0,3.05,10.15 L3.05,11.9 A0.15,0.15,0,0,0,3.2,12.05 L3.75,12.05 A0.15,0.15,0,0,1,3.9,12.2 L3.9,12.85 A0.15,0.15,0,0,1,3.75,13 L2.2,13 A0.2,0.2,0,0,1,2,12.8 L2,10.1 A0.15,0.15,0,0,0,1.85,9.95 z" fill="none" stroke="#009933" stroke-width="0.05"/>
<path d="M1.05,10 A0.15,0.15,0,0,1,0.9,9.85 L0.9,9.2 A0.3,0.3,0,0,1,1.2,8.9 L1.9,8.9 A0.15,0.15,0,0,0,2.05,8.75 L2.05,8.25 A0.15,0.15,0,0,1,2.2,8.1 L3.9,8.1 A0.15,0.15,0,0,0,4.05,7.95 L4.05,6.15 A0.15,0.15,0,0,1,4.2,6 L6.85,6 A0.15,0.15,0,0,0,7,5.85 L7,5.15 A0.15,0.15,0,0,1,7.15,5 L7.9,5 A0.15,0.15,0,0,0,8.05,4.85 L8.05,1.15 A0.15,0.15,0,0,1,8.2,1 L8.85,1 A0.15,0.15,0,0,0,9,0.85 L9,0.2 A0.15,0.15,0,0,1,9.15,0.05 L9.85,0.05 A0.15,0.15,0,0,1,10,0.2 L10,3.7 A0.15,0.15,0,0,0,10.15,3.85 L10.85,3.85 A0.15,0.15,0,0,0,11,3.7 L11,0.2 A0.15,0.15,0,0,1,11.15,0.05 L11.8,0.05 A0.15,0.15,0,0,1,11.95,0.2 L11.95,1.85 A0.15,0.15,0,0,0,12.1,2 L13.8,2 A0.15,0.15,0,0,1,13.95,2.15 L13.95,2.85 A0.15,0.15,0,0,1,13.8,3 L12.25,3 A0.2,0.2,0,0,0,12.05,3.2 L12.05,4.9 A0.15,0.15,0,0,1,11.9,5.05 L9.3,5.05 A0.15,0.15,0,0,0,9.15,5.2 L9.15,5.85 A0.15,0.15,0,0,0,9.3,6 L10.85,6 A0.15,0.15,0,0,1,11,6.15 L11,6.85 A0.15,0.15,0,0,1,10.85,7 L9.15,7 A0.15,0.15,0,0,0,9,7.15 L9,7.8 A0.15,0.15,0,0,0,9.15,7.95 L9.85,7.95 A0.15,0.15,0,0,1,10,8.1 L10,9.8 A0.15,0.15,0,0,0,10.15,9.95 L12.85,9.95 A0.15,0.15,0,0,0,13,9.8 L13,8.1 A0.15,0.15,0,0,1,13.15,7.95 L13.8,7.95 A0.25,0.25,0,0,1,14.05,8.2 L14.05,10.85 A0.2,0.2,0,0,1,13.85,11.05 L12.2,11.05 A0.15,0.15,0,0,0,12.05,11.2 L12.05,12.8 A0.25,0.25,0,0,1,11.8,13.05 L10.05,13.05 A0.2,0.2,0,0,1,9.85,12.85 L9.85,11.15 A0.15,0.15,0,0,0,9.7,11 L9.05,11 A0.15,0.15,0,0,0,8.9,11.15 L8.9,12.8 A0.15,0.15,0,0,1,8.75,12.95 L8.1,12.95 A0.15,0.15,0,0,1,7.95,12.8 L7.95,8.15 A0.15,0.15,0,0,0,7.8,8 L7.25,8 A0.15,0.15,0,0,0,7.1,8.15 L7.1,9.85 A0.15,0.15,0,0,1,6.95,10 L6.2,10 A0.15,0.15,0,0,0,6.05,10.15 L6.05,10.85 A0.15,0.15,0,0,1,5.9,11 L5.25,11 A0.15,0.15,0,0,1,5.1,10.85 L5.1,9.25 A0.15,0.15,0,0,0,4.95,9.1 L4.25,9.1 A0.15,0.15,0,0,0,4.1,9.25 L4.1,11.85 A0.15,0.15,0,0,1,3.95,12 L3.1,12 A0.15,0.15,0,0,0,2.95,12.15 L2.95,12.8 A0.15,0.15,0,0,1,2.8,12.95 L2.2,12.95 A0.15,0.15,0,0,1,2.05,12.8 L2.05,11.15 A0.15,0.15,0,0,1,2.2,11 L2.85,11 A0.15,0.15,0,0,0,3,10.85 L3,10.15 A0.15,0.15,0,0,0,2.85,10 z" fill="none" stroke="#231977" stroke-width="0.05"/>
<path d="M1.2,11.05 A0.25,0.25,0,0,1,0.95,10.8 L0.95,9.2 A0.25,0.25,0,0,1,1.2,8.95 L1.8,8.95 A0.25,0.25,0,0,1,2.05,9.2 L2.05,9.7 A0.15,0.15,0,0,0,2.2,9.85 L2.85,9.85 A0.15,0.15,0,0,0,3,9.7 L3,9.05 A0.15,0.15,0,0,1,3.15,8.9 L4.85,8.9 A0.15,0.15,0,0,0,5,8.75 L5,6.1 A0.15,0.15,0,0,0,4.85,5.95 L4.2,5.95 A0.15,0.15,0,0,1,4.05,5.8 L4.05,4.2 A0.15,0.15,0,0,1,4.2,4.05 L4.8,4.05 A0.2,0.2,0,0,0,5,3.85 L5,2.2 A0.2,0.2,0,0,1,5.2,2 L5.9,2 A0.15,0.15,0,0,1,6.05,2.15 L6.05,6.85 A0.15,0.15,0,0,0,6.2,7 L6.85,7 A0.15,0.15,0,0,0,7,6.85 L7,6.15 A0.15,0.15,0,0,1,7.15,6 L8.85,6 A0.15,0.15,0,0,0,9,5.85 L9,3.15 A0.15,0.15,0,0,1,9.15,3 L9.9,3 A0.15,0.15,0,0,0,10.05,2.85 L10.05,0.1 A0.15,0.15,0,0,1,10.2,-0.05 L12.85,-0.05 A0.2,0.2,0,0,1,13.05,0.15 L13.05,1.9 A0.15,0.15,0,0,1,12.9,2.05 L11.25,2.05 A0.15,0.15,0,0,0,11.1,2.2 L11.1,2.85 A0.15,0.15,0,0,0,11.25,3 L11.75,3 A0.15,0.15,0,0,1,11.9,3.15 L11.9,3.75 A0.15,0.15,0,0,1,11.75,3.9 L10.15,3.9 A0.15,0.15,0,0,0,10,4.05 L10,4.8 A0.15,0.15,0,0,0,10.15,4.95 L12.85,4.95 A0.2,0.2,0,0,1,13.05,5.15 L13.05,5.9 A0.15,0.15,0,0,1,12.9,6.05 L10.15,6.05 A0.15,0.15,0,0,0,10,6.2 L10,6.9 A0.15,0.15,0,0,1,9.85,7.05 L8.15,7.05 A0.15,0.15,0,0,0,8,7.2 L8,7.8 A0.15,0.15,0,0,0,8.15,7.95 L8.85,7.95 A0.15,0.15,0,0,1,9,8.1 L9,8.8 A0.15,0.15,0,0,0,9.15,8.95 L11.9,8.95 A0.15,0.15,0,0,0,12.05,8.8 L12.05,8.15 A0.15,0.15,0,0,1,12.2,8 L13.8,8 A0.2,0.2,0,0,1,14,8.2 L14,10.85 A0.15,0.15,0,0,1,13.85,11 L12.2,11 A0.2,0.2,0,0,0,12,11.2 L12,12.8 A0.2,0.2,0,0,1,11.8,13 L10.05,13 A0.15,0.15,0,0,1,9.9,12.85 L9.9,10.15 A0.15,0.15,0,0,0,9.75,10 L8.2,10 A0.15,0.15,0,0,0,8.05,10.15 L8.05,13.85 A0.15,0.15,0,0,1,7.9,14 L7.1,14 A0.15,0.15,0,0,1,6.95,13.85 L6.95,9.15 A0.15,0.15,0,0,0,6.8,9 L6.2,9 A0.15,0.15,0,0,0,6.05,9.15 L6.05,9.85 A0.15,0.15,0,0,1,5.9,10 L5.1,10 A0.15,0.15,0,0,0,4.95,10.15 L4.95,12.85 A0.15,0.15,0,0,1,4.8,13 L4.1,13 A0.15,0.15,0,0,1,3.95,12.85 L3.95,11.15 A0.15,0.15,0,0,0,3.8,11 L3.1,11 A0.15,0.15,0,0,0,2.95,11.15 L2.95,11.85 A0.15,0.15,0,0,1,2.8,12 L2.05,12 A0.15,0.15,0,0,1,1.9,11.85 L1.9,11.2 A0.15,0.15,0,0,0,1.75,11.05 z" fill="none" stroke="#83CF39" stroke-width="0.05"/>
<g opacity="0.3">
<path d="M0.5,7.5 L0.5,7.15 A0.35,0.35,0,0,1,0.65313303,7.1852775 z" fill="#AF0000" stroke="none"/>
<circle cx="0.5" cy="7.5" fill="transparent" r="0.35" stroke="red" stroke-width="0.025"/>
</g>
<g opacity="0.3">
<path d="M1.5,7.5 L1.5,7.15 A0.35,0.35,0,0,1,1.8154414,7.6516466 z" fill="#EE2020" stroke="none"/>
<path d="M1.5,7.5 L1.8154414,7.6516466 A0.35,0.35,0,0,1,1.7172982,7.774375 z" fill="#AF0000" stroke="none"/>
<circle cx="1.5" cy="7.5" fill="transparent" r="0.35" stroke="red" stroke-width="0.025"/>
</g>
<g opacity="0.3">
<path d="M1.5,9.5 L1.5,9.15 A0.35,0.35,0,0,1,1.653133,9.185278 z" fill="#AF0000" stroke="none"/>
<path d="M1.5,9.5 L1.653133,9.185278 A0.35,0.35,0,0,1,1.7753967,9.2839985 z" fill="#009933" stroke="none"/>
<path d="M1.5,9.5 L1.7753967,9.2839985 A0.35,0.35,0,0,1,1.8336766,9.39436 z" fill="#231977" stroke="none"/>
<path d="M1.5,9.5 L1.8336766,9.39436 A0.35,0.35,0,0,1,1.8498092,9.511555 z" fill="#83CF39" stroke="none"/>
<circle cx="1.5" cy="9.5" fill="transparent" r="0.35" stroke="red" stroke-width="0.025"/>
</g>
<g opacity="0.3">
<path d="M1.525,10.5 L1.525,10.15 A0.35,0.35,0,0,1,1.8606104,10.400674 z" fill="#1B49DD" stroke="none"/>
<path d="M1.525,10.5 L1.8606104,10.400674 A0.35,0.35,0,0,1,1.8702407,10.557523 z" fill="#AF0000" stroke="none"/>
<path d="M1.525,10.5 L1.8702407,10.557523 A0.35,0.35,0,0,1,1.8313568,10.66925 z" fill="#83CF39" stroke="none"/>
<circle cx="1.525" cy="10.5" fill="transparent" r="0.35" stroke="red" stroke-width="0.025"/>
</g>
<g opacity="0.3">
<path d="M2.5,7.5 L2.5,7.15 A0.35,0.35,0,0,1,2.8154414,7.6516466 z" fill="#EE2020" stroke="none"/>
<path d="M2.5,7.5 L2.8154414,7.6516466 A0.35,0.35,0,0,1,2.4118078,7.8387065 z" fill="#DDDD00" stroke="none"/>
<path d="M2.5,7.5 L2.4118078,7.8387065 A0.35,0.35,0,0,1,2.272505,7.765981 z" fill="#AF0000" stroke="none"/>
<circle cx="2.5" cy="7.5" fill="transparent" r="0.35" stroke="green" stroke-width="0.025"/>
</g>
<g opacity="0.3">
<path d="M2.525,8.55 L2.525,8.2 A0.35,0.35,0,0,1,2.8684747,8.482731 z" fill="#DDDD00" stroke="none"/>
<path d="M2.525,8.55 L2.8684747,8.482731 A0.35,0.35,0,0,1,2.8702407,8.607522 z" fill="#231977" stroke="none"/>
<circle cx="2.525" cy="8.55" fill="transparent" r="0.35" stroke="red" stroke-width="0.025"/>
</g>
<g opacity="0.3">
<path d="M2.525,9.425 L2.525,9.075 A0.35,0.35,0,0,1,2.8684747,9.357731 z" fill="#DDDD00" stroke="none"/>
<path d="M2.525,9.425 L2.8684747,9.357731 A0.35,0.35,0,0,1,2.8632867,9.514789 z" fill="#009933" stroke="none"/>
<path d="M2.525,9.425 L2.8632867,9.514789 A0.35,0.35,0,0,1,2.8102756,9.627775 z" fill="#231977" stroke="none"/>
<circle cx="2.525" cy="9.425" fill="transparent" r="0.35" stroke="red" stroke-width="0.025"/>
</g>
<g opacity="0.3">
<path d="M2.5,10.5 L2.5,10.15 A0.35,0.35,0,0,1,2.8356104,10.400674 z" fill="#1B49DD" stroke="none"/>
<path d="M2.5,10.5 L2.8356104,10.400674 A0.35,0.35,0,0,1,2.8452408,10.557523 z" fill="#AF0000" stroke="none"/>
<path d="M2.5,10.5 L2.8452408,10.557523 A0.35,0.35,0,0,1,2.7852757,10.702775 z" fill="#009933" stroke="none"/>
<path d="M2.5,10.5 L2.7852757,10.702775 A0.35,0.35,0,0,1,2.7014275,10.786229 z" fill="#83CF39" stroke="none"/>
<circle cx="2.5" cy="10.5" fill="transparent" r="0.35" stroke="red" stroke-width="0.025"/>
</g>
<g opacity="0.3">
<path d="M2.5,11.5 L2.5,11.15 A0.35,0.35,0,0,1,2.8356104,11.400674 z" fill="#1B49DD" stroke="none"/>
<path d="M2.5,11.5 L2.8356104,11.400674 A0.35,0.35,0,0,1,2.8452408,11.557523 z" fill="#009933" stroke="none"/>
<path d="M2.5,11.5 L2.8452408,11.557523 A0.35,0.35,0,0,1,2.803109,11.675 z" fill="#231977" stroke="none"/>
<path d="M2.5,11.5 L2.803109,11.675 A0.35,0.35,0,0,1,2.727495,11.765981 z" fill="#83CF39" stroke="none"/>
<circle cx="2.5" cy="11.5" fill="transparent" r="0.35" stroke="red" stroke-width="0.025"/>
</g>
<g opacity="0.3">
<path d="M2.5,12.475 L2.5,12.125 A0.35,0.35,0,0,1,2.8356104,12.375674 z" fill="#1B49DD" stroke="none"/>
<path d="M2.5,12.475 L2.8356104,12.375674 A0.35,0.35,0,0,1,2.8452408,12.532522 z" fill="#009933" stroke="none"/>
<path d="M2.5,12.475 L2.8452408,12.532522 A0.35,0.35,0,0,1,2.803109,12.65 z" fill="#231977" stroke="none"/>
<circle cx="2.5" cy="12.475" fill="transparent" r="0.35" stroke="red" stroke-width="0.025"/>
</g>
<g opacity="0.3">
<path d="M3.525,7.475 L3.525,7.125 A0.35,0.35,0,0,1,3.8404415,7.626647 z" fill="#EE2020" stroke="none"/>
<path d="M3.525,7.475 L3.8404415,7.626647 A0.35,0.35,0,0,1,3.4368076,7.8137064 z" fill="#DDDD00" stroke="none"/>
<path d="M3.525,7.475 L3.4368076,7.8137064 A0.35,0.35,0,0,1,3.297505,7.740981 z" fill="#AF0000" stroke="none"/>
<path d="M3.525,7.475 L3.297505,7.740981 A0.35,0.35,0,0,1,3.204062,7.614638 z" fill="#009933" stroke="none"/>
<circle cx="3.525" cy="7.475" fill="transparent" r="0.35" stroke="green" stroke-width="0.025"/>
</g>
<g opacity="0.3">
<path d="M3.5,8.5 L3.5,8.15 A0.35,0.35,0,0,1,3.8434746,8.432731 z" fill="#DDDD00" stroke="none"/>
<path d="M3.5,8.5 L3.8434746,8.432731 A0.35,0.35,0,0,1,3.661978,8.810263 z" fill="#1B49DD" stroke="none"/>
<path d="M3.5,8.5 L3.661978,8.810263 A0.35,0.35,0,0,1,3.542818,8.847371 z" fill="#231977" stroke="none"/>
<circle cx="3.5" cy="8.5" fill="transparent" r="0.35" stroke="red" stroke-width="0.025"/>
</g>
<g opacity="0.3">
<path d="M3.45,9.45 L3.45,9.1 A0.35,0.35,0,0,1,3.7934747,9.3827305 z" fill="#DDDD00" stroke="none"/>
<path d="M3.45,9.45 L3.7934747,9.3827305 A0.35,0.35,0,0,1,3.7882867,9.539789 z" fill="#009933" stroke="none"/>
<path d="M3.45,9.45 L3.7882867,9.539789 A0.35,0.35,0,0,1,3.7352755,9.652776 z" fill="#231977" stroke="none"/>
<path d="M3.45,9.45 L3.7352755,9.652776 A0.35,0.35,0,0,1,3.6514275,9.736229 z" fill="#83CF39" stroke="none"/>
<circle cx="3.45" cy="9.45" fill="transparent" r="0.35" stroke="red" stroke-width="0.025"/>
</g>
<g opacity="0.3">
<path d="M3.55,10.525 L3.55,10.175 A0.35,0.35,0,0,1,3.8856103,10.4256735 z" fill="#1B49DD" stroke="none"/>
<path d="M3.55,10.525 L3.8856103,10.4256735 A0.35,0.35,0,0,1,3.8952408,10.582522 z" fill="#AF0000" stroke="none"/>
<path d="M3.55,10.525 L3.8952408,10.582522 A0.35,0.35,0,0,1,3.853109,10.7 z" fill="#231977" stroke="none"/>
<path d="M3.55,10.525 L3.853109,10.7 A0.35,0.35,0,0,1,3.7774951,10.790981 z" fill="#83CF39" stroke="none"/>
<circle cx="3.55" cy="10.525" fill="transparent" r="0.35" stroke="red" stroke-width="0.025"/>
</g>
<g opacity="0.3">
<path d="M3.5,11.5 L3.5,11.15 A0.35,0.35,0,0,1,3.8356104,11.400674 z" fill="#1B49DD" stroke="none"/>
<path d="M3.5,11.5 L3.8356104,11.400674 A0.35,0.35,0,0,1,3.8452408,11.557523 z" fill="#AF0000" stroke="none"/>
<path d="M3.5,11.5 L3.8452408,11.557523 A0.35,0.35,0,0,1,3.803109,11.675 z" fill="#231977" stroke="none"/>
<circle cx="3.5" cy="11.5" fill="transparent" r="0.35" stroke="red" stroke-width="0.025"/>
</g>
<g opacity="0.3">
<path d="M3.45,12.525 L3.45,12.175 A0.35,0.35,0,0,1,3.7856104,12.4256735 z" fill="#1B49DD" stroke="none"/>
<path d="M3.45,12.525 L3.7856104,12.4256735 A0.35,0.35,0,0,1,3.7952406,12.582522 z" fill="#AF0000" stroke="none"/>
<path d="M3.45,12.525 L3.7952406,12.582522 A0.35,0.35,0,0,1,3.7352755,12.727776 z" fill="#009933" stroke="none"/>
<circle cx="3.45" cy="12.525" fill="transparent" r="0.35" stroke="red" stroke-width="0.025"/>
</g>
<g opacity="0.3">
<path d="M3.5,13.5 L3.5,13.15 A0.35,0.35,0,0,1,3.8356104,13.400674 z" fill="#1B49DD" stroke="none"/>
<path d="M3.5,13.5 L3.8356104,13.400674 A0.35,0.35,0,0,1,3.8452408,13.557523 z" fill="#AF0000" stroke="none"/>
<circle cx="3.5" cy="13.5" fill="transparent" r="0.35" stroke="red" stroke-width="0.025"/>
</g>
<g opacity="0.3">
<path d="M4.55,4.5 L4.55,4.15 A0.35,0.35,0,0,1,4.8934746,4.4327307 z" fill="#DDDD00" stroke="none"/>
<path d="M4.55,4.5 L4.8934746,4.4327307 A0.35,0.35,0,0,1,4.8882866,4.589789 z" fill="#009933" stroke="none"/>
<path d="M4.55,4.5 L4.8882866,4.589789 A0.35,0.35,0,0,1,4.839051,4.6973567 z" fill="#83CF39" stroke="none"/>
<circle cx="4.55" cy="4.5" fill="transparent" r="0.35" stroke="red" stroke-width="0.025"/>
</g>
<g opacity="0.3">
<path d="M4.525,5.475 L4.525,5.125 A0.35,0.35,0,0,1,4.8684745,5.4077306 z" fill="#DDDD00" stroke="none"/>
<path d="M4.525,5.475 L4.8684745,5.4077306 A0.35,0.35,0,0,1,4.863287,5.564789 z" fill="#AF0000" stroke="none"/>
<path d="M4.525,5.475 L4.863287,5.564789 A0.35,0.35,0,0,1,4.8140507,5.672357 z" fill="#83CF39" stroke="none"/>
<circle cx="4.525" cy="5.475" fill="transparent" r="0.35" stroke="red" stroke-width="0.025"/>
</g>
<g opacity="0.3">
<path d="M4.525,6.5 L4.525,6.15 A0.35,0.35,0,0,1,4.8684745,6.4327307 z" fill="#DDDD00" stroke="none"/>
<path d="M4.525,6.5 L4.8684745,6.4327307 A0.35,0.35,0,0,1,4.863287,6.589789 z" fill="#AF0000" stroke="none"/>
<path d="M4.525,6.5 L4.863287,6.589789 A0.35,0.35,0,0,1,4.8102756,6.7027755 z" fill="#231977" stroke="none"/>
<circle cx="4.525" cy="6.5" fill="transparent" r="0.35" stroke="red" stroke-width="0.025"/>
</g>
<g opacity="0.3">
<path d="M4.525,7.475 L4.525,7.125 A0.35,0.35,0,0,1,4.840441,7.626647 z" fill="#EE2020" stroke="none"/>
<path d="M4.525,7.475 L4.840441,7.626647 A0.35,0.35,0,0,1,4.4368076,7.8137064 z" fill="#DDDD00" stroke="none"/>
<path d="M4.525,7.475 L4.4368076,7.8137064 A0.35,0.35,0,0,1,4.297505,7.740981 z" fill="#AF0000" stroke="none"/>
<path d="M4.525,7.475 L4.297505,7.740981 A0.35,0.35,0,0,1,4.204062,7.614638 z" fill="#009933" stroke="none"/>
<path d="M4.525,7.475 L4.204062,7.614638 A0.35,0.35,0,0,1,4.175471,7.4931526 z" fill="#231977" stroke="none"/>
<circle cx="4.525" cy="7.475" fill="transparent" r="0.35" stroke="green" stroke-width="0.025"/>
</g>
<g>
<path d="M4.5,8.45 L4.5,8.1 A0.35,0.35,0,0,1,4.843475,8.3827305 z" fill="#DDDD00" stroke="none"/>
<path d="M4.5,8.45 L4.843475,8.3827305 A0.35,0.35,0,0,1,4.6619782,8.760263 z" fill="#1B49DD" stroke="none"/>
<path d="M4.5,8.45 L4.6619782,8.760263 A0.35,0.35,0,0,1,4.5099044,8.79986 z" fill="#AF0000" stroke="none"/>
<path d="M4.5,8.45 L4.5099044,8.79986 A0.35,0.35,0,0,1,4.3865194,8.781093 z" fill="#231977" stroke="none"/>
<circle cx="4.5" cy="8.45" fill="transparent" r="0.35" stroke="white" stroke-width="0.025"/>
</g>
<g opacity="0.3">
<path d="M4.575,9.55 L4.575,9.2 A0.35,0.35,0,0,1,4.8904414,9.701647 z" fill="#EE2020" stroke="none"/>
<path d="M4.575,9.55 L4.8904414,9.701647 A0.35,0.35,0,0,1,4.519107,9.895508 z" fill="#1B49DD" stroke="none"/>
<path d="M4.575,9.55 L4.519107,9.895508 A0.35,0.35,0,0,1,4.373573,9.836229 z" fill="#AF0000" stroke="none"/>
<path d="M4.575,9.55 L4.373573,9.836229 A0.35,0.35,0,0,1,4.2686434,9.71925 z" fill="#009933" stroke="none"/>
<path d="M4.575,9.55 L4.2686434,9.71925 A0.35,0.35,0,0,1,4.229759,9.607522 z" fill="#83CF39" stroke="none"/>
<circle cx="4.574999999999999" cy="9.55" fill="transparent" r="0.35" stroke="green" stroke-width="0.025"/>
</g>
<g opacity="0.3">
<path d="M4.525,10.5 L4.525,10.15 A0.35,0.35,0,0,1,4.840441,10.651647 z" fill="#EE2020" stroke="none"/>
<path d="M4.525,10.5 L4.840441,10.651647 A0.35,0.35,0,0,1,4.4691067,10.845509 z" fill="#1B49DD" stroke="none"/>
<path d="M4.525,10.5 L4.4691067,10.845509 A0.35,0.35,0,0,1,4.3235726,10.786229 z" fill="#AF0000" stroke="none"/>
<path d="M4.525,10.5 L4.3235726,10.786229 A0.35,0.35,0,0,1,4.2397246,10.702775 z" fill="#83CF39" stroke="none"/>
<circle cx="4.525" cy="10.5" fill="transparent" r="0.35" stroke="green" stroke-width="0.025"/>
</g>
<g opacity="0.3">
<path d="M4.525,11.5 L4.525,11.15 A0.35,0.35,0,0,1,4.840441,11.651647 z" fill="#EE2020" stroke="none"/>
<path d="M4.525,11.5 L4.840441,11.651647 A0.35,0.35,0,0,1,4.4691067,11.845509 z" fill="#1B49DD" stroke="none"/>
<path d="M4.525,11.5 L4.4691067,11.845509 A0.35,0.35,0,0,1,4.357197,11.807152 z" fill="#83CF39" stroke="none"/>
<circle cx="4.525" cy="11.5" fill="transparent" r="0.35" stroke="green" stroke-width="0.025"/>
</g>
<g opacity="0.3">
<path d="M4.475,12.5 L4.475,12.15 A0.35,0.35,0,0,1,4.8106103,12.400674 z" fill="#1B49DD" stroke="none"/>
<path d="M4.475,12.5 L4.8106103,12.400674 A0.35,0.35,0,0,1,4.824529,12.518152 z" fill="#83CF39" stroke="none"/>
<circle cx="4.475" cy="12.5" fill="transparent" r="0.35" stroke="red" stroke-width="0.025"/>
</g>
<g opacity="0.3">
<path d="M5.5,2.525 L5.5,2.175 A0.35,0.35,0,0,1,5.8356104,2.4256737 z" fill="#1B49DD" stroke="none"/>
<path d="M5.5,2.525 L5.8356104,2.4256737 A0.35,0.35,0,0,1,5.8452406,2.5825224 z" fill="#009933" stroke="none"/>
<path d="M5.5,2.525 L5.8452406,2.5825224 A0.35,0.35,0,0,1,5.806357,2.69425 z" fill="#83CF39" stroke="none"/>
<circle cx="5.5" cy="2.525" fill="transparent" r="0.35" stroke="red" stroke-width="0.025"/>
</g>
<g opacity="0.3">
<path d="M5.575,3.475 L5.575,3.125 A0.35,0.35,0,0,1,5.8904414,3.6266468 z" fill="#EE2020" stroke="none"/>
<path d="M5.575,3.475 L5.8904414,3.6266468 A0.35,0.35,0,0,1,5.519107,3.8205082 z" fill="#1B49DD" stroke="none"/>
<path d="M5.575,3.475 L5.519107,3.8205082 A0.35,0.35,0,0,1,5.373573,3.761229 z" fill="#009933" stroke="none"/>
<path d="M5.575,3.475 L5.373573,3.761229 A0.35,0.35,0,0,1,5.2897243,3.6777754 z" fill="#83CF39" stroke="none"/>
<circle cx="5.574999999999999" cy="3.475" fill="transparent" r="0.35" stroke="green" stroke-width="0.025"/>
</g>
<g>
<path d="M5.5,4.5 L5.5,4.15 A0.35,0.35,0,0,1,5.843475,4.4327307 z" fill="#DDDD00" stroke="none"/>
<path d="M5.5,4.5 L5.843475,4.4327307 A0.35,0.35,0,0,1,5.6619782,4.810263 z" fill="#1B49DD" stroke="none"/>
<path d="M5.5,4.5 L5.6619782,4.810263 A0.35,0.35,0,0,1,5.5099044,4.8498597 z" fill="#009933" stroke="none"/>
<path d="M5.5,4.5 L5.5099044,4.8498597 A0.35,0.35,0,0,1,5.3927865,4.8331747 z" fill="#83CF39" stroke="none"/>
<circle cx="5.5" cy="4.5" fill="transparent" r="0.35" stroke="white" stroke-width="0.025"/>
</g>
<g opacity="0.3">
<path d="M5.475,5.5 L5.475,5.15 A0.35,0.35,0,0,1,5.818475,5.4327307 z" fill="#DDDD00" stroke="none"/>
<path d="M5.475,5.5 L5.818475,5.4327307 A0.35,0.35,0,0,1,5.813287,5.589789 z" fill="#AF0000" stroke="none"/>
<path d="M5.475,5.5 L5.813287,5.589789 A0.35,0.35,0,0,1,5.739905,5.7287474 z" fill="#009933" stroke="none"/>
<path d="M5.475,5.5 L5.739905,5.7287474 A0.35,0.35,0,0,1,5.648568,5.803931 z" fill="#83CF39" stroke="none"/>
<circle cx="5.475" cy="5.5" fill="transparent" r="0.35" stroke="red" stroke-width="0.025"/>
</g>
<g opacity="0.3">
<path d="M5.45,6.5 L5.45,6.15 A0.35,0.35,0,0,1,5.7934747,6.4327307 z" fill="#DDDD00" stroke="none"/>
<path d="M5.45,6.5 L5.7934747,6.4327307 A0.35,0.35,0,0,1,5.7882867,6.589789 z" fill="#AF0000" stroke="none"/>
<path d="M5.45,6.5 L5.7882867,6.589789 A0.35,0.35,0,0,1,5.7352757,6.7027755 z" fill="#231977" stroke="none"/>
<path d="M5.45,6.5 L5.7352757,6.7027755 A0.35,0.35,0,0,1,5.6514273,6.786229 z" fill="#83CF39" stroke="none"/>
<circle cx="5.45" cy="6.5" fill="transparent" r="0.35" stroke="red" stroke-width="0.025"/>
</g>
<g opacity="0.3">
<path d="M5.5,7.475 L5.5,7.125 A0.35,0.35,0,0,1,5.815441,7.626647 z" fill="#EE2020" stroke="none"/>
<path d="M5.5,7.475 L5.815441,7.626647 A0.35,0.35,0,0,1,5.4118075,7.8137064 z" fill="#DDDD00" stroke="none"/>
<path d="M5.5,7.475 L5.4118075,7.8137064 A0.35,0.35,0,0,1,5.272505,7.740981 z" fill="#AF0000" stroke="none"/>
<path d="M5.5,7.475 L5.272505,7.740981 A0.35,0.35,0,0,1,5.179062,7.614638 z" fill="#009933" stroke="none"/>
<path d="M5.5,7.475 L5.179062,7.614638 A0.35,0.35,0,0,1,5.150471,7.4931526 z" fill="#231977" stroke="none"/>
<path d="M5.5,7.475 L5.150471,7.4931526 A0.35,0.35,0,0,1,5.1643896,7.375674 z" fill="#83CF39" stroke="none"/>
<circle cx="5.5" cy="7.475" fill="transparent" r="0.35" stroke="green" stroke-width="0.025"/>
</g>
<g opacity="0.3">
<path d="M5.475,8.475 L5.475,8.125 A0.35,0.35,0,0,1,5.818475,8.407731 z" fill="#DDDD00" stroke="none"/>
<path d="M5.475,8.475 L5.818475,8.407731 A0.35,0.35,0,0,1,5.636978,8.785263 z" fill="#1B49DD" stroke="none"/>
<path d="M5.475,8.475 L5.636978,8.785263 A0.35,0.35,0,0,1,5.484905,8.82486 z" fill="#AF0000" stroke="none"/>
<path d="M5.475,8.475 L5.484905,8.82486 A0.35,0.35,0,0,1,5.3615193,8.806092 z" fill="#231977" stroke="none"/>
<path d="M5.475,8.475 L5.3615193,8.806092 A0.35,0.35,0,0,1,5.257702,8.749374 z" fill="#83CF39" stroke="none"/>
<circle cx="5.475" cy="8.475" fill="transparent" r="0.35" stroke="green" stroke-width="0.025"/>
</g>
<g opacity="0.3">
<path d="M5.55,9.55 L5.55,9.2 A0.35,0.35,0,0,1,5.8654413,9.701647 z" fill="#EE2020" stroke="none"/>
<path d="M5.55,9.55 L5.8654413,9.701647 A0.35,0.35,0,0,1,5.494107,9.895508 z" fill="#1B49DD" stroke="none"/>
<path d="M5.55,9.55 L5.494107,9.895508 A0.35,0.35,0,0,1,5.3485727,9.836229 z" fill="#009933" stroke="none"/>
<path d="M5.55,9.55 L5.3485727,9.836229 A0.35,0.35,0,0,1,5.260949,9.747356 z" fill="#231977" stroke="none"/>
<path d="M5.55,9.55 L5.260949,9.747356 A0.35,0.35,0,0,1,5.2117133,9.639789 z" fill="#83CF39" stroke="none"/>
<circle cx="5.55" cy="9.55" fill="transparent" r="0.35" stroke="green" stroke-width="0.025"/>
</g>
<g opacity="0.3">
<path d="M5.55,10.5 L5.55,10.15 A0.35,0.35,0,0,1,5.8654413,10.651647 z" fill="#EE2020" stroke="none"/>
<path d="M5.55,10.5 L5.8654413,10.651647 A0.35,0.35,0,0,1,5.494107,10.845509 z" fill="#1B49DD" stroke="none"/>
<path d="M5.55,10.5 L5.494107,10.845509 A0.35,0.35,0,0,1,5.3485727,10.786229 z" fill="#009933" stroke="none"/>
<path d="M5.55,10.5 L5.3485727,10.786229 A0.35,0.35,0,0,1,5.260949,10.697357 z" fill="#231977" stroke="none"/>
<circle cx="5.55" cy="10.5" fill="transparent" r="0.35" stroke="green" stroke-width="0.025"/>
</g>
<g opacity="0.3">
<path d="M5.475,11.5 L5.475,11.15 A0.35,0.35,0,0,1,5.7904415,11.651647 z" fill="#EE2020" stroke="none"/>
<path d="M5.475,11.5 L5.7904415,11.651647 A0.35,0.35,0,0,1,5.419107,11.845509 z" fill="#1B49DD" stroke="none"/>
<path d="M5.475,11.5 L5.419107,11.845509 A0.35,0.35,0,0,1,5.2735724,11.786229 z" fill="#009933" stroke="none"/>
<circle cx="5.475" cy="11.5" fill="transparent" r="0.35" stroke="green" stroke-width="0.025"/>
</g>
<g opacity="0.3">
<path d="M5.475,12.5 L5.475,12.15 A0.35,0.35,0,0,1,5.8106103,12.400674 z" fill="#1B49DD" stroke="none"/>
<path d="M5.475,12.5 L5.8106103,12.400674 A0.35,0.35,0,0,1,5.820241,12.557523 z" fill="#009933" stroke="none"/>
<circle cx="5.475" cy="12.5" fill="transparent" r="0.35" stroke="red" stroke-width="0.025"/>
</g>
<g opacity="0.3">
<path d="M6.475,1.5 L6.475,1.15 A0.35,0.35,0,0,1,6.7904415,1.6516467 z" fill="#EE2020" stroke="none"/>
<circle cx="6.475" cy="1.5" fill="transparent" r="0.35" stroke="red" stroke-width="0.025"/>
</g>
<g>
<path d="M6.575,2.5 L6.575,2.15 A0.35,0.35,0,0,1,6.8904414,2.6516469 z" fill="#EE2020" stroke="none"/>
<path d="M6.575,2.5 L6.8904414,2.6516469 A0.35,0.35,0,0,1,6.486808,2.8387065 z" fill="#DDDD00" stroke="none"/>
<circle cx="6.575" cy="2.5" fill="transparent" r="0.35" stroke="white" stroke-width="0.025"/>
</g>
<g opacity="0.3">
<path d="M6.575,3.5 L6.575,3.15 A0.35,0.35,0,0,1,6.8904414,3.6516469 z" fill="#EE2020" stroke="none"/>
<path d="M6.575,3.5 L6.8904414,3.6516469 A0.35,0.35,0,0,1,6.486808,3.8387065 z" fill="#DDDD00" stroke="none"/>
<path d="M6.575,3.5 L6.486808,3.8387065 A0.35,0.35,0,0,1,6.2251906,3.5115547 z" fill="#1B49DD" stroke="none"/>
<circle cx="6.575" cy="3.5" fill="transparent" r="0.35" stroke="green" stroke-width="0.025"/>
</g>
<g opacity="0.3">
<path d="M6.55,4.5 L6.55,4.15 A0.35,0.35,0,0,1,6.8654413,4.6516466 z" fill="#EE2020" stroke="none"/>
<path d="M6.55,4.5 L6.8654413,4.6516466 A0.35,0.35,0,0,1,6.4618077,4.8387065 z" fill="#DDDD00" stroke="none"/>
<path d="M6.55,4.5 L6.4618077,4.8387065 A0.35,0.35,0,0,1,6.200191,4.5115547 z" fill="#1B49DD" stroke="none"/>
<path d="M6.55,4.5 L6.200191,4.5115547 A0.35,0.35,0,0,1,6.2303934,4.357341 z" fill="#AF0000" stroke="none"/>
<circle cx="6.55" cy="4.5" fill="transparent" r="0.35" stroke="green" stroke-width="0.025"/>
</g>
<g opacity="0.3">
<path d="M6.525,5.5 L6.525,5.15 A0.35,0.35,0,0,1,6.840441,5.6516466 z" fill="#EE2020" stroke="none"/>
<path d="M6.525,5.5 L6.840441,5.6516466 A0.35,0.35,0,0,1,6.4368076,5.8387065 z" fill="#DDDD00" stroke="none"/>
<path d="M6.525,5.5 L6.4368076,5.8387065 A0.35,0.35,0,0,1,6.175191,5.5115547 z" fill="#1B49DD" stroke="none"/>
<path d="M6.525,5.5 L6.175191,5.5115547 A0.35,0.35,0,0,1,6.2053933,5.357341 z" fill="#AF0000" stroke="none"/>
<path d="M6.525,5.5 L6.2053933,5.357341 A0.35,0.35,0,0,1,6.3000245,5.2318845 z" fill="#009933" stroke="none"/>
<circle cx="6.525" cy="5.5" fill="transparent" r="0.35" stroke="green" stroke-width="0.025"/>
</g>
<g opacity="0.3">
<path d="M6.525,6.5 L6.525,6.15 A0.35,0.35,0,0,1,6.840441,6.6516466 z" fill="#EE2020" stroke="none"/>
<path d="M6.525,6.5 L6.840441,6.6516466 A0.35,0.35,0,0,1,6.4368076,6.8387065 z" fill="#DDDD00" stroke="none"/>
<path d="M6.525,6.5 L6.4368076,6.8387065 A0.35,0.35,0,0,1,6.175191,6.5115547 z" fill="#1B49DD" stroke="none"/>
<path d="M6.525,6.5 L6.175191,6.5115547 A0.35,0.35,0,0,1,6.2053933,6.357341 z" fill="#AF0000" stroke="none"/>
<path d="M6.525,6.5 L6.2053933,6.357341 A0.35,0.35,0,0,1,6.3000245,6.2318845 z" fill="#009933" stroke="none"/>
<path d="M6.525,6.5 L6.3000245,6.2318845 A0.35,0.35,0,0,1,6.408401,6.169993 z" fill="#231977" stroke="none"/>
<circle cx="6.525" cy="6.5" fill="transparent" r="0.35" stroke="green" stroke-width="0.025"/>
</g>
<g opacity="0.3">
<path d="M6.5,7.5 L6.5,7.15 A0.35,0.35,0,0,1,6.815441,7.6516466 z" fill="#EE2020" stroke="none"/>
<path d="M6.5,7.5 L6.815441,7.6516466 A0.35,0.35,0,0,1,6.4118075,7.8387065 z" fill="#DDDD00" stroke="none"/>
<path d="M6.5,7.5 L6.4118075,7.8387065 A0.35,0.35,0,0,1,6.150191,7.5115547 z" fill="#1B49DD" stroke="none"/>
<path d="M6.5,7.5 L6.150191,7.5115547 A0.35,0.35,0,0,1,6.1803937,7.357341 z" fill="#AF0000" stroke="none"/>
<path d="M6.5,7.5 L6.1803937,7.357341 A0.35,0.35,0,0,1,6.2750244,7.2318845 z" fill="#009933" stroke="none"/>
<path d="M6.5,7.5 L6.2750244,7.2318845 A0.35,0.35,0,0,1,6.383401,7.169993 z" fill="#231977" stroke="none"/>
<path d="M6.5,7.5 L6.383401,7.169993 A0.35,0.35,0,0,1,6.5,7.15 z" fill="#83CF39" stroke="none"/>
<circle cx="6.5" cy="7.5" fill="transparent" r="0.35" stroke="green" stroke-width="0.025"/>
</g>
<g opacity="0.3">
<path d="M6.55,8.5 L6.55,8.15 A0.35,0.35,0,0,1,6.8654413,8.651647 z" fill="#EE2020" stroke="none"/>
<path d="M6.55,8.5 L6.8654413,8.651647 A0.35,0.35,0,0,1,6.494107,8.845509 z" fill="#1B49DD" stroke="none"/>
<path d="M6.55,8.5 L6.494107,8.845509 A0.35,0.35,0,0,1,6.3485727,8.786229 z" fill="#AF0000" stroke="none"/>
<path d="M6.55,8.5 L6.3485727,8.786229 A0.35,0.35,0,0,1,6.2436433,8.66925 z" fill="#009933" stroke="none"/>
<path d="M6.55,8.5 L6.2436433,8.66925 A0.35,0.35,0,0,1,6.2037354,8.550999 z" fill="#231977" stroke="none"/>
<path d="M6.55,8.5 L6.2037354,8.550999 A0.35,0.35,0,0,1,6.2065253,8.432731 z" fill="#83CF39" stroke="none"/>
<circle cx="6.55" cy="8.5" fill="transparent" r="0.35" stroke="green" stroke-width="0.025"/>
</g>
<g opacity="0.3">
<path d="M6.5,9.5 L6.5,9.15 A0.35,0.35,0,0,1,6.815441,9.651647 z" fill="#EE2020" stroke="none"/>
<path d="M6.5,9.5 L6.815441,9.651647 A0.35,0.35,0,0,1,6.4441066,9.845509 z" fill="#1B49DD" stroke="none"/>
<path d="M6.5,9.5 L6.4441066,9.845509 A0.35,0.35,0,0,1,6.2985725,9.786229 z" fill="#AF0000" stroke="none"/>
<path d="M6.5,9.5 L6.2985725,9.786229 A0.35,0.35,0,0,1,6.193643,9.66925 z" fill="#009933" stroke="none"/>
<path d="M6.5,9.5 L6.193643,9.66925 A0.35,0.35,0,0,1,6.1537356,9.550999 z" fill="#231977" stroke="none"/>
<circle cx="6.5" cy="9.5" fill="transparent" r="0.35" stroke="green" stroke-width="0.025"/>
</g>
<g opacity="0.3">
<path d="M6.475,10.5 L6.475,10.15 A0.35,0.35,0,0,1,6.7904415,10.651647 z" fill="#EE2020" stroke="none"/>
<path d="M6.475,10.5 L6.7904415,10.651647 A0.35,0.35,0,0,1,6.419107,10.845509 z" fill="#1B49DD" stroke="none"/>
<path d="M6.475,10.5 L6.419107,10.845509 A0.35,0.35,0,0,1,6.2735724,10.786229 z" fill="#AF0000" stroke="none"/>
<path d="M6.475,10.5 L6.2735724,10.786229 A0.35,0.35,0,0,1,6.1686435,10.66925 z" fill="#009933" stroke="none"/>
<circle cx="6.475" cy="10.5" fill="transparent" r="0.35" stroke="green" stroke-width="0.025"/>
</g>
<g opacity="0.3">
<path d="M6.45,11.5 L6.45,11.15 A0.35,0.35,0,0,1,6.7654414,11.651647 z" fill="#EE2020" stroke="none"/>
<path d="M6.45,11.5 L6.7654414,11.651647 A0.35,0.35,0,0,1,6.394107,11.845509 z" fill="#1B49DD" stroke="none"/>
<path d="M6.45,11.5 L6.394107,11.845509 A0.35,0.35,0,0,1,6.248573,11.786229 z" fill="#AF0000" stroke="none"/>
<circle cx="6.45" cy="11.5" fill="transparent" r="0.35" stroke="green" stroke-width="0.025"/>
</g>
<g>
<path d="M6.475,12.5 L6.475,12.15 A0.35,0.35,0,0,1,6.7904415,12.651647 z" fill="#EE2020" stroke="none"/>
<path d="M6.475,12.5 L6.7904415,12.651647 A0.35,0.35,0,0,1,6.419107,12.845509 z" fill="#1B49DD" stroke="none"/>
<circle cx="6.475" cy="12.5" fill="transparent" r="0.35" stroke="white" stroke-width="0.025"/>
</g>
<g opacity="0.3">
<path d="M6.475,13.5 L6.475,13.15 A0.35,0.35,0,0,1,6.8106103,13.400674 z" fill="#1B49DD" stroke="none"/>
<circle cx="6.475" cy="13.5" fill="transparent" r="0.35" stroke="red" stroke-width="0.025"/>
</g>
<g opacity="0.3">
<path d="M7.5,1.5 L7.5,1.15 A0.35,0.35,0,0,1,7.653133,1.1852775 z" fill="#009933" stroke="none"/>
<circle cx="7.5" cy="1.5" fill="transparent" r="0.35" stroke="red" stroke-width="0.025"/>
</g>
<g opacity="0.3">
<path d="M7.525,2.5 L7.525,2.15 A0.35,0.35,0,0,1,7.840441,2.6516469 z" fill="#EE2020" stroke="none"/>
<path d="M7.525,2.5 L7.840441,2.6516469 A0.35,0.35,0,0,1,7.742298,2.7743747 z" fill="#009933" stroke="none"/>
<circle cx="7.525" cy="2.5" fill="transparent" r="0.35" stroke="red" stroke-width="0.025"/>
</g>
<g opacity="0.3">
<path d="M7.525,3.5 L7.525,3.15 A0.35,0.35,0,0,1,7.840441,3.6516469 z" fill="#EE2020" stroke="none"/>
<path d="M7.525,3.5 L7.840441,3.6516469 A0.35,0.35,0,0,1,7.4368076,3.8387065 z" fill="#DDDD00" stroke="none"/>
<path d="M7.525,3.5 L7.4368076,3.8387065 A0.35,0.35,0,0,1,7.297505,3.7659812 z" fill="#009933" stroke="none"/>
<circle cx="7.525" cy="3.5" fill="transparent" r="0.35" stroke="green" stroke-width="0.025"/>
</g>
<g opacity="0.3">
<path d="M7.525,4.5 L7.525,4.15 A0.35,0.35,0,0,1,7.840441,4.6516466 z" fill="#EE2020" stroke="none"/>
<path d="M7.525,4.5 L7.840441,4.6516466 A0.35,0.35,0,0,1,7.4368076,4.8387065 z" fill="#DDDD00" stroke="none"/>
<path d="M7.525,4.5 L7.4368076,4.8387065 A0.35,0.35,0,0,1,7.175191,4.5115547 z" fill="#1B49DD" stroke="none"/>
<path d="M7.525,4.5 L7.175191,4.5115547 A0.35,0.35,0,0,1,7.2053933,4.357341 z" fill="#009933" stroke="none"/>
<circle cx="7.525" cy="4.5" fill="transparent" r="0.35" stroke="green" stroke-width="0.025"/>
</g>
<g opacity="0.3">
<path d="M7.5,5.5 L7.5,5.15 A0.35,0.35,0,0,1,7.815441,5.6516466 z" fill="#EE2020" stroke="none"/>
<path d="M7.5,5.5 L7.815441,5.6516466 A0.35,0.35,0,0,1,7.4118075,5.8387065 z" fill="#DDDD00" stroke="none"/>
<path d="M7.5,5.5 L7.4118075,5.8387065 A0.35,0.35,0,0,1,7.150191,5.5115547 z" fill="#1B49DD" stroke="none"/>
<path d="M7.5,5.5 L7.150191,5.5115547 A0.35,0.35,0,0,1,7.1803937,5.357341 z" fill="#009933" stroke="none"/>
<path d="M7.5,5.5 L7.1803937,5.357341 A0.35,0.35,0,0,1,7.2507677,5.25427 z" fill="#231977" stroke="none"/>
<circle cx="7.5" cy="5.5" fill="transparent" r="0.35" stroke="green" stroke-width="0.025"/>
</g>
<g opacity="0.3">
<path d="M7.5,6.475 L7.5,6.125 A0.35,0.35,0,0,1,7.815441,6.626647 z" fill="#EE2020" stroke="none"/>
<path d="M7.5,6.475 L7.815441,6.626647 A0.35,0.35,0,0,1,7.4118075,6.8137064 z" fill="#DDDD00" stroke="none"/>
<path d="M7.5,6.475 L7.4118075,6.8137064 A0.35,0.35,0,0,1,7.150191,6.4865546 z" fill="#1B49DD" stroke="none"/>
<path d="M7.5,6.475 L7.150191,6.4865546 A0.35,0.35,0,0,1,7.1803937,6.3323407 z" fill="#009933" stroke="none"/>
<path d="M7.5,6.475 L7.1803937,6.3323407 A0.35,0.35,0,0,1,7.2507677,6.22927 z" fill="#231977" stroke="none"/>
<path d="M7.5,6.475 L7.2507677,6.22927 A0.35,0.35,0,0,1,7.346867,6.1602774 z" fill="#83CF39" stroke="none"/>
<circle cx="7.5" cy="6.475" fill="transparent" r="0.35" stroke="green" stroke-width="0.025"/>
</g>
<g opacity="0.3">
<path d="M7.5,7.475 L7.5,7.125 A0.35,0.35,0,0,1,7.843475,7.4077306 z" fill="#DDDD00" stroke="none"/>
<path d="M7.5,7.475 L7.843475,7.4077306 A0.35,0.35,0,0,1,7.6619782,7.785263 z" fill="#1B49DD" stroke="none"/>
<path d="M7.5,7.475 L7.6619782,7.785263 A0.35,0.35,0,0,1,7.5099044,7.8248596 z" fill="#AF0000" stroke="none"/>
<path d="M7.5,7.475 L7.5099044,7.8248596 A0.35,0.35,0,0,1,7.3558345,7.79393 z" fill="#009933" stroke="none"/>
<path d="M7.5,7.475 L7.3558345,7.79393 A0.35,0.35,0,0,1,7.253097,7.7230706 z" fill="#231977" stroke="none"/>
<path d="M7.5,7.475 L7.253097,7.7230706 A0.35,0.35,0,0,1,7.184559,7.626647 z" fill="#83CF39" stroke="none"/>
<circle cx="7.5" cy="7.475" fill="transparent" r="0.35" stroke="green" stroke-width="0.025"/>
</g>
<g opacity="0.3">
<path d="M7.525,8.475 L7.525,8.125 A0.35,0.35,0,0,1,7.840441,8.626647 z" fill="#EE2020" stroke="none"/>
<path d="M7.525,8.475 L7.840441,8.626647 A0.35,0.35,0,0,1,7.4368076,8.813706 z" fill="#DDDD00" stroke="none"/>
<path d="M7.525,8.475 L7.4368076,8.813706 A0.35,0.35,0,0,1,7.175191,8.486555 z" fill="#1B49DD" stroke="none"/>
<path d="M7.525,8.475 L7.175191,8.486555 A0.35,0.35,0,0,1,7.2053933,8.33234 z" fill="#AF0000" stroke="none"/>
<path d="M7.525,8.475 L7.2053933,8.33234 A0.35,0.35,0,0,1,7.3000245,8.206884 z" fill="#009933" stroke="none"/>
<path d="M7.525,8.475 L7.3000245,8.206884 A0.35,0.35,0,0,1,7.4021955,8.147251 z" fill="#83CF39" stroke="none"/>
<circle cx="7.525" cy="8.475" fill="transparent" r="0.35" stroke="green" stroke-width="0.025"/>
</g>
<g opacity="0.3">
<path d="M7.525,9.475 L7.525,9.125 A0.35,0.35,0,0,1,7.840441,9.626647 z" fill="#EE2020" stroke="none"/>
<path d="M7.525,9.475 L7.840441,9.626647 A0.35,0.35,0,0,1,7.4368076,9.813706 z" fill="#DDDD00" stroke="none"/>
<path d="M7.525,9.475 L7.4368076,9.813706 A0.35,0.35,0,0,1,7.175191,9.486555 z" fill="#1B49DD" stroke="none"/>
<path d="M7.525,9.475 L7.175191,9.486555 A0.35,0.35,0,0,1,7.2053933,9.33234 z" fill="#AF0000" stroke="none"/>
<path d="M7.525,9.475 L7.2053933,9.33234 A0.35,0.35,0,0,1,7.271176,9.234016 z" fill="#83CF39" stroke="none"/>
<circle cx="7.525" cy="9.475" fill="transparent" r="0.35" stroke="green" stroke-width="0.025"/>
</g>
<g opacity="0.3">
<path d="M7.475,10.5 L7.475,10.15 A0.35,0.35,0,0,1,7.7904415,10.651647 z" fill="#EE2020" stroke="none"/>
<path d="M7.475,10.5 L7.7904415,10.651647 A0.35,0.35,0,0,1,7.3868074,10.838707 z" fill="#DDDD00" stroke="none"/>
<path d="M7.475,10.5 L7.3868074,10.838707 A0.35,0.35,0,0,1,7.1251907,10.511555 z" fill="#1B49DD" stroke="none"/>
<path d="M7.475,10.5 L7.1251907,10.511555 A0.35,0.35,0,0,1,7.1413236,10.39436 z" fill="#83CF39" stroke="none"/>
<circle cx="7.475" cy="10.5" fill="transparent" r="0.35" stroke="green" stroke-width="0.025"/>
</g>
<g opacity="0.3">
<path d="M7.475,11.5 L7.475,11.15 A0.35,0.35,0,0,1,7.7904415,11.651647 z" fill="#EE2020" stroke="none"/>
<path d="M7.475,11.5 L7.7904415,11.651647 A0.35,0.35,0,0,1,7.3868074,11.838707 z" fill="#DDDD00" stroke="none"/>
<path d="M7.475,11.5 L7.3868074,11.838707 A0.35,0.35,0,0,1,7.279009,11.789978 z" fill="#83CF39" stroke="none"/>
<circle cx="7.475" cy="11.5" fill="transparent" r="0.35" stroke="green" stroke-width="0.025"/>
</g>
<g opacity="0.3">
<path d="M7.45,12.5 L7.45,12.15 A0.35,0.35,0,0,1,7.7654414,12.651647 z" fill="#EE2020" stroke="none"/>
<path d="M7.45,12.5 L7.7654414,12.651647 A0.35,0.35,0,0,1,7.6969028,12.748071 z" fill="#83CF39" stroke="none"/>
<circle cx="7.45" cy="12.5" fill="transparent" r="0.35" stroke="red" stroke-width="0.025"/>
</g>
<g opacity="0.3">
<path d="M7.525,13.5 L7.525,13.15 A0.35,0.35,0,0,1,7.6415987,13.169992 z" fill="#83CF39" stroke="none"/>
<circle cx="7.525" cy="13.5" fill="transparent" r="0.35" stroke="red" stroke-width="0.025"/>
</g>
<g opacity="0.3">
<path d="M8.5,1.5 L8.5,1.15 A0.35,0.35,0,0,1,8.622805,1.1722516 z" fill="#231977" stroke="none"/>
<circle cx="8.5" cy="1.5" fill="transparent" r="0.35" stroke="red" stroke-width="0.025"/>
</g>
<g opacity="0.3">
<path d="M8.5,2.5 L8.5,2.15 A0.35,0.35,0,0,1,8.815441,2.6516469 z" fill="#EE2020" stroke="none"/>
<path d="M8.5,2.5 L8.815441,2.6516469 A0.35,0.35,0,0,1,8.742179,2.7526846 z" fill="#231977" stroke="none"/>
<circle cx="8.5" cy="2.5" fill="transparent" r="0.35" stroke="red" stroke-width="0.025"/>
</g>
<g opacity="0.3">
<path d="M8.5,3.5 L8.5,3.15 A0.35,0.35,0,0,1,8.815441,3.6516469 z" fill="#EE2020" stroke="none"/>
<path d="M8.5,3.5 L8.815441,3.6516469 A0.35,0.35,0,0,1,8.411808,3.8387065 z" fill="#DDDD00" stroke="none"/>
<path d="M8.5,3.5 L8.411808,3.8387065 A0.35,0.35,0,0,1,8.298573,3.786229 z" fill="#231977" stroke="none"/>
<circle cx="8.5" cy="3.5" fill="transparent" r="0.35" stroke="green" stroke-width="0.025"/>
</g>
<g opacity="0.3">
<path d="M8.5,4.5 L8.5,4.15 A0.35,0.35,0,0,1,8.815441,4.6516466 z" fill="#EE2020" stroke="none"/>
<path d="M8.5,4.5 L8.815441,4.6516466 A0.35,0.35,0,0,1,8.411808,4.8387065 z" fill="#DDDD00" stroke="none"/>
<path d="M8.5,4.5 L8.411808,4.8387065 A0.35,0.35,0,0,1,8.15019,4.5115547 z" fill="#1B49DD" stroke="none"/>
<path d="M8.5,4.5 L8.15019,4.5115547 A0.35,0.35,0,0,1,8.168376,4.3880825 z" fill="#231977" stroke="none"/>
<circle cx="8.5" cy="4.5" fill="transparent" r="0.35" stroke="green" stroke-width="0.025"/>
</g>
<g opacity="0.3">
<path d="M8.5,5.5 L8.5,5.15 A0.35,0.35,0,0,1,8.815441,5.6516466 z" fill="#EE2020" stroke="none"/>
<path d="M8.5,5.5 L8.815441,5.6516466 A0.35,0.35,0,0,1,8.411808,5.8387065 z" fill="#DDDD00" stroke="none"/>
<path d="M8.5,5.5 L8.411808,5.8387065 A0.35,0.35,0,0,1,8.15019,5.5115547 z" fill="#1B49DD" stroke="none"/>
<path d="M8.5,5.5 L8.15019,5.5115547 A0.35,0.35,0,0,1,8.180393,5.357341 z" fill="#AF0000" stroke="none"/>
<path d="M8.5,5.5 L8.180393,5.357341 A0.35,0.35,0,0,1,8.250768,5.25427 z" fill="#231977" stroke="none"/>
<circle cx="8.5" cy="5.5" fill="transparent" r="0.35" stroke="green" stroke-width="0.025"/>
</g>
<g opacity="0.3">
<path d="M8.525,6.475 L8.525,6.125 A0.35,0.35,0,0,1,8.840442,6.626647 z" fill="#EE2020" stroke="none"/>
<path d="M8.525,6.475 L8.840442,6.626647 A0.35,0.35,0,0,1,8.436808,6.8137064 z" fill="#DDDD00" stroke="none"/>
<path d="M8.525,6.475 L8.436808,6.8137064 A0.35,0.35,0,0,1,8.175191,6.4865546 z" fill="#1B49DD" stroke="none"/>
<path d="M8.525,6.475 L8.175191,6.4865546 A0.35,0.35,0,0,1,8.205394,6.3323407 z" fill="#AF0000" stroke="none"/>
<path d="M8.525,6.475 L8.205394,6.3323407 A0.35,0.35,0,0,1,8.275767,6.22927 z" fill="#231977" stroke="none"/>
<path d="M8.525,6.475 L8.275767,6.22927 A0.35,0.35,0,0,1,8.371867,6.1602774 z" fill="#83CF39" stroke="none"/>
<circle cx="8.525" cy="6.475" fill="transparent" r="0.35" stroke="green" stroke-width="0.025"/>
</g>
<g opacity="0.3">
<path d="M8.5,7.5 L8.5,7.15 A0.35,0.35,0,0,1,8.843474,7.4327307 z" fill="#DDDD00" stroke="none"/>
<path d="M8.5,7.5 L8.843474,7.4327307 A0.35,0.35,0,0,1,8.661978,7.810263 z" fill="#1B49DD" stroke="none"/>
<path d="M8.5,7.5 L8.661978,7.810263 A0.35,0.35,0,0,1,8.509905,7.8498597 z" fill="#AF0000" stroke="none"/>
<path d="M8.5,7.5 L8.509905,7.8498597 A0.35,0.35,0,0,1,8.355835,7.81893 z" fill="#009933" stroke="none"/>
<path d="M8.5,7.5 L8.355835,7.81893 A0.35,0.35,0,0,1,8.253097,7.7480702 z" fill="#231977" stroke="none"/>
<circle cx="8.5" cy="7.5" fill="transparent" r="0.35" stroke="green" stroke-width="0.025"/>
</g>
<g opacity="0.3">
<path d="M8.525,8.45 L8.525,8.1 A0.35,0.35,0,0,1,8.868475,8.3827305 z" fill="#DDDD00" stroke="none"/>
<path d="M8.525,8.45 L8.868475,8.3827305 A0.35,0.35,0,0,1,8.686978,8.760263 z" fill="#1B49DD" stroke="none"/>
<path d="M8.525,8.45 L8.686978,8.760263 A0.35,0.35,0,0,1,8.5349045,8.79986 z" fill="#009933" stroke="none"/>
<path d="M8.525,8.45 L8.5349045,8.79986 A0.35,0.35,0,0,1,8.41152,8.781093 z" fill="#231977" stroke="none"/>
<path d="M8.525,8.45 L8.41152,8.781093 A0.35,0.35,0,0,1,8.307702,8.724375 z" fill="#83CF39" stroke="none"/>
<circle cx="8.525" cy="8.45" fill="transparent" r="0.35" stroke="green" stroke-width="0.025"/>
</g>
<g opacity="0.3">
<path d="M8.475,9.525 L8.475,9.175 A0.35,0.35,0,0,1,8.7904415,9.676647 z" fill="#EE2020" stroke="none"/>
<path d="M8.475,9.525 L8.7904415,9.676647 A0.35,0.35,0,0,1,8.4191065,9.870508 z" fill="#1B49DD" stroke="none"/>
<path d="M8.475,9.525 L8.4191065,9.870508 A0.35,0.35,0,0,1,8.273573,9.811229 z" fill="#AF0000" stroke="none"/>
<path d="M8.475,9.525 L8.273573,9.811229 A0.35,0.35,0,0,1,8.185949,9.722357 z" fill="#231977" stroke="none"/>
<path d="M8.475,9.525 L8.185949,9.722357 A0.35,0.35,0,0,1,8.136713,9.614789 z" fill="#83CF39" stroke="none"/>
<circle cx="8.475" cy="9.525" fill="transparent" r="0.35" stroke="green" stroke-width="0.025"/>
</g>
<g opacity="0.3">
<path d="M8.5,10.5 L8.5,10.15 A0.35,0.35,0,0,1,8.815441,10.651647 z" fill="#EE2020" stroke="none"/>
<path d="M8.5,10.5 L8.815441,10.651647 A0.35,0.35,0,0,1,8.444107,10.845509 z" fill="#1B49DD" stroke="none"/>
<path d="M8.5,10.5 L8.444107,10.845509 A0.35,0.35,0,0,1,8.298573,10.786229 z" fill="#AF0000" stroke="none"/>
<path d="M8.5,10.5 L8.298573,10.786229 A0.35,0.35,0,0,1,8.210949,10.697357 z" fill="#231977" stroke="none"/>
<circle cx="8.5" cy="10.5" fill="transparent" r="0.35" stroke="green" stroke-width="0.025"/>
</g>
<g opacity="0.3">
<path d="M8.475,11.5 L8.475,11.15 A0.35,0.35,0,0,1,8.7904415,11.651647 z" fill="#EE2020" stroke="none"/>
<path d="M8.475,11.5 L8.7904415,11.651647 A0.35,0.35,0,0,1,8.4191065,11.845509 z" fill="#1B49DD" stroke="none"/>
<path d="M8.475,11.5 L8.4191065,11.845509 A0.35,0.35,0,0,1,8.301432,11.803931 z" fill="#231977" stroke="none"/>
<circle cx="8.475000000000001" cy="11.5" fill="transparent" r="0.35" stroke="green" stroke-width="0.025"/>
</g>
<g opacity="0.3">
<path d="M8.475,12.475 L8.475,12.125 A0.35,0.35,0,0,1,8.810611,12.375674 z" fill="#1B49DD" stroke="none"/>
<path d="M8.475,12.475 L8.810611,12.375674 A0.35,0.35,0,0,1,8.824124,12.499744 z" fill="#231977" stroke="none"/>
<circle cx="8.475000000000001" cy="12.475" fill="transparent" r="0.35" stroke="red" stroke-width="0.025"/>
</g>
<g opacity="0.3">
<path d="M9.5,0.525 L9.5,0.175 A0.35,0.35,0,0,1,9.653133,0.21027747 z" fill="#AF0000" stroke="none"/>
<path d="M9.5,0.525 L9.653133,0.21027747 A0.35,0.35,0,0,1,9.753824,0.284016 z" fill="#231977" stroke="none"/>
<circle cx="9.5" cy="0.525" fill="transparent" r="0.35" stroke="red" stroke-width="0.025"/>
</g>
<g opacity="0.3">
<path d="M9.5,1.5 L9.5,1.15 A0.35,0.35,0,0,1,9.815441,1.6516467 z" fill="#EE2020" stroke="none"/>
<path d="M9.5,1.5 L9.815441,1.6516467 A0.35,0.35,0,0,1,9.7172985,1.7743747 z" fill="#AF0000" stroke="none"/>
<path d="M9.5,1.5 L9.7172985,1.7743747 A0.35,0.35,0,0,1,9.607213,1.8331746 z" fill="#231977" stroke="none"/>
<circle cx="9.5" cy="1.5" fill="transparent" r="0.35" stroke="red" stroke-width="0.025"/>
</g>
<g opacity="0.3">
<path d="M9.5,2.5 L9.5,2.15 A0.35,0.35,0,0,1,9.815441,2.6516469 z" fill="#EE2020" stroke="none"/>
<path d="M9.5,2.5 L9.815441,2.6516469 A0.35,0.35,0,0,1,9.411808,2.8387065 z" fill="#DDDD00" stroke="none"/>
<path d="M9.5,2.5 L9.411808,2.8387065 A0.35,0.35,0,0,1,9.272505,2.7659812 z" fill="#AF0000" stroke="none"/>
<path d="M9.5,2.5 L9.272505,2.7659812 A0.35,0.35,0,0,1,9.193644,2.66925 z" fill="#231977" stroke="none"/>
<circle cx="9.5" cy="2.5" fill="transparent" r="0.35" stroke="green" stroke-width="0.025"/>
</g>
<g opacity="0.3">
<path d="M9.475,3.45 L9.475,3.1 A0.35,0.35,0,0,1,9.7904415,3.6016467 z" fill="#EE2020" stroke="none"/>
<path d="M9.475,3.45 L9.7904415,3.6016467 A0.35,0.35,0,0,1,9.386807,3.7887065 z" fill="#DDDD00" stroke="none"/>
<path d="M9.475,3.45 L9.386807,3.7887065 A0.35,0.35,0,0,1,9.247505,3.7159812 z" fill="#AF0000" stroke="none"/>
<path d="M9.475,3.45 L9.247505,3.7159812 A0.35,0.35,0,0,1,9.168643,3.61925 z" fill="#231977" stroke="none"/>
<path d="M9.475,3.45 L9.168643,3.61925 A0.35,0.35,0,0,1,9.129759,3.5075223 z" fill="#83CF39" stroke="none"/>
<circle cx="9.475" cy="3.45" fill="transparent" r="0.35" stroke="green" stroke-width="0.025"/>
</g>
<g opacity="0.3">
<path d="M9.575,4.525 L9.575,4.175 A0.35,0.35,0,0,1,9.91061,4.425674 z" fill="#1B49DD" stroke="none"/>
<path d="M9.575,4.525 L9.91061,4.425674 A0.35,0.35,0,0,1,9.92024,4.5825224 z" fill="#AF0000" stroke="none"/>
<path d="M9.575,4.525 L9.92024,4.5825224 A0.35,0.35,0,0,1,9.860275,4.727775 z" fill="#009933" stroke="none"/>
<path d="M9.575,4.525 L9.860275,4.727775 A0.35,0.35,0,0,1,9.770991,4.8149786 z" fill="#231977" stroke="none"/>
<path d="M9.575,4.525 L9.770991,4.8149786 A0.35,0.35,0,0,1,9.663193,4.8637066 z" fill="#83CF39" stroke="none"/>
<circle cx="9.575" cy="4.525" fill="transparent" r="0.35" stroke="red" stroke-width="0.025"/>
</g>
<g opacity="0.3">
<path d="M9.575,5.5 L9.575,5.15 A0.35,0.35,0,0,1,9.918474,5.4327307 z" fill="#DDDD00" stroke="none"/>
<path d="M9.575,5.5 L9.918474,5.4327307 A0.35,0.35,0,0,1,9.736978,5.810263 z" fill="#1B49DD" stroke="none"/>
<path d="M9.575,5.5 L9.736978,5.810263 A0.35,0.35,0,0,1,9.584905,5.8498597 z" fill="#AF0000" stroke="none"/>
<path d="M9.575,5.5 L9.584905,5.8498597 A0.35,0.35,0,0,1,9.430835,5.81893 z" fill="#009933" stroke="none"/>
<path d="M9.575,5.5 L9.430835,5.81893 A0.35,0.35,0,0,1,9.332822,5.7526846 z" fill="#83CF39" stroke="none"/>
<circle cx="9.575" cy="5.5" fill="transparent" r="0.35" stroke="green" stroke-width="0.025"/>
</g>
<g opacity="0.3">
<path d="M9.575,6.475 L9.575,6.125 A0.35,0.35,0,0,1,9.918474,6.4077306 z" fill="#DDDD00" stroke="none"/>
<path d="M9.575,6.475 L9.918474,6.4077306 A0.35,0.35,0,0,1,9.913287,6.564789 z" fill="#AF0000" stroke="none"/>
<path d="M9.575,6.475 L9.913287,6.564789 A0.35,0.35,0,0,1,9.839905,6.7037473 z" fill="#009933" stroke="none"/>
<path d="M9.575,6.475 L9.839905,6.7037473 A0.35,0.35,0,0,1,9.742803,6.7821517 z" fill="#231977" stroke="none"/>
<path d="M9.575,6.475 L9.742803,6.7821517 A0.35,0.35,0,0,1,9.630893,6.8205085 z" fill="#83CF39" stroke="none"/>
<circle cx="9.575" cy="6.475" fill="transparent" r="0.35" stroke="red" stroke-width="0.025"/>
</g>
<g>
<path d="M9.5,7.5 L9.5,7.15 A0.35,0.35,0,0,1,9.843474,7.4327307 z" fill="#DDDD00" stroke="none"/>
<path d="M9.5,7.5 L9.843474,7.4327307 A0.35,0.35,0,0,1,9.661978,7.810263 z" fill="#1B49DD" stroke="none"/>
<path d="M9.5,7.5 L9.661978,7.810263 A0.35,0.35,0,0,1,9.509905,7.8498597 z" fill="#AF0000" stroke="none"/>
<path d="M9.5,7.5 L9.509905,7.8498597 A0.35,0.35,0,0,1,9.355835,7.81893 z" fill="#009933" stroke="none"/>
<circle cx="9.5" cy="7.5" fill="transparent" r="0.35" stroke="white" stroke-width="0.025"/>
</g>
<g>
<path d="M9.5,8.45 L9.5,8.1 A0.35,0.35,0,0,1,9.843474,8.3827305 z" fill="#DDDD00" stroke="none"/>
<path d="M9.5,8.45 L9.843474,8.3827305 A0.35,0.35,0,0,1,9.661978,8.760263 z" fill="#1B49DD" stroke="none"/>
<path d="M9.5,8.45 L9.661978,8.760263 A0.35,0.35,0,0,1,9.509905,8.79986 z" fill="#009933" stroke="none"/>
<path d="M9.5,8.45 L9.509905,8.79986 A0.35,0.35,0,0,1,9.386519,8.781093 z" fill="#231977" stroke="none"/>
<circle cx="9.5" cy="8.45" fill="transparent" r="0.35" stroke="white" stroke-width="0.025"/>
</g>
<g opacity="0.3">
<path d="M9.475,9.55 L9.475,9.2 A0.35,0.35,0,0,1,9.7904415,9.701647 z" fill="#EE2020" stroke="none"/>
<path d="M9.475,9.55 L9.7904415,9.701647 A0.35,0.35,0,0,1,9.692298,9.824375 z" fill="#AF0000" stroke="none"/>
<path d="M9.475,9.55 L9.692298,9.824375 A0.35,0.35,0,0,1,9.550351,9.891792 z" fill="#009933" stroke="none"/>
<path d="M9.475,9.55 L9.550351,9.891792 A0.35,0.35,0,0,1,9.425635,9.896502 z" fill="#231977" stroke="none"/>
<path d="M9.475,9.55 L9.425635,9.896502 A0.35,0.35,0,0,1,9.313022,9.860263 z" fill="#83CF39" stroke="none"/>
<circle cx="9.475" cy="9.55" fill="transparent" r="0.35" stroke="green" stroke-width="0.025"/>
</g>
<g>
<path d="M9.45,10.5 L9.45,10.15 A0.35,0.35,0,0,1,9.765441,10.651647 z" fill="#EE2020" stroke="none"/>
<path d="M9.45,10.5 L9.765441,10.651647 A0.35,0.35,0,0,1,9.667298,10.774375 z" fill="#AF0000" stroke="none"/>
<path d="M9.45,10.5 L9.667298,10.774375 A0.35,0.35,0,0,1,9.525351,10.841793 z" fill="#009933" stroke="none"/>
<path d="M9.45,10.5 L9.525351,10.841793 A0.35,0.35,0,0,1,9.400636,10.846501 z" fill="#231977" stroke="none"/>
<circle cx="9.45" cy="10.5" fill="transparent" r="0.35" stroke="white" stroke-width="0.025"/>
</g>
<g opacity="0.3">
<path d="M9.45,11.5 L9.45,11.15 A0.35,0.35,0,0,1,9.765441,11.651647 z" fill="#EE2020" stroke="none"/>
<path d="M9.45,11.5 L9.765441,11.651647 A0.35,0.35,0,0,1,9.667298,11.774375 z" fill="#AF0000" stroke="none"/>
<path d="M9.45,11.5 L9.667298,11.774375 A0.35,0.35,0,0,1,9.525351,11.841793 z" fill="#009933" stroke="none"/>
<circle cx="9.45" cy="11.5" fill="transparent" r="0.35" stroke="red" stroke-width="0.025"/>
</g>
<g opacity="0.3">
<path d="M9.45,12.5 L9.45,12.15 A0.35,0.35,0,0,1,9.603133,12.185278 z" fill="#AF0000" stroke="none"/>
<path d="M9.45,12.5 L9.603133,12.185278 A0.35,0.35,0,0,1,9.725397,12.2839985 z" fill="#009933" stroke="none"/>
<circle cx="9.45" cy="12.5" fill="transparent" r="0.35" stroke="red" stroke-width="0.025"/>
</g>
<g opacity="0.3">
<path d="M10.525,0.5 L10.525,0.15 A0.35,0.35,0,0,1,10.678133,0.18527748 z" fill="#AF0000" stroke="none"/>
<path d="M10.525,0.5 L10.678133,0.18527748 A0.35,0.35,0,0,1,10.774232,0.25426996 z" fill="#83CF39" stroke="none"/>
<circle cx="10.525" cy="0.5" fill="transparent" r="0.35" stroke="red" stroke-width="0.025"/>
</g>
<g opacity="0.3">
<path d="M10.525,1.5 L10.525,1.15 A0.35,0.35,0,0,1,10.840442,1.6516467 z" fill="#EE2020" stroke="none"/>
<path d="M10.525,1.5 L10.840442,1.6516467 A0.35,0.35,0,0,1,10.742298,1.7743747 z" fill="#AF0000" stroke="none"/>
<path d="M10.525,1.5 L10.742298,1.7743747 A0.35,0.35,0,0,1,10.63848,1.8310925 z" fill="#83CF39" stroke="none"/>
<circle cx="10.525" cy="1.5" fill="transparent" r="0.35" stroke="red" stroke-width="0.025"/>
</g>
<g opacity="0.3">
<path d="M10.5,2.5 L10.5,2.15 A0.35,0.35,0,0,1,10.815441,2.6516469 z" fill="#EE2020" stroke="none"/>
<path d="M10.5,2.5 L10.815441,2.6516469 A0.35,0.35,0,0,1,10.411808,2.8387065 z" fill="#DDDD00" stroke="none"/>
<path d="M10.5,2.5 L10.411808,2.8387065 A0.35,0.35,0,0,1,10.272505,2.7659812 z" fill="#AF0000" stroke="none"/>
<path d="M10.5,2.5 L10.272505,2.7659812 A0.35,0.35,0,0,1,10.196891,2.675 z" fill="#83CF39" stroke="none"/>
<circle cx="10.5" cy="2.5" fill="transparent" r="0.35" stroke="green" stroke-width="0.025"/>
</g>
<g opacity="0.3">
<path d="M10.5,3.425 L10.5,3.075 A0.35,0.35,0,0,1,10.815441,3.5766468 z" fill="#EE2020" stroke="none"/>
<path d="M10.5,3.425 L10.815441,3.5766468 A0.35,0.35,0,0,1,10.411808,3.7637064 z" fill="#DDDD00" stroke="none"/>
<path d="M10.5,3.425 L10.411808,3.7637064 A0.35,0.35,0,0,1,10.272505,3.6909811 z" fill="#AF0000" stroke="none"/>
<path d="M10.5,3.425 L10.272505,3.6909811 A0.35,0.35,0,0,1,10.179062,3.564638 z" fill="#009933" stroke="none"/>
<path d="M10.5,3.425 L10.179062,3.564638 A0.35,0.35,0,0,1,10.150876,3.4497442 z" fill="#83CF39" stroke="none"/>
<circle cx="10.5" cy="3.425" fill="transparent" r="0.35" stroke="green" stroke-width="0.025"/>
</g>
<g opacity="0.3">
<path d="M10.5,4.5 L10.5,4.15 A0.35,0.35,0,0,1,10.83561,4.400674 z" fill="#1B49DD" stroke="none"/>
<path d="M10.5,4.5 L10.83561,4.400674 A0.35,0.35,0,0,1,10.845241,4.5575223 z" fill="#AF0000" stroke="none"/>
<path d="M10.5,4.5 L10.845241,4.5575223 A0.35,0.35,0,0,1,10.785275,4.7027755 z" fill="#009933" stroke="none"/>
<path d="M10.5,4.5 L10.785275,4.7027755 A0.35,0.35,0,0,1,10.6959915,4.7899785 z" fill="#231977" stroke="none"/>
<circle cx="10.5" cy="4.5" fill="transparent" r="0.35" stroke="red" stroke-width="0.025"/>
</g>
<g>
<path d="M10.5,5.525 L10.5,5.175 A0.35,0.35,0,0,1,10.843474,5.457731 z" fill="#DDDD00" stroke="none"/>
<path d="M10.5,5.525 L10.843474,5.457731 A0.35,0.35,0,0,1,10.661978,5.835263 z" fill="#1B49DD" stroke="none"/>
<path d="M10.5,5.525 L10.661978,5.835263 A0.35,0.35,0,0,1,10.509905,5.87486 z" fill="#AF0000" stroke="none"/>
<path d="M10.5,5.525 L10.509905,5.87486 A0.35,0.35,0,0,1,10.392787,5.8581743 z" fill="#83CF39" stroke="none"/>
<circle cx="10.5" cy="5.525" fill="transparent" r="0.35" stroke="white" stroke-width="0.025"/>
</g>
<g opacity="0.3">
<path d="M10.5,6.525 L10.5,6.175 A0.35,0.35,0,0,1,10.843474,6.457731 z" fill="#DDDD00" stroke="none"/>
<path d="M10.5,6.525 L10.843474,6.457731 A0.35,0.35,0,0,1,10.838286,6.614789 z" fill="#AF0000" stroke="none"/>
<path d="M10.5,6.525 L10.838286,6.614789 A0.35,0.35,0,0,1,10.764905,6.753747 z" fill="#009933" stroke="none"/>
<path d="M10.5,6.525 L10.764905,6.753747 A0.35,0.35,0,0,1,10.667803,6.832152 z" fill="#231977" stroke="none"/>
<circle cx="10.5" cy="6.525" fill="transparent" r="0.35" stroke="red" stroke-width="0.025"/>
</g>
<g opacity="0.3">
<path d="M10.5,7.525 L10.5,7.175 A0.35,0.35,0,0,1,10.843474,7.457731 z" fill="#DDDD00" stroke="none"/>
<path d="M10.5,7.525 L10.843474,7.457731 A0.35,0.35,0,0,1,10.661978,7.835263 z" fill="#1B49DD" stroke="none"/>
<path d="M10.5,7.525 L10.661978,7.835263 A0.35,0.35,0,0,1,10.509905,7.87486 z" fill="#AF0000" stroke="none"/>
<circle cx="10.5" cy="7.525" fill="transparent" r="0.35" stroke="red" stroke-width="0.025"/>
</g>
<g opacity="0.3">
<path d="M10.5,8.5 L10.5,8.15 A0.35,0.35,0,0,1,10.843474,8.432731 z" fill="#DDDD00" stroke="none"/>
<path d="M10.5,8.5 L10.843474,8.432731 A0.35,0.35,0,0,1,10.661978,8.810263 z" fill="#1B49DD" stroke="none"/>
<path d="M10.5,8.5 L10.661978,8.810263 A0.35,0.35,0,0,1,10.509905,8.84986 z" fill="#009933" stroke="none"/>
<circle cx="10.5" cy="8.5" fill="transparent" r="0.35" stroke="red" stroke-width="0.025"/>
</g>
<g opacity="0.3">
<path d="M10.55,9.475 L10.55,9.125 A0.35,0.35,0,0,1,10.865441,9.626647 z" fill="#EE2020" stroke="none"/>
<path d="M10.55,9.475 L10.865441,9.626647 A0.35,0.35,0,0,1,10.461807,9.813706 z" fill="#DDDD00" stroke="none"/>
<path d="M10.55,9.475 L10.461807,9.813706 A0.35,0.35,0,0,1,10.200191,9.486555 z" fill="#1B49DD" stroke="none"/>
<path d="M10.55,9.475 L10.200191,9.486555 A0.35,0.35,0,0,1,10.230393,9.33234 z" fill="#009933" stroke="none"/>
<path d="M10.55,9.475 L10.230393,9.33234 A0.35,0.35,0,0,1,10.296176,9.234016 z" fill="#83CF39" stroke="none"/>
<circle cx="10.55" cy="9.475" fill="transparent" r="0.35" stroke="green" stroke-width="0.025"/>
</g>
<g opacity="0.3">
<path d="M10.55,10.5 L10.55,10.15 A0.35,0.35,0,0,1,10.865441,10.651647 z" fill="#EE2020" stroke="none"/>
<path d="M10.55,10.5 L10.865441,10.651647 A0.35,0.35,0,0,1,10.461807,10.838707 z" fill="#DDDD00" stroke="none"/>
<path d="M10.55,10.5 L10.461807,10.838707 A0.35,0.35,0,0,1,10.200191,10.511555 z" fill="#1B49DD" stroke="none"/>
<path d="M10.55,10.5 L10.200191,10.511555 A0.35,0.35,0,0,1,10.218376,10.3880825 z" fill="#231977" stroke="none"/>
<path d="M10.55,10.5 L10.218376,10.3880825 A0.35,0.35,0,0,1,10.274603,10.2839985 z" fill="#83CF39" stroke="none"/>
<circle cx="10.55" cy="10.5" fill="transparent" r="0.35" stroke="green" stroke-width="0.025"/>
</g>
<g>
<path d="M10.55,11.5 L10.55,11.15 A0.35,0.35,0,0,1,10.893475,11.432731 z" fill="#DDDD00" stroke="none"/>
<path d="M10.55,11.5 L10.893475,11.432731 A0.35,0.35,0,0,1,10.711978,11.810263 z" fill="#1B49DD" stroke="none"/>
<path d="M10.55,11.5 L10.711978,11.810263 A0.35,0.35,0,0,1,10.592818,11.847371 z" fill="#231977" stroke="none"/>
<path d="M10.55,11.5 L10.592818,11.847371 A0.35,0.35,0,0,1,10.474649,11.841793 z" fill="#83CF39" stroke="none"/>
<circle cx="10.55" cy="11.5" fill="transparent" r="0.35" stroke="white" stroke-width="0.025"/>
</g>
<g opacity="0.3">
<path d="M10.525,12.475 L10.525,12.125 A0.35,0.35,0,0,1,10.868475,12.407731 z" fill="#DDDD00" stroke="none"/>
<path d="M10.525,12.475 L10.868475,12.407731 A0.35,0.35,0,0,1,10.870241,12.532522 z" fill="#231977" stroke="none"/>
<path d="M10.525,12.475 L10.870241,12.532522 A0.35,0.35,0,0,1,10.831357,12.64425 z" fill="#83CF39" stroke="none"/>
<circle cx="10.525" cy="12.475" fill="transparent" r="0.35" stroke="red" stroke-width="0.025"/>
</g>
<g opacity="0.3">
<path d="M11.475,0.525 L11.475,0.175 A0.35,0.35,0,0,1,11.628133,0.21027747 z" fill="#AF0000" stroke="none"/>
<path d="M11.475,0.525 L11.628133,0.21027747 A0.35,0.35,0,0,1,11.728825,0.284016 z" fill="#231977" stroke="none"/>
<path d="M11.475,0.525 L11.728825,0.284016 A0.35,0.35,0,0,1,11.794606,0.38234058 z" fill="#83CF39" stroke="none"/>
<circle cx="11.475" cy="0.525" fill="transparent" r="0.35" stroke="red" stroke-width="0.025"/>
</g>
<g>
<path d="M11.475,1.45 L11.475,1.1 A0.35,0.35,0,0,1,11.7904415,1.6016468 z" fill="#EE2020" stroke="none"/>
<path d="M11.475,1.45 L11.7904415,1.6016468 A0.35,0.35,0,0,1,11.692298,1.7243748 z" fill="#AF0000" stroke="none"/>
<path d="M11.475,1.45 L11.692298,1.7243748 A0.35,0.35,0,0,1,11.582213,1.7831745 z" fill="#231977" stroke="none"/>
<path d="M11.475,1.45 L11.582213,1.7831745 A0.35,0.35,0,0,1,11.4650955,1.7998599 z" fill="#83CF39" stroke="none"/>
<circle cx="11.475" cy="1.45" fill="transparent" r="0.35" stroke="white" stroke-width="0.025"/>
</g>
<g opacity="0.3">
<path d="M11.55,2.525 L11.55,2.175 A0.35,0.35,0,0,1,11.865441,2.6766467 z" fill="#EE2020" stroke="none"/>
<path d="M11.55,2.525 L11.865441,2.6766467 A0.35,0.35,0,0,1,11.461807,2.8637066 z" fill="#DDDD00" stroke="none"/>
<path d="M11.55,2.525 L11.461807,2.8637066 A0.35,0.35,0,0,1,11.322505,2.7909813 z" fill="#009933" stroke="none"/>
<path d="M11.55,2.525 L11.322505,2.7909813 A0.35,0.35,0,0,1,11.243644,2.69425 z" fill="#231977" stroke="none"/>
<circle cx="11.55" cy="2.525" fill="transparent" r="0.35" stroke="green" stroke-width="0.025"/>
</g>
<g opacity="0.3">
<path d="M11.475,3.45 L11.475,3.1 A0.35,0.35,0,0,1,11.7904415,3.6016467 z" fill="#EE2020" stroke="none"/>
<path d="M11.475,3.45 L11.7904415,3.6016467 A0.35,0.35,0,0,1,11.386807,3.7887065 z" fill="#DDDD00" stroke="none"/>
<path d="M11.475,3.45 L11.386807,3.7887065 A0.35,0.35,0,0,1,11.247505,3.7159812 z" fill="#009933" stroke="none"/>
<path d="M11.475,3.45 L11.247505,3.7159812 A0.35,0.35,0,0,1,11.168643,3.61925 z" fill="#231977" stroke="none"/>
<path d="M11.475,3.45 L11.168643,3.61925 A0.35,0.35,0,0,1,11.129759,3.5075223 z" fill="#83CF39" stroke="none"/>
<circle cx="11.475000000000001" cy="3.45" fill="transparent" r="0.35" stroke="green" stroke-width="0.025"/>
</g>
<g opacity="0.3">
<path d="M11.5,4.475 L11.5,4.125 A0.35,0.35,0,0,1,11.653133,4.1602774 z" fill="#AF0000" stroke="none"/>
<path d="M11.5,4.475 L11.653133,4.1602774 A0.35,0.35,0,0,1,11.775396,4.2589984 z" fill="#009933" stroke="none"/>
<path d="M11.5,4.475 L11.775396,4.2589984 A0.35,0.35,0,0,1,11.833676,4.3693595 z" fill="#231977" stroke="none"/>
<circle cx="11.5" cy="4.475" fill="transparent" r="0.35" stroke="red" stroke-width="0.025"/>
</g>
<g opacity="0.3">
<path d="M11.5,5.55 L11.5,5.2 A0.35,0.35,0,0,1,11.843474,5.482731 z" fill="#DDDD00" stroke="none"/>
<path d="M11.5,5.55 L11.843474,5.482731 A0.35,0.35,0,0,1,11.661978,5.860263 z" fill="#1B49DD" stroke="none"/>
<path d="M11.5,5.55 L11.661978,5.860263 A0.35,0.35,0,0,1,11.549364,5.896501 z" fill="#83CF39" stroke="none"/>
<circle cx="11.5" cy="5.550000000000001" fill="transparent" r="0.35" stroke="red" stroke-width="0.025"/>
</g>
<g opacity="0.3">
<path d="M11.5,6.525 L11.5,6.175 A0.35,0.35,0,0,1,11.843474,6.457731 z" fill="#DDDD00" stroke="none"/>
<path d="M11.5,6.525 L11.843474,6.457731 A0.35,0.35,0,0,1,11.838286,6.614789 z" fill="#AF0000" stroke="none"/>
<path d="M11.5,6.525 L11.838286,6.614789 A0.35,0.35,0,0,1,11.764905,6.753747 z" fill="#009933" stroke="none"/>
<circle cx="11.5" cy="6.525" fill="transparent" r="0.35" stroke="red" stroke-width="0.025"/>
</g>
<g opacity="0.3">
<path d="M11.5,7.525 L11.5,7.175 A0.35,0.35,0,0,1,11.843474,7.457731 z" fill="#DDDD00" stroke="none"/>
<path d="M11.5,7.525 L11.843474,7.457731 A0.35,0.35,0,0,1,11.661978,7.835263 z" fill="#1B49DD" stroke="none"/>
<circle cx="11.5" cy="7.525" fill="transparent" r="0.35" stroke="red" stroke-width="0.025"/>
</g>
<g opacity="0.3">
<path d="M11.5,8.5 L11.5,8.15 A0.35,0.35,0,0,1,11.843474,8.432731 z" fill="#DDDD00" stroke="none"/>
<path d="M11.5,8.5 L11.843474,8.432731 A0.35,0.35,0,0,1,11.838286,8.589789 z" fill="#009933" stroke="none"/>
<circle cx="11.5" cy="8.5" fill="transparent" r="0.35" stroke="red" stroke-width="0.025"/>
</g>
<g opacity="0.3">
<path d="M11.5,9.475 L11.5,9.125 A0.35,0.35,0,0,1,11.815441,9.626647 z" fill="#EE2020" stroke="none"/>
<path d="M11.5,9.475 L11.815441,9.626647 A0.35,0.35,0,0,1,11.411808,9.813706 z" fill="#DDDD00" stroke="none"/>
<path d="M11.5,9.475 L11.411808,9.813706 A0.35,0.35,0,0,1,11.272505,9.740981 z" fill="#009933" stroke="none"/>
<path d="M11.5,9.475 L11.272505,9.740981 A0.35,0.35,0,0,1,11.196891,9.65 z" fill="#83CF39" stroke="none"/>
<circle cx="11.5" cy="9.475" fill="transparent" r="0.35" stroke="green" stroke-width="0.025"/>
</g>
<g opacity="0.3">
<path d="M11.5,10.5 L11.5,10.15 A0.35,0.35,0,0,1,11.815441,10.651647 z" fill="#EE2020" stroke="none"/>
<path d="M11.5,10.5 L11.815441,10.651647 A0.35,0.35,0,0,1,11.411808,10.838707 z" fill="#DDDD00" stroke="none"/>
<path d="M11.5,10.5 L11.411808,10.838707 A0.35,0.35,0,0,1,11.298573,10.786229 z" fill="#231977" stroke="none"/>
<path d="M11.5,10.5 L11.298573,10.786229 A0.35,0.35,0,0,1,11.214725,10.702775 z" fill="#83CF39" stroke="none"/>
<circle cx="11.5" cy="10.5" fill="transparent" r="0.35" stroke="green" stroke-width="0.025"/>
</g>
<g opacity="0.3">
<path d="M11.45,11.525 L11.45,11.175 A0.35,0.35,0,0,1,11.765441,11.676647 z" fill="#EE2020" stroke="none"/>
<path d="M11.45,11.525 L11.765441,11.676647 A0.35,0.35,0,0,1,11.394107,11.870508 z" fill="#1B49DD" stroke="none"/>
<path d="M11.45,11.525 L11.394107,11.870508 A0.35,0.35,0,0,1,11.276432,11.828931 z" fill="#231977" stroke="none"/>
<path d="M11.45,11.525 L11.276432,11.828931 A0.35,0.35,0,0,1,11.185095,11.753747 z" fill="#83CF39" stroke="none"/>
<circle cx="11.45" cy="11.525" fill="transparent" r="0.35" stroke="green" stroke-width="0.025"/>
</g>
<g opacity="0.3">
<path d="M11.5,12.475 L11.5,12.125 A0.35,0.35,0,0,1,11.83561,12.375674 z" fill="#1B49DD" stroke="none"/>
<path d="M11.5,12.475 L11.83561,12.375674 A0.35,0.35,0,0,1,11.849124,12.499744 z" fill="#231977" stroke="none"/>
<path d="M11.5,12.475 L11.849124,12.499744 A0.35,0.35,0,0,1,11.820938,12.614638 z" fill="#83CF39" stroke="none"/>
<circle cx="11.5" cy="12.475" fill="transparent" r="0.35" stroke="red" stroke-width="0.025"/>
</g>
<g opacity="0.3">
<path d="M12.5,0.5 L12.5,0.15 A0.35,0.35,0,0,1,12.653133,0.18527748 z" fill="#AF0000" stroke="none"/>
<path d="M12.5,0.5 L12.653133,0.18527748 A0.35,0.35,0,0,1,12.775396,0.28399846 z" fill="#009933" stroke="none"/>
<path d="M12.5,0.5 L12.775396,0.28399846 A0.35,0.35,0,0,1,12.831624,0.38808262 z" fill="#83CF39" stroke="none"/>
<circle cx="12.5" cy="0.5" fill="transparent" r="0.35" stroke="red" stroke-width="0.025"/>
</g>
<g>
<path d="M12.475,1.475 L12.475,1.125 A0.35,0.35,0,0,1,12.7904415,1.6266468 z" fill="#EE2020" stroke="none"/>
<path d="M12.475,1.475 L12.7904415,1.6266468 A0.35,0.35,0,0,1,12.692298,1.7493747 z" fill="#AF0000" stroke="none"/>
<path d="M12.475,1.475 L12.692298,1.7493747 A0.35,0.35,0,0,1,12.550351,1.8167927 z" fill="#009933" stroke="none"/>
<path d="M12.475,1.475 L12.550351,1.8167927 A0.35,0.35,0,0,1,12.432182,1.822371 z" fill="#83CF39" stroke="none"/>
<circle cx="12.475" cy="1.475" fill="transparent" r="0.35" stroke="white" stroke-width="0.025"/>
</g>
<g opacity="0.3">
<path d="M12.475,2.5 L12.475,2.15 A0.35,0.35,0,0,1,12.7904415,2.6516469 z" fill="#EE2020" stroke="none"/>
<path d="M12.475,2.5 L12.7904415,2.6516469 A0.35,0.35,0,0,1,12.692298,2.7743747 z" fill="#009933" stroke="none"/>
<path d="M12.475,2.5 L12.692298,2.7743747 A0.35,0.35,0,0,1,12.582213,2.8331745 z" fill="#231977" stroke="none"/>
<circle cx="12.475" cy="2.5" fill="transparent" r="0.35" stroke="red" stroke-width="0.025"/>
</g>
<g opacity="0.3">
<path d="M12.5,5.5 L12.5,5.15 A0.35,0.35,0,0,1,12.843474,5.4327307 z" fill="#DDDD00" stroke="none"/>
<path d="M12.5,5.5 L12.843474,5.4327307 A0.35,0.35,0,0,1,12.846265,5.550998 z" fill="#83CF39" stroke="none"/>
<circle cx="12.5" cy="5.5" fill="transparent" r="0.35" stroke="red" stroke-width="0.025"/>
</g>
<g opacity="0.3">
<path d="M12.475,6.525 L12.475,6.175 A0.35,0.35,0,0,1,12.818475,6.457731 z" fill="#DDDD00" stroke="none"/>
<path d="M12.475,6.525 L12.818475,6.457731 A0.35,0.35,0,0,1,12.813287,6.614789 z" fill="#AF0000" stroke="none"/>
<circle cx="12.475" cy="6.525" fill="transparent" r="0.35" stroke="red" stroke-width="0.025"/>
</g>
<g opacity="0.3">
<path d="M12.5,7.475 L12.5,7.125 A0.35,0.35,0,0,1,12.843474,7.4077306 z" fill="#DDDD00" stroke="none"/>
<circle cx="12.5" cy="7.475" fill="transparent" r="0.35" stroke="red" stroke-width="0.025"/>
</g>
<g opacity="0.3">
<path d="M12.525,8.525 L12.525,8.175 A0.35,0.35,0,0,1,12.678133,8.210278 z" fill="#009933" stroke="none"/>
<path d="M12.525,8.525 L12.678133,8.210278 A0.35,0.35,0,0,1,12.774232,8.27927 z" fill="#83CF39" stroke="none"/>
<circle cx="12.525" cy="8.525" fill="transparent" r="0.35" stroke="red" stroke-width="0.025"/>
</g>
<g opacity="0.3">
<path d="M12.5,9.475 L12.5,9.125 A0.35,0.35,0,0,1,12.815441,9.626647 z" fill="#EE2020" stroke="none"/>
<path d="M12.5,9.475 L12.815441,9.626647 A0.35,0.35,0,0,1,12.7172985,9.749374 z" fill="#009933" stroke="none"/>
<path d="M12.5,9.475 L12.7172985,9.749374 A0.35,0.35,0,0,1,12.613481,9.806092 z" fill="#83CF39" stroke="none"/>
<circle cx="12.5" cy="9.475" fill="transparent" r="0.35" stroke="red" stroke-width="0.025"/>
</g>
<g opacity="0.3">
<path d="M12.5,10.475 L12.5,10.125 A0.35,0.35,0,0,1,12.815441,10.626647 z" fill="#EE2020" stroke="none"/>
<path d="M12.5,10.475 L12.815441,10.626647 A0.35,0.35,0,0,1,12.742179,10.727685 z" fill="#231977" stroke="none"/>
<path d="M12.5,10.475 L12.742179,10.727685 A0.35,0.35,0,0,1,12.644165,10.79393 z" fill="#83CF39" stroke="none"/>
<circle cx="12.5" cy="10.475" fill="transparent" r="0.35" stroke="red" stroke-width="0.025"/>
</g>
<g opacity="0.3">
<path d="M13.45,2.5 L13.45,2.15 A0.35,0.35,0,0,1,13.603133,2.1852775 z" fill="#009933" stroke="none"/>
<path d="M13.45,2.5 L13.603133,2.1852775 A0.35,0.35,0,0,1,13.703824,2.259016 z" fill="#231977" stroke="none"/>
<circle cx="13.45" cy="2.5" fill="transparent" r="0.35" stroke="red" stroke-width="0.025"/>
</g>
<g opacity="0.3">
<path d="M13.475,8.525 L13.475,8.175 A0.35,0.35,0,0,1,13.628133,8.210278 z" fill="#009933" stroke="none"/>
<path d="M13.475,8.525 L13.628133,8.210278 A0.35,0.35,0,0,1,13.728825,8.284016 z" fill="#231977" stroke="none"/>
<path d="M13.475,8.525 L13.728825,8.284016 A0.35,0.35,0,0,1,13.794606,8.38234 z" fill="#83CF39" stroke="none"/>
<circle cx="13.475" cy="8.525" fill="transparent" r="0.35" stroke="red" stroke-width="0.025"/>
</g>
<g>
<path d="M13.45,9.475 L13.45,9.125 A0.35,0.35,0,0,1,13.765441,9.626647 z" fill="#EE2020" stroke="none"/>
<path d="M13.45,9.475 L13.765441,9.626647 A0.35,0.35,0,0,1,13.667298,9.749374 z" fill="#009933" stroke="none"/>
<path d="M13.45,9.475 L13.667298,9.749374 A0.35,0.35,0,0,1,13.557214,9.808174 z" fill="#231977" stroke="none"/>
<path d="M13.45,9.475 L13.557214,9.808174 A0.35,0.35,0,0,1,13.440095,9.82486 z" fill="#83CF39" stroke="none"/>
<circle cx="13.45" cy="9.475" fill="transparent" r="0.35" stroke="white" stroke-width="0.025"/>
</g>
<g opacity="0.3">
<path d="M13.5,10.5 L13.5,10.15 A0.35,0.35,0,0,1,13.622805,10.172252 z" fill="#231977" stroke="none"/>
<path d="M13.5,10.5 L13.622805,10.172252 A0.35,0.35,0,0,1,13.724976,10.231884 z" fill="#83CF39" stroke="none"/>
<circle cx="13.5" cy="10.5" fill="transparent" r="0.35" stroke="red" stroke-width="0.025"/>
</g>
</svg>