<svg viewBox="-0.5 -0.5 6 3" width="480px" xmlns="http://www.w3.org/2000/svg">
<defs>
<mask id="background_mask">
<path d="M0.15,1 A0.15,0.15,0,0,1,0,0.85 L0,0.1 A0.15,0.15,0,0,1,0.15,-0.05 L2.85,-0.05 A0.15,0.15,0,0,1,3,0.1 L3,1.8 A0.15,0.15,0,0,1,2.85,1.95 L2.2,1.95 A0.15,0.15,0,0,1,2.05,1.8 L2.05,1.15 A0.15,0.15,0,0,0,1.9,1 z" fill="white" stroke="none"/>
<path d="M1.15,0.95 A0.15,0.15,0,0,1,1,0.8 L1,0.15 A0.15,0.15,0,0,1,1.15,0 L3.85,0 A0.15,0.15,0,0,1,4,0.15 L4,1.8 A0.15,0.15,0,0,1,3.85,1.95 L3.2,1.95 A0.15,0.15,0,0,1,3.05,1.8 L3.05,1.1 A0.15,0.15,0,0,0,2.9,0.95 z" fill="white" stroke="none"/>
<path d="M2.2,2 A0.2,0.2,0,0,1,2,1.8 L2,0.2 A0.15,0.15,0,0,1,2.15,0.05 L2.8,0.05 A0.15,0.15,0,0,1,2.95,0.2 L2.95,0.85 A0.15,0.15,0,0,0,3.1,1 L4.85,1 A0.15,0.15,0,0,1,5,1.15 L5,1.85 A0.15,0.15,0,0,1,4.85,2 z" fill="white" stroke="none"/>
</mask>
</defs>
<rect height="3" mask="url(#background_mask)" width="6" x="-0.5" y="-0.5"/>
<path d="M0.15,1 A0.15,0.15,0,0,1,0,0.85 L0,0.1 A0.15,0.15,0,0,1,0.15,-0.05 L2.85,-0.05 A0.15,0.15,0,0,1,3,0.1 L3,1.8 A0.15,0.15,0,0,1,2.85,1.95 L2.2,1.95 A0.15,0.15,0,0,1,2.05,1.8 L2.05,1.15 A0.15,0.15,0,0,0,1.9,1 z" fill="#EE2020" fill-opacity="0.2" stroke="none"/>
<path d="M1.15,0.95 A0.15,0.15,0,0,1,1,0.8 L1,0.15 A0.15,0.15,0,0,1,1.15,0 L3.85,0 A0.15,0.15,0,0,1,4,0.15 L4,1.8 A0.15,0.15,0,0,1,3.85,1.95 L3.2,1.95 A0.15,0.15,0,0,1,3.05,1.8 L3.05,1.1 A0.15,0.15,0,0,0,2.9,0.95 z" fill="#DDDD00" fill-opacity="0.2" stroke="none"/>
<path d="M2.2,2 A0.2,0.2,0,0,1,2,1.8 L2,0.2 A0.15,0.15,0,0,1,2.15,0.05 L2.8,0.05 A0.15,0.15,0,0,1,2.95,0.2 L2.95,0.85 A0.15,0.15,0,0,0,3.1,1 L4.85,1 A0.15,0.15,0,0,1,5,1.15 L5,1.85 A0.15,0.15,0,0,1,4.85,2 z" fill="#1B49DD" fill-opacity="0.2" stroke="none"/>
<path d="M0.15,1 A0.15,0.15,0,0,1,0,0.85 L0,0.1 A0.15,0.15,0,0,1,0.15,-0.05 L2.85,-0.05 A0.15,0.15,0,0,1,3,0.1 L3,1.8 A0.15,0.15,0,0,1,2.85,1.95 L2.2,1.95 A0.15,0.15,0,0,1,2.05,1.8 L2.05,1.15 A0.15,0.15,0,0,0,1.9,1 z" fill="none" stroke="#EE2020" stroke-width="0.05"/>
<path d="M1.15,0.95 A0.15,0.15,0,0,1,1,0.8 L1,0.15 A0.15,0.15,0,0,1,1.15,0 L3.85,0 A0.15,0.15,0,0,1,4,0.15 L4,1.8 A0.15,0.15,0,0,1,3.85,1.95 L3.2,1.95 A0.15,0.15,0,0,1,3.05,1.8 L3.05,1.1 A0.15,0.15,0,0,0,2.9,0.95 z" fill="none" stroke="#DDDD00" stroke-width="0.05"/>
<path d="M2.2,2 A0.2,0.2,0,0,1,2,1.8 L2,0.2 A0.15,0.15,0,0,1,2.15,0.05 L2.8,0.05 A0.15,0.15,0,0,1,2.95,0.2 L2.95,0.85 A0.15,0.15,0,0,0,3.1,1 L4.85,1 A0.15,0.15,0,0,1,5,1.15 L5,1.85 A0.15,0.15,0,0,1,4.85,2 z" fill="none" stroke="#1B49DD" stroke-width="0.05"/>
<g opacity="0.3">
<path d="M0.5,0.475 L0.5,0.125 A0.35,0.35,0,0,1,0.6461281,0.79303545 z" fill="#EE2020" stroke="none"/>
<circle cx="0.5" cy="0.475" fill="transparent" r="0.35" stroke="red" stroke-width="0.025"/>
</g>
<g>
<path d="M1.5,0.475 L1.5,0.125 A0.35,0.35,0,0,1,1.6461282,0.79303545 z" fill="#EE2020" stroke="none"/>
<path d="M1.5,0.475 L1.6461282,0.79303545 A0.35,0.35,0,0,1,1.154036,0.5279997 z" fill="#DDDD00" stroke="none"/>
<circle cx="1.5" cy="0.475" fill="transparent" r="0.35" stroke="white" stroke-width="0.025"/>
</g>
<g opacity="0.3">
<path d="M2.475,0.5 L2.475,0.15 A0.35,0.35,0,0,1,2.621128,0.8180355 z" fill="#EE2020" stroke="none"/>
<path d="M2.475,0.5 L2.621128,0.8180355 A0.35,0.35,0,0,1,2.1290362,0.55299973 z" fill="#DDDD00" stroke="none"/>
<path d="M2.475,0.5 L2.1290362,0.55299973 A0.35,0.35,0,0,1,2.475,0.15 z" fill="#1B49DD" stroke="none"/>
<circle cx="2.475" cy="0.5" fill="transparent" r="0.35" stroke="green" stroke-width="0.025"/>
</g>
<g>
<path d="M2.525,1.45 L2.525,1.1 A0.35,0.35,0,0,1,2.671128,1.7680355 z" fill="#EE2020" stroke="none"/>
<path d="M2.525,1.45 L2.671128,1.7680355 A0.35,0.35,0,0,1,2.1885042,1.5462836 z" fill="#1B49DD" stroke="none"/>
<circle cx="2.525" cy="1.45" fill="transparent" r="0.35" stroke="white" stroke-width="0.025"/>
</g>
<g opacity="0.3">
<path d="M3.5,0.5 L3.5,0.15 A0.35,0.35,0,0,1,3.8364959,0.5962836 z" fill="#DDDD00" stroke="none"/>
<circle cx="3.5" cy="0.5" fill="transparent" r="0.35" stroke="red" stroke-width="0.025"/>
</g>
<g>
<path d="M3.525,1.475 L3.525,1.125 A0.35,0.35,0,0,1,3.861496,1.5712837 z" fill="#DDDD00" stroke="none"/>
<path d="M3.525,1.475 L3.861496,1.5712837 A0.35,0.35,0,0,1,3.378872,1.7930355 z" fill="#1B49DD" stroke="none"/>
<circle cx="3.525" cy="1.475" fill="transparent" r="0.35" stroke="white" stroke-width="0.025"/>
</g>
<g opacity="0.3">
<path d="M4.5,1.5 L4.5,1.15 A0.35,0.35,0,0,1,4.845964,1.5529997 z" fill="#1B49DD" stroke="none"/>
<circle cx="4.5" cy="1.5" fill="transparent" r="0.35" stroke="red" stroke-width="0.025"/>
</g>
</svg>